<?xml version="1.0" encoding="utf-8"?>
<!-- Generator: Adobe Illustrator 16.0.4, SVG Export Plug-In . SVG Version: 6.00 Build 0)  -->
<!DOCTYPE svg PUBLIC "-//W3C//DTD SVG 1.1//EN" "http://www.w3.org/Graphics/SVG/1.1/DTD/svg11.dtd">
<svg version="1.1" id="Layer_1" xmlns="http://www.w3.org/2000/svg" xmlns:xlink="http://www.w3.org/1999/xlink" x="0px" y="0px"
	 width="595.28px" height="484.087px" viewBox="0 0 595.28 484.087" enable-background="new 0 0 595.28 484.087"
	 xml:space="preserve">
<g>
	<g>
		<g>
			<ellipse fill="#010101" cx="73.99" cy="135.742" rx="15.318" ry="22.831"/>
		</g>
		<g>
			<path fill="#010101" d="M500.467,227.515c0,0,7.745-0.699,9.628-7.417c1.4-5.001,2.824-59.608-11.237-77.213
				c0,0-6.271-3.927-10.979-2.797S500.467,227.515,500.467,227.515z"/>
		</g>
		<g>
			<path fill="#010101" d="M535.103,95.604c-1.947-0.487-5.124-0.721-17.903-0.721c-4.127,0-8.819,0.023-13.806,0.05
				c-5.631,0.026-11.641,0.058-17.639,0.058c-9.643,0-23.146-0.069-32.756-0.621c-15.392-11.189-33.122-17.161-52.743-17.755
				c-42.515-1.303-80.157,17.08-100.542,48.676c-0.561,0.943-1.29,2.27-2.072,3.87c-0.786-1.6-1.516-2.927-2.074-3.87
				c-20.385-31.596-58.027-49.979-100.541-48.676c-19.622,0.594-37.354,6.566-52.743,17.755c-9.61,0.552-23.114,0.621-32.758,0.621
				c-5.998,0-12.008-0.031-17.639-0.058c-4.985-0.026-9.677-0.05-13.804-0.05c-12.779,0-15.956,0.234-17.905,0.721
				c-4.645,1.16-7.725,5.279-7.846,10.489c-0.229,9.868,10.722,27.858,34.954,35.128c3.937,1.18,8.098,1.78,12.367,1.78
				c1.83,0,3.688-0.11,5.568-0.326c-1.242,2.897-2.401,5.864-3.474,8.896c-15.168,42.863-19.001,138.015,24.981,175.176
				c0.205,0.623,0.44,1.302,0.721,2.086c12.73,43.011,56.494,82.122,105.339,93.688c5.681,1.345,11.649,2.027,17.739,2.027
				c17.681,0,34.581-5.697,47.942-13.389c13.359,7.692,30.259,13.389,47.939,13.389c6.089,0,12.058-0.683,17.738-2.027
				c48.845-11.566,92.609-50.677,105.339-93.688c0.399-1.483,0.747-2.729,1.05-3.829c41.879-38.313,37.931-131.227,22.996-173.434
				c-1.071-3.031-2.23-5.998-3.475-8.896c1.883,0.216,3.739,0.326,5.568,0.326c4.271,0,8.432-0.6,12.367-1.78
				c24.234-7.271,35.184-25.26,34.954-35.128C542.828,100.883,539.748,96.764,535.103,95.604z M351.914,383.825h-0.003
				c-7.328,0-16.799-1.618-23.24-8.618c0.064-0.805,0.095-1.603,0.069-2.393c-0.459-14.227-9.866-23.784-23.407-23.784
				c-2.292,0-4.588,0.281-6.862,0.802c-2.275-0.521-4.571-0.802-6.863-0.802c-13.54,0-22.948,9.558-23.407,23.784
				c-0.024,0.79,0.006,1.587,0.071,2.39c-6.443,7.003-15.917,8.621-23.245,8.621h-0.003c-20.269-0.006-47.788-12.305-66.839-33.686
				c0.096-0.081,0.21-0.169,0.32-0.255c0.484,0.062,0.967,0.13,1.455,0.186c5.951,0.918,11.153,1.206,15.34,1.206
				c0.555,0,1.107-0.006,1.657-0.015c6.103,7.422,14.656,11.449,24.56,11.449c6.567,0,17.093-2.133,21.015-14.926
				c11.904-1.206,21.444-3.5,32.105-8.412c1.574,0.604,16.31,4.117,27.418-3.984c4.087-1.13,9.978,4.195,19.08,4.195
				c10.66,4.911,19.711,6.996,31.616,8.202c3.921,12.793,14.446,14.926,21.014,14.926c9.903,0,18.457-4.027,24.56-11.449
				c0.55,0.009,1.104,0.015,1.657,0.015c4.187,0,9.389-0.288,15.34-1.206c1.391-0.157,2.757-0.353,4.105-0.571
				c0.035-0.004,0.07-0.003,0.105-0.009C400.481,370.872,372.183,383.819,351.914,383.825z"/>
		</g>
		<g>
			<path fill="#FED208" d="M139.911,210.103c15.04-13.485,25.409-21.771,40.319-24.858c10.025-2.071,21.988,0.583,32.542,2.924
				c8,1.774,14.907,3.312,20.283,2.742c8.254-0.868,14.797-5.212,16.662-11.069c1.313-4.126,0.953-10.741-8.229-18.824
				c-3.823-3.363-8.395-6.172-13.407-8.459c7.228,0.012,14.373-1.38,21.239-5.025c8.868,12.316,30.415,22.618,37.343,19.542
				c1.538-0.684,3.981-0.772,5.568-2.408c0.15,0.118,14.947,11.664,23.961,24.099c9.264,15.087,14.641,32.815,14.641,51.819
				c0,8.852-1.181,17.418-3.354,25.582c-9.299,7.666-24.615,38.116-27.955,45.753c-0.183,0.417-0.389,0.947-0.601,1.556
				c-15.939,14.741-36.704,24.337-59.673,26.108c0.288-3.798,0.16-7.846,0.027-11.843c-0.163-4.898-0.331-9.961,0.308-14.124
				c0.526-3.424,1.405-7.095,2.337-10.984c3.471-14.5,7.405-30.936-6.46-40.178c-2.66-1.771-5.546-2.671-8.585-2.671
				c-12.461,0-23.784,15.023-29.626,26.443c-7.959-12.879-21.034-21.048-36.585-22.622c-7.876-0.8-15.734,0.221-22.211,2.621
				c-2.284-8.31-3.456-16.921-3.456-25.64C135,230.156,136.651,219.901,139.911,210.103"/>
		</g>
		<g>
			<path fill="#F6891F" d="M109.62,106.235c11.19,0,27.222-0.093,37.161-0.897c0.866-0.07,1.632-0.07,2.126-0.029
				c-0.732,1.197-2.528,3.295-5.401,5.687l-0.724,0.613c-19.53,16.652-34.229,20.149-43.121,20.149h-0.005
				c-3.176,0-6.248-0.441-9.142-1.306c-13.717-4.117-22.144-12.62-25.456-19.204c-1.235-2.459-1.485-4.074-1.485-4.833
				c1.866-0.191,6.72-0.285,14.467-0.285c4.123,0,8.811,0.023,13.8,0.048C97.512,106.206,103.57,106.235,109.62,106.235"/>
		</g>
		<g>
			<path fill="#FED208" d="M112.247,155.201c3.142-8.881,7.003-16.962,11.476-24.229c6.718-3.272,14.276-8.104,22.605-15.206
				l0.674-0.574c9.212-7.672,7.939-11.179,7.523-12.332c-0.334-0.921-0.925-1.643-1.741-2.185
				c12.486-7.996,26.819-12.468,42.478-12.942c38.91-1.178,73.011,15.378,91.241,44.288c4.981,7.908,6.704,15.093,4.974,20.784
				c-1.259,4.145-4.147,6.701-6.239,7.634c-3.542,1.574-26.078-6.246-32.625-18.152c-0.372-0.675-1.002-1.166-1.746-1.363
				c-0.747-0.194-1.538-0.078-2.191,0.324c-15.374,9.46-32.656,5.136-47.645,0.341c-1.484-0.471-3.06,0.341-3.533,1.821
				c-0.255,0.796-0.126,1.613,0.267,2.28c-9.908-0.259-19.847,1.25-28.605,4.709c-1.444,0.568-2.152,2.201-1.583,3.645
				c0.57,1.444,2.205,2.156,3.646,1.583c21.551-8.504,50.739-4.339,66.448,9.49c5.389,4.739,7.729,9.319,6.589,12.896
				c-1.169,3.671-5.949,6.56-11.896,7.186c-4.468,0.463-11.27-1.04-18.474-2.641c-11.105-2.465-23.694-5.26-34.898-2.938
				c-18.16,3.758-30.207,14.65-48.441,31.141l-2.223,2.009c-1.151,1.039-1.239,2.817-0.201,3.968
				c0.555,0.615,1.319,0.927,2.086,0.927c0.638,0,1.268-0.229,1.79-0.665c-1.802,7.655-2.726,15.512-2.726,23.463
				c0,9.537,1.325,18.957,3.911,28.029c-2.896,1.638-5.329,3.604-7.072,5.863c-0.95,1.227-0.722,2.992,0.505,3.939
				c1.227,0.953,2.996,0.727,3.941-0.503c4.857-6.284,17.223-9.946,29.439-8.714c8.897,0.9,25.106,5.163,34.292,23.414
				c-0.349,0.938-0.724,1.93-0.985,2.678c-4.758,13.629-3.542,26.41,0.097,38.018c0.359,1.957,1.052,4.292,2.092,6.725
				c-12.373,0.038-34.206-2.68-57.444-18.68C94.057,290.941,97.928,195.661,112.247,155.201"/>
		</g>
		<g>
			<path fill="#010101" d="M255.248,127.522c4.469,3.352,3.121,7.497-1.874,8.121c-4.998,0.625-5.388,0.956-9.996-2.499
				c-4.996-3.748-5.623-9.996,0-9.37C249,124.399,252.747,125.648,255.248,127.522"/>
		</g>
		<g>
			<path fill="#010101" d="M268.365,130.021c0,3.105,2.518,5.624,5.623,5.624c3.103,0,5.62-2.518,5.62-5.624
				c0-3.105-2.518-5.623-5.62-5.623C270.883,124.397,268.365,126.916,268.365,130.021"/>
		</g>
		<g>
			<path fill="#010101" d="M203.399,114.404c0,3.106,2.517,5.624,5.622,5.624c3.106,0,5.621-2.517,5.621-5.624
				c0-3.105-2.515-5.622-5.621-5.622C205.916,108.783,203.399,111.299,203.399,114.404"/>
		</g>
		<g>
			<path fill="#FED208" d="M455.37,210.103c-15.039-13.485-25.408-21.771-40.319-24.858c-10.025-2.071-21.988,0.583-32.541,2.924
				c-8,1.774-14.907,3.312-20.284,2.742c-8.254-0.868-14.797-5.212-16.661-11.069c-1.313-4.126-0.953-10.741,8.229-18.824
				c3.822-3.363,8.394-6.172,13.406-8.459c-7.228,0.012-14.373-1.38-21.239-5.025c-8.867,12.316-30.414,22.618-37.342,19.542
				c-1.539-0.684-3.982-0.772-5.569-2.408c-0.149,0.118-14.947,11.664-23.961,24.099c-9.263,15.087-14.641,32.815-14.641,51.819
				c0,8.852,1.181,17.418,3.354,25.582c9.299,7.666,24.615,38.116,27.955,45.753c0.183,0.417,0.389,0.947,0.601,1.556
				c15.939,14.741,36.704,24.337,59.673,26.108c-0.288-3.798-0.16-7.846-0.027-11.843c0.163-4.898,0.331-9.961-0.308-14.124
				c-0.526-3.424-1.404-7.095-2.337-10.984c-3.47-14.5-7.404-30.936,6.46-40.178c2.661-1.771,5.547-2.671,8.585-2.671
				c12.462,0,23.784,15.023,29.627,26.443c7.959-12.879,21.033-21.048,36.585-22.622c7.875-0.8,15.732,0.221,22.211,2.621
				c2.282-8.31,3.456-16.921,3.456-25.64C460.282,230.156,458.629,219.901,455.37,210.103"/>
		</g>
		<g>
			<path fill="#F6891F" d="M485.661,106.235c-11.19,0-27.221-0.093-37.16-0.897c-0.868-0.07-1.633-0.07-2.127-0.029
				c0.732,1.197,2.529,3.295,5.4,5.687l0.724,0.613c19.53,16.652,34.23,20.149,43.123,20.149h0.003c3.178,0,6.249-0.441,9.144-1.306
				c13.717-4.117,22.143-12.62,25.455-19.204c1.235-2.459,1.485-4.074,1.485-4.833c-1.865-0.191-6.719-0.285-14.468-0.285
				c-4.121,0-8.811,0.023-13.8,0.048C497.769,106.206,491.712,106.235,485.661,106.235"/>
		</g>
		<g>
			<path fill="#FED208" d="M482.934,155.321c-3.142-8.881-7.004-16.962-11.476-24.229c-6.719-3.272-14.276-8.104-22.607-15.206
				l-0.674-0.574c-9.21-7.672-7.939-11.179-7.521-12.332c0.332-0.921,0.924-1.643,1.741-2.185
				c-12.487-7.996-26.82-12.468-42.478-12.942c-38.911-1.178-73.012,15.378-91.241,44.288c-4.982,7.908-6.704,15.093-4.975,20.784
				c1.259,4.145,4.147,6.701,6.239,7.634c3.542,1.574,26.079-6.246,32.625-18.152c0.373-0.675,1.002-1.166,1.746-1.363
				c0.747-0.194,1.539-0.078,2.192,0.324c15.373,9.46,32.656,5.136,47.644,0.341c1.484-0.471,3.06,0.341,3.533,1.821
				c0.255,0.796,0.127,1.613-0.266,2.28c9.907-0.259,19.846,1.25,28.605,4.71c1.444,0.567,2.15,2.2,1.583,3.645
				c-0.57,1.444-2.206,2.156-3.647,1.583c-21.551-8.504-50.738-4.339-66.447,9.49c-5.39,4.739-7.729,9.319-6.59,12.896
				c1.169,3.671,5.95,6.56,11.896,7.186c4.469,0.463,11.27-1.04,18.474-2.641c11.105-2.465,23.694-5.26,34.898-2.938
				c18.161,3.758,30.208,14.65,48.44,31.141l2.225,2.009c1.15,1.039,1.238,2.817,0.2,3.968c-0.554,0.615-1.318,0.927-2.086,0.927
				c-0.639,0-1.269-0.229-1.789-0.665c1.801,7.655,2.725,15.512,2.725,23.463c0,9.537-1.324,18.957-3.91,28.029
				c2.895,1.639,5.328,3.604,7.072,5.863c0.95,1.227,0.721,2.992-0.506,3.939c-1.227,0.953-2.995,0.727-3.942-0.503
				c-4.856-6.283-17.221-9.946-29.438-8.713c-8.899,0.9-25.107,5.163-34.293,23.414c0.349,0.938,0.64,1.803,0.851,2.568
				c4.816,16.506,3.677,26.52,0.038,38.127c-0.359,1.957-1.052,4.292-2.092,6.725c12.373,0.038,34.207-2.68,57.444-18.68
				C501.122,291.062,497.251,195.782,482.934,155.321"/>
		</g>
		<g>
			<path fill="#010101" d="M340.033,127.522c-4.468,3.352-3.121,7.497,1.874,8.121c4.998,0.625,5.388,0.956,9.996-2.499
				c4.997-3.748,5.623-9.996,0-9.37C346.282,124.399,342.534,125.648,340.033,127.522"/>
		</g>
		<g>
			<path fill="#010101" d="M326.916,130.021c0,3.105-2.518,5.624-5.623,5.624c-3.102,0-5.62-2.518-5.62-5.624
				c0-3.105,2.519-5.623,5.62-5.623C324.398,124.397,326.916,126.916,326.916,130.021"/>
		</g>
		<g>
			<path fill="#010101" d="M391.882,114.404c0,3.106-2.517,5.624-5.622,5.624c-3.106,0-5.621-2.517-5.621-5.624
				c0-3.105,2.515-5.622,5.621-5.622C389.365,108.783,391.882,111.299,391.882,114.404"/>
		</g>
		<g>
			<path fill="#1E1D1D" d="M281.044,173.357c0,0,17.767-9.672,38.101,2.88c0,0,2.046,7.793-29.914-1.292
				C289.23,174.945,285.513,174.051,281.044,173.357z"/>
		</g>
		<g>
			<path fill="#9DB63B" d="M319.145,176.237c0,0,1.759,0,3.515,1.506c1.757,1.506,34.893,27.111,48.699,27.111
				c0,0,32.132,52.718-36.649,122.25c0,0-5.398,5.022-15.564,5.398c0,0-6.904-0.379-11.548-3.642c0,0-5.277-1.224-10.292,1.383
				c0,0-9.289,4.769-14.561,5.145c0,0-10.979-1.88-19.891-7.278c0,0-80.269-45.94-36.301-131.246c0,0,43.264-14.226,52.176-22.635
				C284.752,180.002,315.379,184.27,319.145,176.237z"/>
		</g>
		<g>
			<path fill="#BAD36A" d="M236.445,209.875c0,0,6.526,8.041,13.556,6.279c0,0-14.309,22.087,0,76.309
				C250.001,292.462,223.142,270.121,236.445,209.875z"/>
		</g>
		<g>
			<path fill="#BAD36A" d="M245.021,207.803c0,0-8.66-0.376-12.274-7.531c0,0-35.065,39.472-1.668,91.312
				c15.694,24.361,35.004,32.164,48.937,37.182c0,0-36.498,4.113-60.981-52.066c0,0-16.562-37.267,7.52-79.836l7.441-2.544
				C233.994,194.32,238.618,203.79,245.021,207.803z"/>
		</g>
		<g>
			<path fill="#637733" d="M344.248,212.635c3.345,0.021,18.7-4.079,27.11-7.781c0,0,32.132,52.718-36.649,122.25
				c0,0-5.398,5.022-15.564,5.398c0,0-6.904-0.379-11.548-3.642c0,0-5.396-1.003-10.292,1.383c0,0-9.289,4.769-14.561,5.145
				c0,0-25.821-4.021-44.342-27.461c11.868,8.306,30.591,22.378,41.612,20.839c-4.666-2.883-7.907-4.612-11.014-10.636
				c12.613,7.591,18.512,5.456,19.015,3.954c-3.389-7.907-16.692-23.974-13.179-65.33c3.838,25.542,15.438,64.326,30.375,64.952
				c6.544,2.062,18.952-9.915,19.894-20.144c1.391,4.104,0.44,9.351,0.188,11.673C368.031,275.393,343.871,212.312,344.248,212.635z
				"/>
		</g>
		<g>
			<path fill="#F6C96C" d="M233.919,194.32c0,0,33.886-10.072,44.489-15.699c0,0,15.814,8.409,43.806,5.397l26.984,24.35
				c0,0-5.705-0.941-14.365-0.565c0,0-20.334,5.271-27.3,5.648c0,0-29.471,2.636-32.671-2.448c0,0-17.351,2.069-22.781-1.129
				C252.081,209.875,240.879,210.627,233.919,194.32z"/>
		</g>
		<g>
			<path fill="#A47B2C" d="M233.919,194.32c0,0,33.977-11.274,44.803-20.091c0,0,13.594,8.277,30.329,6.287
				c9.396-1.118,9.665-3.753,10.094-4.279c0,0,1.564,0.09,3.955,1.864c9.788,7.262,34.885,25.436,47.89,26.913
				c0,0-19.587,3.355-22.35,3.355l-26.609-23.534c0,0-23.602,3.577-43.309-5.334C274.534,179.752,248.416,195.189,233.919,194.32z"
				/>
		</g>
		<g>
			<path fill="#A47B2C" d="M245.021,207.803c0,0,19.462,5.083,27.369,2.259c0,0,7.53-17.886,9.037-21.086l-4.519,20.145
				c0,0,10.354,8.096,34.83,3.201c0,0,14.497-3.389,22.969-4.142c0,0,16.564,0.43,30.119-4.717l6.532,1.391
				c0,0-15.963,9.68-37.027,7.656c0,0-9.79,0.001-28.617,3.264c0,0-17.948,1.13-24.601-0.503c0,0-6.088-2.596-6.401-2.636
				C274.712,212.635,254.058,215.021,245.021,207.803z"/>
		</g>
		<g>
			<path fill="#FED208" d="M199.767,300.896c0.031-0.118,0.056-0.232,0.087-0.353c0.27-1.067,0.564-2.165,0.897-3.309
				c2.782-10.022,16.018-29.956,26.127-29.956c1.553,0,3,0.465,4.427,1.415c8.853,5.901,7.066,16.58,3.327,32.197
				c-0.925,3.863-1.88,7.857-2.456,11.588c-0.744,4.851-0.564,10.272-0.392,15.512c0.272,8.137,0.552,16.553-2.956,20.18
				c-1.535,1.585-3.927,2.359-7.312,2.359c-0.981,0-1.905-0.074-2.796-0.186c-0.271-0.035-0.527-0.085-0.792-0.129
				c-0.619-0.103-1.224-0.224-1.8-0.374c-0.259-0.067-0.515-0.135-0.764-0.212c-0.604-0.185-1.181-0.397-1.737-0.629
				c-0.161-0.071-0.334-0.126-0.491-0.2c-0.715-0.326-1.393-0.685-2.029-1.077c-0.062-0.038-0.118-0.085-0.18-0.124
				c-0.563-0.359-1.096-0.744-1.601-1.144c-0.148-0.118-0.29-0.241-0.433-0.362c-0.414-0.35-0.811-0.715-1.184-1.088
				c-0.127-0.127-0.256-0.25-0.378-0.377c-0.421-0.444-0.818-0.897-1.188-1.359c-0.043-0.053-0.092-0.103-0.133-0.156
				c-0.414-0.527-0.796-1.062-1.15-1.598c-0.082-0.126-0.155-0.253-0.235-0.376c-0.251-0.397-0.491-0.794-0.713-1.188
				c-0.104-0.188-0.206-0.376-0.306-0.562c-0.173-0.326-0.334-0.647-0.488-0.968c-0.098-0.2-0.197-0.403-0.287-0.603
				c-0.128-0.279-0.24-0.547-0.354-0.818c-0.232-0.564-0.446-1.109-0.622-1.609c-0.01-0.029-0.021-0.059-0.03-0.085
				c-0.125-0.359-0.237-0.7-0.334-1.018c-0.425-1.386-0.618-2.354-0.648-2.519c-0.027-0.162-0.068-0.329-0.115-0.485
				c-2.81-8.89-3.938-16.371-1.65-27.378C199.281,302.929,199.513,301.926,199.767,300.896"/>
		</g>
		<g>
			<path fill="#FED208" d="M395.515,300.896c-0.03-0.118-0.056-0.232-0.087-0.353c-0.269-1.067-0.564-2.165-0.896-3.309
				c-2.783-10.022-16.019-29.956-26.128-29.956c-1.553,0-3,0.465-4.427,1.415c-8.852,5.901-7.066,16.58-3.327,32.197
				c0.925,3.863,1.88,7.857,2.456,11.588c0.744,4.851,0.565,10.272,0.392,15.512c-0.272,8.137-0.552,16.553,2.956,20.18
				c1.536,1.585,3.928,2.359,7.312,2.359c0.981,0,1.905-0.074,2.797-0.186c0.271-0.035,0.526-0.085,0.791-0.129
				c0.619-0.103,1.224-0.224,1.8-0.374c0.26-0.067,0.516-0.135,0.764-0.212c0.604-0.185,1.182-0.397,1.737-0.629
				c0.162-0.071,0.334-0.126,0.491-0.2c0.715-0.326,1.393-0.685,2.03-1.077c0.062-0.038,0.117-0.085,0.179-0.124
				c0.563-0.359,1.096-0.744,1.601-1.144c0.148-0.118,0.29-0.241,0.433-0.362c0.415-0.35,0.811-0.715,1.184-1.088
				c0.127-0.127,0.256-0.25,0.378-0.377c0.421-0.444,0.818-0.897,1.188-1.359c0.043-0.053,0.092-0.103,0.133-0.156
				c0.415-0.527,0.796-1.062,1.15-1.598c0.082-0.126,0.155-0.253,0.235-0.376c0.251-0.397,0.491-0.794,0.713-1.188
				c0.104-0.188,0.206-0.376,0.307-0.562c0.172-0.326,0.333-0.647,0.488-0.968c0.097-0.2,0.196-0.403,0.286-0.603
				c0.128-0.279,0.24-0.547,0.354-0.818c0.232-0.564,0.447-1.109,0.622-1.609c0.01-0.029,0.021-0.059,0.03-0.085
				c0.126-0.359,0.237-0.7,0.334-1.018c0.426-1.386,0.618-2.354,0.649-2.519c0.026-0.162,0.067-0.329,0.114-0.485
				c2.81-8.89,3.939-16.371,1.65-27.378C396,302.929,395.77,301.926,395.515,300.896"/>
		</g>
		<g>
			<path fill="#010101" d="M61.542,101.058c-2.185,0.547-3.527,2.477-3.589,5.166c-0.158,6.819,9.019,23.034,30.948,29.611
				c3.415,1.025,7.032,1.544,10.757,1.544h0.003c4.148,0,9.425-0.681,15.688-2.783c-3.124,5.857-5.92,12.123-8.3,18.849
				c-6.735,19.032-12.205,54.006-9.244,89.244c2.322,27.636,10.532,64.258,36.318,82.682c9.745,8.166,29.701,14.944,32.039,15.788
				c11.765,3.589,21.987,4.498,29.236,4.498c1.15,0,2.204-0.026,3.2-0.062c4.365,6.558,11.651,12.429,22.916,12.429
				c5.448,0,9.72-1.562,12.703-4.642c5.716-5.913,5.383-15.944,5.06-25.643c-0.162-4.898-0.331-9.961,0.309-14.124
				c0.526-3.421,1.406-7.095,2.336-10.984c3.472-14.5,7.404-30.936-6.46-40.175c-2.658-1.774-5.547-2.674-8.584-2.674
				c-12.46,0-23.854,14.91-29.697,26.33c-7.959-12.879-20.963-20.935-36.514-22.509c-7.877-0.8-15.732,0.221-22.211,2.621
				c-2.284-8.31-3.456-16.921-3.456-25.64c0-10.428,1.651-20.683,4.911-30.482c15.041-13.485,25.409-21.771,40.318-24.856
				c10.026-2.071,21.989,0.581,32.544,2.922c8,1.774,14.904,3.312,20.28,2.743c8.256-0.869,14.799-5.214,16.664-11.071
				c1.314-4.126,0.953-10.741-8.231-18.824c-3.821-3.363-8.393-6.172-13.405-8.459c7.229,0.012,14.373-1.38,21.239-5.025
				c8.869,12.316,31.377,21.238,38.302,18.163c2.898-1.29,6.457-4.267,8.521-8.95c1.37-4.073,1.057-17.315-4.991-27.911
				c-19.349-30.419-55.182-47.851-95.957-46.601c-19.124,0.58-36.379,6.71-50.913,17.648c-9.809,0.653-24.313,0.732-34.662,0.732
				c-6.04,0-12.088-0.03-17.754-0.059c-4.996-0.025-9.695-0.047-13.826-0.047C66.137,100.508,62.902,100.718,61.542,101.058
				 M200.728,331.284c-3.342-10.578-4.326-19.139,0.023-34.053c2.784-10.02,16.016-29.953,26.127-29.953
				c1.553,0,3,0.465,4.427,1.415c8.853,5.901,7.066,16.58,3.327,32.194c-0.924,3.866-1.88,7.86-2.454,11.591
				c-0.746,4.851-0.565,10.272-0.392,15.512c0.272,8.137,0.552,16.553-2.958,20.18c-1.535,1.585-3.927,2.356-7.313,2.356
				c-17.137,0-20.533-17.992-20.67-18.757C200.816,331.608,200.777,331.44,200.728,331.284 M112.349,155.321
				c3.143-8.881,7.001-16.962,11.476-24.227c6.719-3.276,14.276-8.106,22.605-15.208l0.676-0.574
				c9.209-7.672,7.939-11.179,7.523-12.33c-0.336-0.924-0.927-1.645-1.743-2.186c12.486-7.997,26.819-12.468,42.479-12.942
				c38.909-1.178,73.011,15.379,91.239,44.288c4.982,7.908,6.705,15.094,4.975,20.784c-1.259,4.145-4.147,6.701-6.239,7.634
				c-3.542,1.574-26.077-6.246-32.627-18.152c-0.37-0.672-1-1.166-1.744-1.363c-0.747-0.194-1.539-0.078-2.191,0.324
				c-15.374,9.46-32.656,5.136-47.644,0.341c-1.485-0.471-3.061,0.341-3.536,1.821c-0.253,0.794-0.126,1.615,0.267,2.28
				c-9.904-0.259-19.845,1.25-28.604,4.71c-1.444,0.567-2.153,2.2-1.585,3.645c0.571,1.444,2.207,2.156,3.649,1.583
				c21.55-8.504,50.736-4.339,66.447,9.49c5.389,4.742,7.73,9.319,6.589,12.896c-1.171,3.673-5.951,6.562-11.895,7.186
				c-4.47,0.466-11.271-1.04-18.476-2.641c-11.105-2.465-23.694-5.26-34.898-2.938c-18.159,3.758-30.207,14.653-48.442,31.141
				l-2.222,2.008c-1.15,1.042-1.241,2.818-0.201,3.97c0.555,0.615,1.319,0.927,2.086,0.927c0.637,0,1.266-0.229,1.79-0.665
				c-1.801,7.655-2.726,15.512-2.726,23.463c0,9.537,1.323,18.957,3.909,28.029c-2.896,1.639-5.327,3.607-7.07,5.863
				c-0.95,1.227-0.724,2.992,0.505,3.939c1.225,0.953,2.996,0.727,3.941-0.503c4.857-6.283,17.223-9.946,29.439-8.716
				c8.896,0.903,25.107,5.166,34.292,23.417c-0.349,0.938-0.64,1.803-0.851,2.565c-4.816,16.509-3.677,26.523-0.038,38.131
				c0.359,1.957,1.052,4.292,2.091,6.725c-12.37,0.038-34.207-2.683-57.442-18.68C94.159,291.062,98.031,195.782,112.349,155.321
				 M65.059,111.248c-1.234-2.459-1.485-4.074-1.485-4.833c1.866-0.191,6.72-0.285,14.467-0.285c4.123,0,8.812,0.023,13.799,0.048
				c5.673,0.028,11.732,0.059,17.781,0.059c11.191,0,27.22-0.093,37.161-0.899c0.865-0.07,1.63-0.07,2.124-0.029
				c-0.73,1.197-2.528,3.295-5.399,5.687l-0.723,0.615c-19.529,16.65-34.231,20.148-43.122,20.148h-0.003
				c-3.176,0-6.252-0.441-9.142-1.306C76.796,126.335,68.369,117.832,65.059,111.248"/>
		</g>
		<g>
			<path fill="#010101" d="M533.74,101.058c-1.361-0.339-4.595-0.55-16.5-0.55c-4.13,0-8.828,0.022-13.826,0.047
				c-5.666,0.029-11.714,0.059-17.753,0.059c-10.35,0-24.853-0.08-34.663-0.732c-14.532-10.938-31.787-17.068-50.912-17.648
				c-40.775-1.25-76.608,16.181-95.956,46.601c-6.049,10.596-6.362,23.838-4.992,27.911c2.064,4.683,5.623,7.66,8.522,8.95
				c6.925,3.076,29.432-5.847,38.301-18.163c6.866,3.645,14.01,5.037,21.239,5.025c-5.013,2.287-9.584,5.096-13.405,8.459
				c-9.184,8.083-9.546,14.698-8.23,18.824c1.864,5.857,8.407,10.202,16.663,11.071c5.376,0.569,12.28-0.969,20.28-2.743
				c10.555-2.341,22.518-4.993,32.545-2.922c14.909,3.086,25.275,11.371,40.317,24.856c3.259,9.799,4.912,20.054,4.912,30.482
				c0,8.719-1.174,17.33-3.456,25.64c-6.479-2.4-14.336-3.421-22.211-2.621c-15.552,1.574-28.442,9.448-36.401,22.327
				c-5.844-11.42-17.351-26.148-29.811-26.148c-3.037,0-5.926,0.9-8.584,2.674c-13.864,9.24-9.931,25.675-6.46,40.175
				c0.93,3.889,1.81,7.563,2.336,10.984c0.64,4.163,0.471,9.226,0.309,14.124c-0.323,9.699-0.655,19.73,5.061,25.643
				c2.982,3.08,7.254,4.642,12.702,4.642c11.266,0,18.551-5.872,22.916-12.429c0.996,0.036,2.051,0.062,3.2,0.062
				c7.249,0,17.472-0.909,29.237-4.498c2.336-0.844,22.293-7.622,32.039-15.788c25.784-18.424,33.994-55.046,36.318-82.682
				c2.96-35.238-2.509-70.212-9.246-89.244c-2.38-6.726-5.174-12.992-8.298-18.849c6.263,2.102,11.537,2.783,15.688,2.783h0.003
				c3.725,0,7.34-0.519,10.756-1.544c21.931-6.578,31.105-22.792,30.949-29.611C537.268,103.535,535.924,101.605,533.74,101.058
				 M394.555,331.284c-0.051,0.156-0.09,0.324-0.118,0.485c-0.137,0.765-3.533,18.757-20.67,18.757
				c-3.386,0-5.777-0.771-7.313-2.356c-3.51-3.627-3.229-12.043-2.958-20.18c0.174-5.239,0.354-10.661-0.391-15.512
				c-0.575-3.73-1.531-7.725-2.455-11.591c-3.739-15.615-5.524-26.293,3.327-32.194c1.427-0.95,2.874-1.415,4.427-1.415
				c10.111,0,23.343,19.934,26.128,29.953C398.88,312.146,397.896,320.706,394.555,331.284 M482.934,155.321
				c14.317,40.46,18.188,135.741-25.805,166.032c-23.237,15.997-45.072,18.718-57.442,18.68c1.038-2.433,1.73-4.769,2.09-6.725
				c3.639-11.608,4.983-21.604,0.165-38.113c-0.209-0.762-0.554-1.742-0.902-2.68c9.185-18.25,25.246-22.416,34.142-23.319
				c12.217-1.229,24.581,2.433,29.438,8.716c0.947,1.23,2.719,1.457,3.942,0.503c1.229-0.947,1.456-2.712,0.506-3.939
				c-1.744-2.256-4.175-4.225-7.072-5.863c2.586-9.072,3.91-18.492,3.91-28.029c0-7.951-0.924-15.809-2.725-23.463
				c0.523,0.436,1.153,0.665,1.789,0.665c0.768,0,1.532-0.312,2.086-0.927c1.041-1.151,0.95-2.928-0.2-3.97l-2.222-2.008
				c-18.235-16.488-30.285-27.383-48.443-31.141c-11.204-2.321-23.793,0.474-34.898,2.938c-7.204,1.601-14.005,3.106-18.476,2.641
				c-5.943-0.624-10.724-3.513-11.895-7.186c-1.142-3.577,1.2-8.154,6.59-12.896c15.71-13.829,44.896-17.995,66.447-9.49
				c1.441,0.574,3.077-0.138,3.647-1.583s-0.139-3.077-1.583-3.645c-8.76-3.46-18.699-4.969-28.604-4.71
				c0.393-0.665,0.52-1.485,0.267-2.28c-0.476-1.48-2.051-2.292-3.536-1.821c-14.986,4.795-32.27,9.119-47.643-0.341
				c-0.653-0.402-1.445-0.518-2.192-0.324c-0.744,0.197-1.373,0.691-1.744,1.363c-6.55,11.907-29.085,19.726-32.627,18.152
				c-2.092-0.933-4.98-3.489-6.239-7.634c-1.729-5.689-0.008-12.876,4.975-20.784c18.229-28.908,52.33-45.466,91.239-44.288
				c15.659,0.474,29.992,4.945,42.479,12.942c-0.817,0.542-1.409,1.262-1.744,2.186c-0.415,1.151-1.686,4.658,7.524,12.33
				l0.674,0.574c8.331,7.101,15.889,11.932,22.607,15.208C475.933,138.359,479.789,146.44,482.934,155.321 M530.223,111.248
				c-3.31,6.583-11.738,15.087-25.458,19.204c-2.889,0.865-5.966,1.306-9.141,1.306h-0.003c-8.893,0-23.593-3.498-43.123-20.148
				l-0.724-0.615c-2.871-2.392-4.668-4.489-5.397-5.687c0.494-0.041,1.259-0.041,2.124,0.029c9.939,0.806,25.97,0.899,37.16,0.899
				c6.048,0,12.107-0.031,17.782-0.059c4.986-0.025,9.676-0.048,13.797-0.048c7.749,0,12.603,0.094,14.468,0.285
				C531.708,107.174,531.458,108.789,530.223,111.248"/>
		</g>
		<g>
			<path fill="#FFFFFF" d="M378.628,243.559c0,0,92.7,11.991,112.572,4.436c-4.451,34.307-14.665,88.26-91.689,92.455
				c12.683-31.545,1.574-63.419-23.927-79.063C377.928,250.672,378.628,243.559,378.628,243.559z"/>
		</g>
		<g>
			<path fill="#FFFFFF" d="M233.985,194.07c0,0-24.964,0-64.646-5.344c-16.599-2.236-44.539-12.03-56.99-33.405
				c-21.024,68.306-19.902,184.262,83.248,184.712c-4.479-11.673-5.812-22.175-5.004-31.537
				c1.727-19.981,13.219-34.771,24.746-44.656C206.915,228.394,233.985,194.07,233.985,194.07z"/>
		</g>
		<g>
			<path fill="#FCB415" d="M164.443,200.033c32.358,4.357,54.924,5.161,62.155,5.31c4-7.112,7.387-11.416,7.387-11.416
				s-24.964,0-64.646-5.344c-16.599-2.236-44.539-12.03-56.99-33.405c-1.322,4.296-2.558,8.784-3.685,13.417
				C121.639,188.607,148.362,197.866,164.443,200.033z"/>
		</g>
		<g>
			<g>
				<path fill="#166734" d="M167.857,192.312c34.666,4.668,58.097,5.258,63.468,5.333c1.612-2.399,2.66-3.73,2.66-3.73
					s-24.964,0-64.646-5.344c-16.599-2.236-44.539-12.03-56.99-33.405c-0.419,1.362-0.813,2.774-1.214,4.174
					C123.711,180.41,151.372,190.091,167.857,192.312z"/>
			</g>
			<g>
				<path fill="#166734" d="M164.443,196.011c-15.771-2.125-41.75-11.099-54.985-30.323c-0.263,1.025-0.541,2.03-0.794,3.07
					c12.975,20.011,39.698,29.27,55.779,31.437c32.358,4.357,54.924,5.162,62.155,5.31c4-7.112,2.547-4.31,2.547-4.31
					S196.802,200.368,164.443,196.011z"/>
			</g>
		</g>
		<g>
			<path fill="#FCB415" d="M193.914,293.562c-3.345-13.265-3.376-27.116-1.991-36.523c5.826-39.616,12.722-63.607,12.722-63.607
				s-5.478,3.614-13.418,5.495c-1.854,6.989-6.91,27.351-11.661,59.652c-2.11,14.362-0.599,39.308,10.838,57.117
				C190.351,314.042,190.409,302.068,193.914,293.562z"/>
		</g>
		<g>
			<path fill="#166734" d="M190.55,310.189c-7.935-16.786-8.974-37.873-7.118-50.498c4.75-32.303,11.805-60.429,11.805-60.429
				l-4.356-0.425c0,0-6.716,27.395-11.469,59.7c-2.122,14.432-0.61,39.325,10.992,57.16
				C190.356,314.091,190.525,310.501,190.55,310.189z"/>
		</g>
		<g>
			<path fill="#166734" d="M193.914,293.562c-3.409-13.345-3.373-27.052-1.981-36.522c5.828-39.613,12.724-63.606,12.724-63.606
				s-1.568,0.638-4.32,1.526c-1.41,5.184-7.316,27.864-12.407,62.471c-1.6,10.895-1.186,27.636,3.991,42.743
				C192.522,297.941,193.045,295.573,193.914,293.562z"/>
		</g>
		<g>
			<path fill="#FFFFFF" d="M240.216,310.133c0,0,10.44,13.494,30.391,21.747c-10.788,4.267-16.971,6.338-31.355,7.703
				c0,0,0.341-3.142,0.107-9.297C239.036,321.767,238.7,318.073,240.216,310.133z"/>
		</g>
		<g>
			<path fill="#FFFFFF" d="M353.891,304.859c-4.769,6.201-8.487,10.578-12.071,14.728c-4.256,4.582-7.759,9.877-17.229,12.293
				c10.79,4.267,16.971,6.338,31.356,7.703c0,0-0.34-3.142-0.106-9.297C356.163,321.767,357.029,317.445,353.891,304.859z"/>
		</g>
		<g>
			<path fill="#D3AE35" d="M473.382,254.221c-36.148,0-69.296-3.532-95.048-7.85c-0.174,1.324-0.447,3.215-0.833,5.532
				c25.133,3.926,56.721,7.196,91.004,7.196c7.257,0,14.367-1.039,21.345-1.24c0.259-1.618,0.494-3.209,0.715-4.77
				C484.92,253.221,479.204,254.221,473.382,254.221z"/>
		</g>
		<g>
			<path fill="#FFFFFF" d="M424.717,188.195c0,0-0.317,3.09,0.844,9.321c0.815,4.37,3.58,9.983,4.646,15.815
				c1.165,6.395,0.377,15.852,1.506,22.341c0.968,5.581,1.621,12.11,2.321,16.559c0.791,5.023,2.177,12.363,2.321,14.442
				c0,0-11.152-0.559-21.463-4.015c-5.031-1.688-11.831-2.58-14.309-2.127c0,0-10.592-0.858-13.557-2.364
				c0.002,0,0.544-4.242,1.759-17.601c0.812-8.952-0.718-24.237,1.805-38.001c1.961-10.697,0.848-14.509,0.973-16.313
				C396.284,185.311,411.252,182.047,424.717,188.195z"/>
		</g>
		<g>
			<path fill="#D3AE35" d="M429.197,266.051l-4.419-0.944c0.05-0.251,0.092-0.754,0.029-1.012c-0.433-1.807-0.588-4.866-0.782-8.737
				c-0.18-3.524-0.383-7.518-0.836-11.547c-0.358-3.2-0.62-6.525-0.896-10.044c-0.771-9.854-1.572-20.042-4.619-28.114
				c-3.823-10.124-1.777-20.633-1.353-21.772l4.233,1.584l-2.116-0.792l2.127,0.762c-0.343,1.07-1.88,10.108,1.335,18.622
				c3.275,8.674,4.099,19.188,4.899,29.356c0.271,3.481,0.529,6.77,0.879,9.894c0.468,4.167,0.677,8.233,0.859,11.822
				c0.177,3.495,0.329,6.515,0.665,7.917C429.523,264.383,429.253,265.784,429.197,266.051z"/>
		</g>
		<g>
			<path fill="#D3AE35" d="M393.932,260.218c-0.018-0.288-0.448-7.195-0.312-18.295c0.029-2.306-0.052-4.991-0.139-7.835
				c-0.153-5.077-0.328-10.831,0.122-15.69c0.255-2.761,0.665-5.527,1.061-8.202c0.549-3.702,1.066-7.198,1.139-10.345
				c0.151-6.581,0.262-12.631-0.023-14.35l4.456-0.743c0.324,1.94,0.286,6.446,0.086,15.196c-0.08,3.428-0.618,7.059-1.188,10.903
				c-0.387,2.615-0.788,5.319-1.032,7.956c-0.422,4.585-0.253,10.192-0.103,15.139c0.086,2.893,0.169,5.625,0.14,8.027
				c-0.133,10.912,0.3,17.884,0.304,17.955L393.932,260.218z"/>
		</g>
		<g>
			<path fill="#D3AE35" d="M434.91,264.627c-1.683,0-4.448-0.465-7.648-2.403c-1.024-0.555-6.094-1.453-9.445-1.547
				c-3.675-0.1-6.505-1.172-8.999-2.118c-2.295-0.869-4.461-1.691-7.278-1.811c-2.415-0.102-4.44-0.372-6.067-0.59
				c-1.436-0.193-2.677-0.356-3.386-0.291c-2.378,0.229-4.507,0.006-4.595-0.003l0.642-5.99c0.018,0,1.623,0.165,3.375-0.003
				c1.396-0.135,2.882,0.063,4.762,0.315c1.585,0.212,3.383,0.452,5.525,0.542c3.788,0.161,6.64,1.242,9.156,2.196
				c2.347,0.888,4.373,1.656,7.031,1.729c2.598,0.072,9.853,0.871,12.403,2.417c2.776,1.684,4.659,1.534,4.677,1.533
				c-0.193,0.016-0.312,0.06-0.364,0.075l1.65,5.795C436.062,264.555,435.568,264.627,434.91,264.627z"/>
		</g>
		<g>
			<path fill="#D3AE35" d="M434.195,257.405c-1.177,0-3.489-0.288-6.437-2.075c-1.406-0.852-7.137-1.778-10.553-1.873
				c-3.675-0.1-6.325-1.11-8.889-2.087c-2.319-0.884-4.512-1.72-7.356-1.84c-2.312-0.098-4.281-0.362-5.864-0.573
				c-1.64-0.219-2.936-0.395-3.901-0.299c-2.175,0.211-3.155-0.022-3.263-0.05l0.369-1.46c0.009,0.002,0.853,0.193,2.749,0.011
				c1.139-0.11,2.509,0.074,4.246,0.306c1.633,0.217,3.484,0.464,5.729,0.56c3.087,0.132,5.496,1.05,7.828,1.938
				c2.444,0.933,4.974,1.895,8.393,1.989c3.311,0.092,9.511,1.01,11.291,2.09c3.595,2.18,6.113,1.846,6.14,1.84l0.376,1.459
				C435.045,257.342,434.742,257.405,434.195,257.405z"/>
		</g>
		<g>
			<circle fill="#ED2224" cx="248.676" cy="111.466" r="3.942"/>
		</g>
		<g>
			<path fill="#010101" d="M166.263,63.645c5.517-0.635,13.624-3.989,21.821-4.104c8.196-0.115,11.953,6.173,9.88,13.108
				c-2.029,6.787-10.539,6.51-22.031,8.433c-11.492,1.924-16.401,9.38-22.416,9.46c-12.022,0.156-20.675-18.57-7.004-23.643
				C154.808,63.82,155.547,64.88,166.263,63.645z"/>
		</g>
		<g>
			<path fill="#D3AE35" d="M196.669,75.25c0,0-0.111,0.194-0.323,0.558c-0.215,0.357-0.517,0.907-0.994,1.543
				c-0.896,1.312-2.606,2.981-5.016,4.352c-1.204,0.662-2.53,1.359-3.98,1.928c-1.444,0.597-2.975,1.194-4.586,1.697
				c-1.608,0.528-3.274,1.025-4.978,1.499c-1.706,0.455-3.445,0.89-5.186,1.308c-1.738,0.436-3.502,0.768-5.246,1.106
				c-1.738,0.34-3.472,0.587-5.154,0.786c-1.683,0.209-3.324,0.335-4.889,0.372c-1.562,0.057-3.051,0.023-4.425-0.124
				c-2.738-0.235-5.057-0.978-6.373-2c-0.666-0.497-1.041-1.047-1.231-1.428c-0.197-0.382-0.256-0.599-0.256-0.599
				s0.118,0.197,0.395,0.501c0.268,0.311,0.744,0.684,1.415,0.999c1.354,0.631,3.51,0.872,6.103,0.756
				c2.596-0.115,5.626-0.566,8.863-1.138c1.619-0.296,3.284-0.655,4.985-0.995c1.694-0.346,3.412-0.766,5.139-1.151
				c1.731-0.381,3.457-0.778,5.146-1.193c1.691-0.402,3.365-0.772,4.956-1.205c1.594-0.426,3.146-0.8,4.575-1.257
				c1.438-0.438,2.771-0.895,3.982-1.373c1.18-0.521,2.271-1.001,3.148-1.577c0.876-0.568,1.622-1.121,2.181-1.652
				C196.058,75.924,196.669,75.25,196.669,75.25z"/>
		</g>
		<g>
			<path fill="#D3AE35" d="M197.302,74.239c0,0-0.125,0.183-0.362,0.524c-0.238,0.334-0.591,0.852-1.159,1.394
				c-0.55,0.561-1.314,1.164-2.281,1.69c-0.957,0.55-2.099,1.035-3.369,1.463c-1.266,0.447-2.653,0.852-4.122,1.271
				c-1.471,0.41-3.021,0.843-4.635,1.231c-3.223,0.811-6.67,1.604-10.116,2.403c-3.443,0.767-6.858,1.65-10.095,2.405
				c-3.229,0.777-6.286,1.39-8.948,1.736c-2.649,0.357-4.989,0.266-6.467-0.393c-0.744-0.315-1.194-0.8-1.415-1.152
				c-0.229-0.353-0.3-0.565-0.3-0.565s0.101,0.203,0.366,0.513c0.258,0.318,0.743,0.694,1.456,0.928
				c1.438,0.508,3.655,0.296,6.227-0.176c2.586-0.468,5.551-1.337,8.752-2.185c3.194-0.876,6.629-1.784,10.09-2.575
				c3.457-0.756,6.913-1.512,10.152-2.221c3.238-0.699,6.272-1.299,8.803-2.018c1.261-0.366,2.411-0.718,3.373-1.157
				c0.974-0.418,1.753-0.921,2.336-1.414c0.594-0.481,1.013-0.918,1.291-1.229C197.154,74.404,197.302,74.239,197.302,74.239z"/>
		</g>
		<g>
			<path fill="#D3AE35" d="M504.997,215.968c-7.449,2.474-15.291,3.729-23.319,3.729c-15.788,0-32.203-4.81-47.468-13.909
				c-13.777-8.209-25.521-19.278-33.072-31.166c-2.212-3.48-3.52-8.75-4.786-13.848c-1.697-6.84-3.174-12.785-6.491-13.453
				c-0.271,0.067-0.545,0.143-0.828,0.231l-0.059,0.067l0.392,0.018c3.377,0.156,4.952,6.506,6.622,13.226
				c1.273,5.127,2.588,10.43,4.833,13.961c7.581,11.937,19.371,23.047,33.195,31.287c15.326,9.134,31.806,13.961,47.662,13.961
				c8.113,0,15.841-1.289,23.366-3.804L504.997,215.968z"/>
		</g>
		<g>
			<path fill="#D3AE35" d="M436.628,266.773c-0.091-1.322-0.677-4.732-1.298-8.341c-0.361-2.098-0.735-4.267-1.026-6.117
				c-0.291-1.852-0.573-4.074-0.877-6.426c-0.411-3.224-0.879-6.878-1.444-10.136c-0.556-3.199-0.646-7.196-0.732-11.06
				c-0.091-3.952-0.182-8.038-0.773-11.283c-0.576-3.158-1.624-6.182-2.639-9.107c-0.842-2.421-1.633-4.707-2.006-6.707
				c-1.142-6.125-0.845-9.237-0.842-9.268l0.009-0.085l-0.026-0.026l-0.365,0.182c-0.041,0.59-0.185,3.696,0.854,9.265
				c0.38,2.028,1.177,4.329,2.021,6.763c1.009,2.911,2.053,5.922,2.624,9.052c0.585,3.215,0.676,7.287,0.768,11.224
				c0.085,3.879,0.176,7.888,0.738,11.115c0.564,3.25,1.029,6.9,1.441,10.12c0.303,2.355,0.588,4.579,0.88,6.437
				c0.291,1.854,0.664,4.023,1.026,6.122c0.585,3.418,1.145,6.655,1.276,8.091c-1.6-0.102-11.811-0.848-21.198-3.994
				c-4.413-1.479-9.734-2.255-12.709-2.255c-0.675,0-1.235,0.04-1.668,0.116c-0.562-0.047-10.395-0.884-13.358-2.29
				c0.08-0.412,0.183-1.38,0.421-3.655c0.264-2.489,0.707-6.906,1.336-13.812c0.297-3.272,0.282-7.294,0.265-11.949
				c-0.029-8.112-0.062-17.305,1.538-26.036c1.512-8.264,1.262-12.635,1.127-14.984c-0.035-0.61-0.062-1.099-0.049-1.483
				c-0.11-0.051-0.242,0.071-0.378,0.006c-0.029,0.427,0.009,0.771,0.05,1.499c0.134,2.333,0.386,6.675-1.12,14.894
				c-1.606,8.765-1.574,17.977-1.545,26.105c0.018,4.646,0.032,8.659-0.265,11.913c-1.083,11.917-1.627,16.547-1.735,17.43h-0.621
				l0.702,0.356c2.963,1.506,13.191,2.349,13.626,2.384l0.024,0.001l0.023-0.004c0.415-0.076,0.962-0.115,1.627-0.115
				c2.873,0,8.261,0.784,12.59,2.234c10.216,3.426,21.4,4.02,21.512,4.026l0.215,0.01L436.628,266.773z"/>
		</g>
		<g>
			<path fill="#FFFFFF" d="M389.476,147.423c6.086,0.282,6.329,19.082,11.604,27.384c18.036,28.394,62.295,55.458,103.965,41.462
				l-1.515-6.17c0,0,0.785-1.552,0.762-2.102c-0.026-0.534-0.821-1.979-0.821-1.979s0.7-0.825,0.789-1.165
				c0.144-0.556-0.188-2.289-0.188-2.289s-1.183-2.662-1.124-3.604c0.056-0.936-0.614-3.242-0.614-3.242l1.55-3.413l-0.377-7.635
				l-1.129-3.661l-1.507-2.071l-0.426-2.133c0,0,1.832-2.669,1.897-3.708c0.05-0.799-1.095-3.008-1.095-3.008l-1.883-4.154
				l-2.744-4.339l-0.269-6.004c0,0-0.205-3.117-0.376-4.142c-0.377-2.259-3.937-3.92-3.937-3.92s-14.138,1.473-25.622,2.414
				s-20.333-0.565-24.287-0.941s-16.012-0.531-21.652-1.473C403.085,144.628,391.647,145.475,389.476,147.423z"/>
		</g>
		<g>
			<path fill="#D3AE35" d="M485.028,216.746c-33.754,0-57.12-20.692-66.854-29.313c-1.395-1.235-2.496-2.209-3.188-2.723
				c-10.317-7.661-13.484-21.557-14.838-27.491c-0.184-0.808-0.393-1.723-0.482-1.961c-2.191-4.975-4.937-7.814-4.963-7.843
				l3.217-3.172c0.136,0.137,3.333,3.408,5.891,9.218c0.231,0.524,0.395,1.223,0.743,2.754c1.241,5.446,4.149,18.201,13.128,24.866
				c0.847,0.63,1.954,1.611,3.487,2.968c11.039,9.775,40.368,35.736,82.383,26.017l1.018,4.402
				C497.722,216.053,491.2,216.746,485.028,216.746z"/>
		</g>
		<g>
			<path fill="#E7E7E7" d="M496.16,151.576c0,0-0.035,0.039-0.106,0.113c-0.088,0.083-0.218,0.205-0.388,0.363
				c-0.336,0.278-0.821,0.656-1.472,1.065c-0.652,0.399-1.45,0.877-2.412,1.294c-0.944,0.471-2.059,0.853-3.259,1.303
				c-1.228,0.359-2.539,0.811-3.969,1.106c-1.415,0.366-2.927,0.627-4.492,0.889c-1.559,0.297-3.194,0.41-4.842,0.629
				c-1.653,0.159-3.336,0.241-5.019,0.366c-1.683,0.043-3.365,0.084-5.021,0.126c-1.656,0.04-3.286-0.045-4.863-0.062
				c-1.576-0.012-3.101-0.078-4.542-0.181c-1.441-0.085-2.804-0.166-4.062-0.241c-1.256-0.075-2.403-0.218-3.424-0.304
				c-1.018-0.097-1.906-0.183-2.639-0.253c-1.462-0.14-2.298-0.219-2.298-0.219s0.839,0.056,2.304,0.154
				c0.732,0.05,1.624,0.11,2.645,0.178c1.021,0.059,2.168,0.169,3.427,0.209c1.26,0.04,2.621,0.083,4.062,0.126
				c1.441,0.063,2.96,0.087,4.533,0.055c1.571-0.028,3.195,0.012,4.843-0.075s3.318-0.176,4.989-0.265
				c1.665-0.172,3.336-0.299,4.965-0.501c1.624-0.265,3.239-0.421,4.766-0.756c1.533-0.301,3.013-0.599,4.384-0.997
				c1.392-0.327,2.65-0.803,3.833-1.183c1.142-0.466,2.206-0.865,3.083-1.335c0.903-0.422,1.63-0.889,2.218-1.268
				c0.586-0.39,1-0.735,1.265-0.968c0.221-0.208,0.362-0.36,0.365-0.369L496.16,151.576z"/>
		</g>
		<g>
			<path fill="#E7E7E7" d="M496.792,161.662c0,0-0.294,0.077-0.844,0.219c-0.562,0.148-1.374,0.322-2.409,0.554
				c-2.074,0.421-5.042,0.973-8.632,1.425c-1.794,0.218-3.738,0.436-5.801,0.606c-2.065,0.153-4.239,0.331-6.498,0.388
				c-2.254,0.121-4.583,0.119-6.951,0.119c-2.368,0.041-4.771-0.131-7.175-0.188c-2.4-0.121-4.796-0.34-7.154-0.503
				c-2.351-0.269-4.663-0.534-6.901-0.792c-2.228-0.317-4.375-0.688-6.413-1.006c-2.045-0.285-3.937-0.775-5.704-1.109
				c-1.76-0.381-3.389-0.655-4.798-1.05c-1.418-0.362-2.654-0.678-3.672-0.937c-2.033-0.519-3.195-0.816-3.195-0.816
				s1.168,0.273,3.213,0.753c1.021,0.24,2.263,0.531,3.684,0.864c1.415,0.369,3.051,0.609,4.812,0.956
				c1.773,0.298,3.671,0.75,5.719,0.994c2.039,0.278,4.186,0.606,6.416,0.879c2.232,0.212,4.542,0.43,6.89,0.653
				c2.356,0.116,4.742,0.287,7.134,0.362c2.395,0.009,4.786,0.134,7.14,0.047c2.356-0.047,4.671-0.091,6.907-0.254
				c2.238-0.102,4.395-0.32,6.439-0.512c2.041-0.209,3.965-0.463,5.736-0.713c3.545-0.518,6.463-1.121,8.495-1.574
				c1.007-0.247,1.807-0.434,2.33-0.584c0.532-0.15,0.818-0.229,0.818-0.229L496.792,161.662z"/>
		</g>
		<g>
			<path fill="#E7E7E7" d="M499.22,165.873c0,0-0.197,0.096-0.56,0.274c-0.412,0.147-1.015,0.362-1.782,0.635
				c-0.756,0.194-1.668,0.384-2.716,0.625c-1.044,0.278-2.244,0.315-3.539,0.506c-0.646,0.078-1.323,0.159-2.023,0.245
				c-0.7,0.079-1.427,0.064-2.171,0.103c-1.488,0.052-3.057,0.106-4.684,0.162c-1.621,0.037-3.295-0.099-4.995-0.141
				c-1.7-0.065-3.427-0.131-5.153-0.196c-3.434-0.343-6.869-0.684-10.088-1.005c-0.806-0.083-1.594-0.166-2.368-0.246
				c-0.771-0.119-1.523-0.234-2.256-0.345c-1.462-0.225-2.848-0.437-4.127-0.633c-5.11-0.784-8.517-1.306-8.517-1.306
				s3.418,0.43,8.549,1.072c1.282,0.161,2.671,0.335,4.139,0.52c0.732,0.091,1.485,0.187,2.257,0.282
				c0.776,0.06,1.567,0.121,2.37,0.183c3.219,0.232,6.651,0.478,10.082,0.725c1.721,0.019,3.438,0.037,5.13,0.056
				c1.688-0.004,3.354,0.085,4.96,0.004c1.604-0.099,3.15-0.196,4.622-0.287c0.732-0.058,1.45-0.062,2.132-0.159
				c0.683-0.101,1.339-0.2,1.972-0.294c1.256-0.219,2.441-0.287,3.424-0.583c0.991-0.256,1.856-0.478,2.568-0.662
				c0.647-0.246,1.156-0.439,1.503-0.57c0.356-0.187,0.547-0.286,0.547-0.286L499.22,165.873z"/>
		</g>
		<g>
			<path fill="#E7E7E7" d="M500.846,178.856c0,0-0.326,0.055-0.938,0.156c-0.629,0.105-1.523,0.206-2.671,0.338
				c-1.15,0.1-2.541,0.238-4.142,0.302c-1.598,0.113-3.403,0.099-5.372,0.141c-1.965-0.064-4.098-0.032-6.342-0.21
				c-1.124-0.072-2.28-0.146-3.457-0.22c-1.177-0.121-2.377-0.245-3.598-0.37c-2.447-0.198-4.942-0.673-7.495-1.01
				c-2.536-0.447-5.107-0.936-7.667-1.459c-2.538-0.621-5.098-1.162-7.577-1.84c-2.472-0.719-4.916-1.375-7.252-2.103
				c-2.321-0.783-4.562-1.537-6.689-2.255c-2.115-0.748-4.071-1.568-5.901-2.265c-1.823-0.71-3.5-1.346-4.938-2.027
				c-1.453-0.649-2.719-1.213-3.76-1.68c-2.084-0.93-3.275-1.462-3.275-1.462s1.2,0.511,3.302,1.403
				c1.05,0.447,2.324,0.988,3.786,1.611c1.447,0.654,3.136,1.259,4.972,1.936c1.838,0.662,3.807,1.446,5.931,2.155
				c2.133,0.677,4.383,1.39,6.713,2.128c2.342,0.684,4.792,1.293,7.266,1.965c2.483,0.633,5.039,1.124,7.578,1.698
				c2.557,0.474,5.122,0.913,7.648,1.313c2.545,0.287,5.03,0.716,7.464,0.869c1.212,0.102,2.406,0.203,3.574,0.301
				c1.17,0.053,2.314,0.106,3.43,0.156c2.227,0.137,4.336,0.066,6.28,0.095c1.944-0.078,3.728-0.094,5.298-0.235
				c1.577-0.091,2.939-0.252,4.063-0.37c1.114-0.148,2-0.265,2.576-0.374c0.592-0.107,0.906-0.165,0.906-0.165L500.846,178.856z"/>
		</g>
		<g>
			<path fill="#E7E7E7" d="M502.708,197.179c0,0-0.341,0.094-1.035,0.232c-0.691,0.16-1.688,0.318-2.963,0.525
				c-1.276,0.143-2.82,0.402-4.606,0.487c-0.892,0.053-1.842,0.138-2.842,0.173c-1,0.013-2.053,0.026-3.153,0.041
				c-1.098,0.044-2.239-0.047-3.421-0.092c-1.18-0.078-2.41-0.056-3.657-0.221c-2.497-0.272-5.142-0.502-7.828-1.052
				c-1.344-0.265-2.732-0.418-4.095-0.787c-1.368-0.343-2.75-0.69-4.145-1.038c-1.406-0.308-2.774-0.784-4.154-1.245
				c-1.379-0.458-2.765-0.917-4.147-1.375c-2.706-1.089-5.398-2.215-8.022-3.369c-2.544-1.322-5.048-2.624-7.472-3.883
				c-2.315-1.446-4.554-2.842-6.678-4.167c-2.106-1.348-3.934-2.861-5.707-4.13c-1.75-1.3-3.38-2.459-4.675-3.679
				c-1.332-1.167-2.495-2.184-3.451-3.021c-1.913-1.675-3.006-2.633-3.006-2.633s1.108,0.94,3.049,2.583
				c0.969,0.822,2.146,1.82,3.497,2.964c1.309,1.196,2.959,2.327,4.728,3.598c1.791,1.237,3.636,2.716,5.757,4.027
				c2.136,1.286,4.389,2.64,6.719,4.042c2.43,1.213,4.942,2.468,7.495,3.744c2.627,1.103,5.322,2.18,8.02,3.215
				c1.383,0.432,2.763,0.866,4.139,1.297c1.374,0.436,2.739,0.886,4.137,1.167c1.386,0.324,2.759,0.645,4.118,0.962
				c1.354,0.344,2.729,0.472,4.062,0.713c2.665,0.502,5.28,0.684,7.752,0.914c1.232,0.143,2.441,0.102,3.606,0.159
				c1.165,0.025,2.291,0.097,3.374,0.037c1.079-0.031,2.115-0.062,3.101-0.09c0.982-0.052,1.912-0.151,2.786-0.218
				c1.753-0.11,3.256-0.39,4.5-0.547c1.236-0.223,2.21-0.391,2.842-0.551c0.642-0.135,1.001-0.241,1.001-0.241L502.708,197.179z"/>
		</g>
		<g>
			<path fill="#E7E7E7" d="M504.238,203.71c0,0-0.269,0.056-0.771,0.16c-0.515,0.109-1.256,0.228-2.2,0.374
				c-0.944,0.124-2.092,0.286-3.412,0.39c-1.318,0.118-2.81,0.22-4.437,0.25c-1.627,0.094-3.389-0.009-5.251-0.015
				c-1.859-0.155-3.827-0.178-5.836-0.471c-1.01-0.125-2.033-0.253-3.068-0.381c-1.033-0.156-2.068-0.376-3.115-0.563
				c-2.106-0.333-4.192-0.918-6.287-1.447c-1.056-0.241-2.082-0.575-3.104-0.922c-1.021-0.338-2.038-0.674-3.048-1.008
				c-2.009-0.697-3.912-1.58-5.789-2.327c-1.859-0.797-3.565-1.764-5.23-2.574c-1.686-0.779-3.127-1.793-4.521-2.606
				c-1.361-0.869-2.686-1.546-3.718-2.363c-1.062-0.771-1.989-1.443-2.751-1.996c-1.523-1.106-2.395-1.739-2.395-1.739
				s0.886,0.613,2.433,1.686c0.774,0.536,1.712,1.186,2.789,1.933c1.047,0.794,2.386,1.44,3.763,2.278
				c1.409,0.779,2.865,1.757,4.56,2.498c1.677,0.771,3.395,1.694,5.26,2.447c1.886,0.702,3.792,1.536,5.801,2.184
				c1.01,0.309,2.024,0.621,3.045,0.933c1.018,0.324,2.045,0.633,3.095,0.847c2.089,0.479,4.163,1.014,6.254,1.297
				c1.042,0.164,2.068,0.359,3.092,0.49c1.027,0.104,2.042,0.209,3.039,0.311c1.988,0.246,3.934,0.225,5.766,0.338
				c1.836-0.035,3.571,0.029,5.169-0.099c1.601-0.064,3.06-0.197,4.351-0.34c1.289-0.132,2.406-0.314,3.324-0.455
				c0.915-0.163,1.63-0.292,2.101-0.404c0.485-0.11,0.741-0.17,0.741-0.17L504.238,203.71z"/>
		</g>
		<g>
			<path fill="#E7E7E7" d="M503.499,188.026c0,0-0.193,0.05-0.559,0.143c-0.373,0.085-0.959,0.168-1.683,0.292
				c-0.732,0.157-1.589,0.153-2.586,0.237c-0.494,0.034-1.023,0.069-1.579,0.106c-0.557,0.018-1.139-0.019-1.748-0.028
				c-1.215-0.04-2.535-0.044-3.921-0.123c-1.38-0.156-2.836-0.32-4.339-0.491c-0.754-0.085-1.516-0.172-2.289-0.26
				c-0.765-0.148-1.535-0.3-2.315-0.452c-1.553-0.306-3.133-0.618-4.713-0.928c-1.591-0.262-3.13-0.739-4.656-1.155
				c-1.526-0.421-3.027-0.835-4.48-1.237c-1.444-0.422-2.871-0.733-4.159-1.236c-1.301-0.459-2.53-0.891-3.669-1.292
				c-4.539-1.597-7.565-2.662-7.565-2.662s3.056,0.975,7.64,2.438c1.144,0.367,2.386,0.762,3.697,1.181
				c1.298,0.463,2.733,0.731,4.184,1.111c1.459,0.357,2.965,0.727,4.498,1.102c1.529,0.368,3.073,0.799,4.662,1.01
				c1.577,0.264,3.153,0.527,4.704,0.784c0.776,0.128,1.544,0.256,2.307,0.381c0.765,0.065,1.523,0.128,2.268,0.19
				c1.488,0.125,2.927,0.246,4.292,0.36c1.365,0.035,2.656,0.001,3.845,0.006c0.595-0.009,1.165,0.012,1.703-0.022
				c0.536-0.052,1.045-0.1,1.524-0.147c0.947-0.107,1.806-0.131,2.444-0.294c0.656-0.132,1.162-0.21,1.521-0.303
				c0.362-0.103,0.554-0.159,0.554-0.159L503.499,188.026z"/>
		</g>
		<g>
			<g>
				<circle fill="#03719D" cx="295.101" cy="263.376" r="32.533"/>
			</g>
			<g>
				<g>
					<path fill="#FFFFFF" d="M295.1,233.485c-16.479,0-29.888,13.408-29.888,29.889c0,16.482,13.408,29.889,29.888,29.889
						c16.481,0,29.892-13.407,29.892-29.889C324.991,246.893,311.581,233.485,295.1,233.485z M268.229,263.375
						c0-3.895,0.835-7.593,2.325-10.938l12.82,35.123C274.41,283.205,268.229,274.012,268.229,263.375z M295.1,290.251
						c-2.636,0-5.184-0.388-7.591-1.096l8.063-23.43l8.26,22.629c0.054,0.132,0.121,0.254,0.193,0.371
						C301.232,289.71,298.229,290.251,295.1,290.251z M298.805,250.775c1.617-0.085,3.074-0.253,3.074-0.253
						c1.449-0.174,1.278-2.302-0.17-2.217c0,0-4.354,0.341-7.164,0.341c-2.64,0-7.076-0.341-7.076-0.341
						c-1.449-0.085-1.621,2.128-0.171,2.217c0,0,1.371,0.167,2.818,0.253l4.187,11.471l-5.881,17.637l-9.787-29.108
						c1.621-0.085,3.077-0.253,3.077-0.253c1.445-0.174,1.276-2.302-0.172-2.217c0,0-4.353,0.341-7.162,0.341
						c-0.506,0-1.099-0.013-1.729-0.031c4.806-7.297,13.064-12.114,22.451-12.114c6.997,0,13.366,2.675,18.147,7.056
						c-0.116-0.007-0.229-0.021-0.347-0.021c-2.641,0-4.514,2.3-4.514,4.769c0,2.217,1.277,4.087,2.639,6.303
						c1.023,1.79,2.218,4.089,2.218,7.413c0,2.297-0.684,5.195-2.046,8.687l-2.682,8.955L298.805,250.775z M318.683,250.483
						c2.098,3.826,3.29,8.219,3.29,12.891c0,9.917-5.373,18.571-13.361,23.228l8.207-23.731c1.534-3.834,2.043-6.898,2.043-9.624
						C318.861,252.257,318.797,251.34,318.683,250.483z"/>
				</g>
			</g>
		</g>
		<g>
			<g>
				<path fill="#FBD8E7" d="M347.182,145.824c0,0,1.44,2.058-1.152,4.057l-28.309-3.767c0,0-5.559-1.162-8.158,4.017l-15.047,29.792
					c0,0-4.699-0.95-4.687-1.302c0.099-0.204,14.587-30.248,14.587-30.248s3.51-9.164,14.717-7.619L347.182,145.824z"/>
			</g>
			<g>
				<path fill="#010101" d="M341.073,149.758c0,0,0.218-0.028,0.574-0.035c0.357-0.012,0.812-0.049,1.341-0.044
					c0.531-0.034,1.113-0.019,1.671-0.064c0.285-0.001,0.545-0.056,0.801-0.072c0.244-0.047,0.466-0.081,0.641-0.147
					c0.171-0.057,0.318-0.107,0.427-0.182c0.14-0.049,0.232-0.164,0.375-0.29c0.113-0.153,0.275-0.306,0.366-0.54
					c0.128-0.202,0.253-0.43,0.333-0.669c0.073-0.232,0.213-0.452,0.276-0.665c0.06-0.211,0.144-0.403,0.207-0.564
					c0.134-0.324,0.237-0.527,0.237-0.527s0.146,0.153,0.357,0.449c0.207,0.299,0.501,0.734,0.649,1.352
					c0.043,0.155,0.09,0.316,0.137,0.484c0.02,0.178,0.024,0.366,0.033,0.563c0.035,0.387-0.051,0.833-0.199,1.297
					c-0.042,0.235-0.216,0.46-0.346,0.691c-0.129,0.241-0.3,0.456-0.524,0.637c-0.402,0.417-0.927,0.659-1.423,0.837
					c-0.512,0.15-0.997,0.205-1.459,0.191c-0.444-0.028-0.883-0.081-1.258-0.208c-0.775-0.212-1.393-0.578-1.875-0.949
					c-0.479-0.362-0.842-0.765-1.046-1.052C341.174,149.953,341.073,149.758,341.073,149.758z"/>
			</g>
		</g>
		<g>
			<path fill="#FBD8E7" d="M247.317,147.136c0,0-1.441,2.058,1.152,4.057l28.309-3.767c0,0,5.559-1.162,8.157,4.017l14.751,29.203
				c0,0,5.395,0.369,5.38,0.018c-0.099-0.204-14.983-30.978-14.983-30.978s-3.51-9.163-14.717-7.619L247.317,147.136z"/>
		</g>
		<g>
			<path fill="#010101" d="M253.458,150.529c0,0-0.052,0.217-0.201,0.551c-0.106,0.147-0.272,0.391-0.489,0.566
				c-0.202,0.173-0.454,0.397-0.756,0.529c-1.174,0.688-3.13,0.844-4.827-0.034c-0.418-0.222-0.814-0.484-1.153-0.818
				c-0.361-0.294-0.617-0.703-0.87-1.056c-0.194-0.398-0.408-0.769-0.487-1.157c-0.079-0.386-0.175-0.738-0.151-1.075
				c-0.021-0.662,0.108-1.186,0.259-1.54c0.134-0.353,0.239-0.539,0.239-0.539s0.149,0.181,0.356,0.471
				c0.102,0.144,0.225,0.315,0.338,0.503c0.15,0.18,0.315,0.37,0.455,0.574c0.132,0.213,0.37,0.375,0.524,0.578
				c0.159,0.205,0.402,0.344,0.566,0.536c0.226,0.143,0.4,0.325,0.632,0.454c0.216,0.143,0.437,0.283,0.681,0.396
				c0.936,0.5,2.095,0.844,3.066,1.026c0.505,0.084,0.902,0.116,1.237,0.126C253.246,150.563,253.458,150.529,253.458,150.529z"/>
		</g>
		<g>
			<path fill="#FFFFFF" d="M336.377,118.623c0,0,1.528-0.656,3.874-1.487c2.338-0.869,5.516-1.837,8.759-2.665
				c1.626-0.394,3.247-0.899,4.829-1.093c0.787-0.097,1.561-0.14,2.302-0.096c0.732,0,1.436,0.071,2.083,0.178
				c0.642,0.07,1.234,0.222,1.754,0.381c0.515,0.156,0.956,0.285,1.312,0.485c0.707,0.35,1.064,0.597,1.064,0.597l-0.076,0.291
				c0,0-0.453,0.094-1.162,0.178c-0.347,0.025-0.785,0.125-1.271,0.204c-0.481,0.062-1.021,0.161-1.615,0.274
				c-0.591,0.099-1.229,0.206-1.903,0.319c-0.675,0.118-1.389,0.208-2.136,0.306c-0.747,0.059-1.526,0.112-2.325,0.148
				c-0.799,0.023-1.607,0.126-2.42,0.197c-3.244,0.349-6.478,0.938-8.921,1.331c-2.436,0.443-4.06,0.738-4.06,0.738L336.377,118.623
				z"/>
		</g>
		<g>
			<path fill="#FFFFFF" d="M336.639,114.516c0,0,1.566-0.728,4.001-1.656c2.42-0.967,5.729-2.041,9.131-2.894
				c1.699-0.422,3.414-0.903,5.073-1.087c0.823-0.1,1.645-0.087,2.412-0.053c0.767,0.006,1.506,0.14,2.171,0.234
				c0.667,0.073,1.283,0.3,1.812,0.437c0.531,0.144,0.985,0.333,1.347,0.52c0.73,0.347,1.112,0.594,1.112,0.594l-0.07,0.294
				c0,0-0.465,0.096-1.218,0.177c-0.377,0.035-0.824,0.078-1.342,0.169c-0.518,0.083-1.076,0.109-1.703,0.219
				c-0.625,0.113-1.285,0.151-1.997,0.268c-0.709,0.131-1.45,0.165-2.229,0.266c-0.778,0.066-1.587,0.083-2.417,0.131
				c-0.832,0.025-1.674,0.115-2.518,0.203c-3.375,0.369-6.731,1.061-9.264,1.55c-2.527,0.55-4.212,0.917-4.212,0.917
				L336.639,114.516z"/>
		</g>
		<g>
			<path fill="#FFFFFF" d="M338.666,107.774c0,0,1.479-0.382,3.714-0.86c2.232-0.517,5.228-1.052,8.239-1.574
				c1.507-0.246,3.01-0.609,4.442-0.737c1.436-0.096,2.796-0.004,3.963,0.171c1.17,0.178,2.154,0.445,2.823,0.732
				c0.333,0.124,0.609,0.306,0.77,0.401c0.163,0.107,0.249,0.164,0.249,0.164l-0.09,0.288c0,0-0.101,0.021-0.287,0.062
				c-0.191,0.05-0.419,0.069-0.75,0.159c-0.651,0.166-1.561,0.378-2.665,0.603c-0.557,0.125-1.15,0.216-1.789,0.317
				c-0.635,0.123-1.306,0.172-2.006,0.232c-1.403,0.071-2.921-0.038-4.434,0.006c-6.068,0.167-12.141,0.333-12.141,0.333
				L338.666,107.774z"/>
		</g>
		<g>
			<circle fill="#F36C21" cx="74.434" cy="115.408" r="1.256"/>
		</g>
		<g>
			<path fill="#D3AE35" d="M74.187,115.257c0,0,0.268-0.062,0.836-0.089c0.57-0.019,1.413,0.032,2.436,0.396
				c1.021,0.348,2.183,1.033,3.27,2.062c1.101,1.02,2.107,2.387,2.949,3.99c0.812,1.616,1.497,3.461,1.859,5.478
				c0.358,2.018,0.364,4.185,0.114,6.366c-0.241,2.184-0.715,4.382-1.271,6.579c-0.583,2.191-1.334,4.392-2.486,6.481
				c-1.169,2.033-2.841,4.086-5.371,5.007c-2.517,0.97-5.472,0.278-7.463-1.146c-2.065-1.396-3.404-3.33-4.372-5.198
				c-0.912-1.909-1.503-3.796-1.805-5.568c-0.331-1.766-0.407-3.404-0.396-4.84c0.021-1.457,0.192-2.658,0.369-3.653
				c0.176-1.013,0.407-1.806,0.581-2.326c0.202-0.512,0.31-0.786,0.31-0.786l0.298,0.061c0,0,0.015,0.285,0.044,0.82
				c0.009,0.529,0.103,1.291,0.238,2.258c0.12,0.97,0.266,2.146,0.436,3.495c0.17,1.318,0.471,2.784,0.898,4.33
				c0.457,1.537,1.025,3.176,1.89,4.732c0.818,1.567,1.9,3.099,3.286,4.216c1.389,1.119,3.15,1.604,4.929,1.164
				c1.775-0.421,3.548-1.708,4.882-3.404c1.36-1.688,2.315-3.754,2.848-5.873c0.56-2.124,0.598-4.316,0.418-6.377
				c-0.183-2.065-0.569-4.009-0.994-5.805c-0.412-1.799-0.89-3.474-1.536-4.927c-1.215-2.947-2.933-5.011-4.474-6.009
				c-0.766-0.506-1.469-0.785-1.948-0.931c-0.485-0.16-0.785-0.202-0.785-0.202L74.187,115.257z"/>
		</g>
		<g>
			<path fill="#F6891F" d="M138.895,329.865c5.62,3.356,11.126,6.03,16.409,8.122c17.339,31.724,55.002,56.099,87.68,56.72
				c16.88,0.276,29.959-6.087,37.063-18.033c7.969-13.405,20.144-18.356,28.062-16.315c5.309,1.368,8.352,5.792,8.566,12.467
				c0.188,5.854-4.98,13.665-13.826,20.895c-15.903,13.002-43.191,23.455-68.297,17.506
				C191.153,400.952,152.175,367.407,138.895,329.865"/>
		</g>
		<g>
			<path fill="#F6891F" d="M456.388,329.865c-5.622,3.356-11.126,6.03-16.409,8.122c-17.339,31.724-55.003,56.099-87.681,56.72
				c-16.879,0.276-29.957-6.087-37.062-18.033c-7.97-13.405-20.143-18.356-28.061-16.315c-5.308,1.368-8.35,5.792-8.564,12.467
				c-0.188,5.854,4.979,13.665,13.824,20.895c15.902,13.002,43.189,23.455,68.295,17.506
				C404.128,400.952,443.105,367.407,456.388,329.865"/>
		</g>
		<g>
			<path fill="#DD7E2F" d="M245.348,134.566c-0.037,0,0.012,0.316-0.465,0.81c-0.22,0.208-0.525,0.433-0.907,0.593
				c-0.383,0.166-0.827,0.269-1.312,0.324c-0.494,0.048-1.015,0.022-1.615-0.206c-0.553-0.218-1.066-0.575-1.489-1.008
				c-0.853-0.835-1.638-1.821-2.047-3.108c-0.095-0.332-0.161-0.628-0.179-1.02c-0.018-0.276,0.003-0.62,0.073-0.991
				c0.127-0.67,0.4-1.307,0.773-1.852c0.764-1.1,1.98-1.669,2.992-1.805c0.513-0.078,0.985-0.028,1.386,0.038
				c0.388,0.089,0.709,0.202,0.982,0.34c0.507,0.263,0.729,0.492,0.729,0.492l-0.064,0.136c0,0-0.077-0.006-0.221-0.021
				c-0.137-0.022-0.342-0.039-0.592-0.043c-0.233,0.01-0.538,0.016-0.877,0.058c-0.326,0.067-0.682,0.124-1.038,0.277
				c-0.721,0.271-1.444,0.77-2.022,1.484c-0.296,0.351-0.546,0.771-0.709,1.239l-0.104,0.33l-0.088,0.432
				c-0.038,0.203-0.078,0.503-0.092,0.763c-0.067,1.084,0.495,2.28,1.454,2.766c0.475,0.237,0.968,0.335,1.411,0.358
				c0.397,0.018,0.856,0.008,1.257,0.009c0.814-0.022,1.465-0.073,1.918-0.194c0.402-0.084,0.744-0.327,0.732-0.299L245.348,134.566
				z"/>
		</g>
		<g>
			<path fill="#986B42" d="M278.729,174.229c0,0,2.473-1.852,4.544-1.664c0,0,24.917,8.598,32.903,6.431
				C316.176,178.996,296.739,185.871,278.729,174.229z"/>
		</g>
	</g>
	<g>
		<path fill="#DD7E2F" d="M206.457,180.729c0,0-0.147,0.076-0.424,0.218c-0.284,0.126-0.685,0.347-1.338,0.467
			c-0.172,0.019-0.35,0.049-0.57,0.032c-0.067-0.007-0.079,0.005-0.194-0.019l-0.12-0.016c-0.081-0.01-0.164-0.021-0.249-0.031
			c-0.4-0.085-0.86-0.205-1.259-0.421c-0.845-0.407-1.675-1.109-2.312-2.014c-0.638-0.905-1.145-1.98-1.399-3.154
			c-0.258-1.177-0.202-2.442-0.052-3.69c0.162-1.251,0.356-2.494,0.467-3.763c0.111-1.281,0.223-2.583,0.335-3.885
			c0.122-1.301,0.335-2.665,0.773-3.9c0.418-1.252,0.945-2.458,1.563-3.58c1.23-2.253,3.079-4.027,5.037-5.016
			c0.983-0.487,1.997-0.761,2.917-0.795c0.92-0.036,1.715,0.168,2.285,0.44c0.619,0.261,0.997,0.616,1.196,0.941
			c0.205,0.338,0.125,0.594,0.133,0.581h-0.3c-0.008,0.001-0.021-0.119-0.222-0.24c-0.197-0.113-0.583-0.271-1.053-0.247
			c-1.025,0.009-2.304,0.469-3.563,1.538c-1.281,1.044-2.493,2.647-3.762,4.443c-0.622,0.912-1.23,1.9-1.766,2.962
			c-0.526,1.074-1.123,2.126-1.632,3.288c-0.523,1.137-0.899,2.347-1.04,3.568c-0.172,1.219-0.038,2.446,0.244,3.574
			c0.292,1.131,0.682,2.157,0.997,3.089c0.313,0.933,0.603,1.789,0.984,2.497c0.372,0.71,0.779,1.3,1.238,1.733
			c0.242,0.22,0.447,0.401,0.672,0.555l0.22,0.12l0.106,0.058c-0.038-0.007,0.026,0.018,0.035,0.026
			c0.08,0.056,0.196,0.087,0.301,0.125c0.461,0.106,0.92,0.138,1.223,0.166c0.309,0.036,0.474,0.055,0.474,0.055L206.457,180.729z"
			/>
	</g>
	<g>
		<path fill="#DD7E2F" d="M212.962,182.397c0,0-0.147,0.076-0.424,0.218c-0.284,0.126-0.685,0.347-1.338,0.466
			c-0.172,0.019-0.35,0.05-0.57,0.032c-0.067-0.007-0.079,0.005-0.194-0.019l-0.12-0.016c-0.081-0.01-0.164-0.021-0.249-0.031
			c-0.4-0.085-0.86-0.205-1.259-0.422c-0.845-0.406-1.675-1.109-2.312-2.014c-0.638-0.905-1.144-1.98-1.399-3.154
			c-0.258-1.177-0.202-2.442-0.052-3.69c0.162-1.251,0.356-2.494,0.467-3.762c0.11-1.282,0.223-2.583,0.335-3.885
			c0.122-1.301,0.335-2.665,0.773-3.9c0.418-1.252,0.945-2.458,1.563-3.58c1.23-2.253,3.079-4.027,5.037-5.016
			c0.983-0.487,1.997-0.761,2.917-0.795c0.92-0.036,1.715,0.168,2.285,0.441c0.619,0.261,0.997,0.616,1.196,0.94
			c0.205,0.338,0.125,0.594,0.133,0.581h-0.3c-0.008,0.001-0.021-0.119-0.222-0.24c-0.197-0.113-0.582-0.271-1.053-0.247
			c-1.025,0.009-2.304,0.469-3.563,1.538c-1.281,1.044-2.493,2.647-3.762,4.443c-0.622,0.912-1.23,1.9-1.766,2.962
			c-0.526,1.074-1.123,2.126-1.632,3.288c-0.523,1.137-0.899,2.347-1.04,3.568c-0.172,1.218-0.038,2.446,0.244,3.574
			c0.292,1.131,0.681,2.157,0.997,3.088c0.313,0.934,0.603,1.789,0.984,2.497c0.372,0.71,0.779,1.301,1.237,1.733
			c0.242,0.221,0.448,0.401,0.672,0.556l0.22,0.12l0.106,0.058c-0.039-0.007,0.027,0.018,0.035,0.026
			c0.08,0.056,0.196,0.087,0.301,0.125c0.461,0.106,0.92,0.138,1.223,0.166c0.309,0.036,0.474,0.055,0.474,0.055L212.962,182.397z"
			/>
	</g>
	<g>
		<path fill="#DD7E2F" d="M219.324,183.871c0,0-0.145,0.073-0.417,0.211c-0.278,0.122-0.672,0.335-1.308,0.452
			c-0.167,0.02-0.337,0.053-0.551,0.038l-0.159-0.008c-0.12-0.022-0.101-0.014-0.158-0.023c-0.08-0.01-0.161-0.02-0.243-0.029
			c-0.164-0.02-0.404-0.089-0.616-0.145c-0.199-0.067-0.416-0.133-0.615-0.241c-0.832-0.382-1.664-1.045-2.312-1.92
			c-0.645-0.875-1.165-1.92-1.437-3.069c-0.269-1.152-0.232-2.396-0.089-3.62c0.15-1.229,0.336-2.446,0.438-3.688
			c0.103-1.255,0.207-2.531,0.311-3.806c0.113-1.274,0.32-2.614,0.753-3.824c0.412-1.227,0.936-2.407,1.551-3.504
			c1.224-2.203,3.073-3.918,5.017-4.848c0.973-0.46,1.977-0.7,2.875-0.719c0.903-0.01,1.673,0.196,2.227,0.47
			c0.604,0.262,0.97,0.605,1.168,0.922c0.204,0.328,0.129,0.583,0.137,0.569l-0.3,0.002c-0.008,0.001-0.021-0.112-0.22-0.229
			c-0.194-0.107-0.574-0.26-1.033-0.239c-1.008,0.009-2.264,0.445-3.505,1.465c-1.261,0.997-2.458,2.539-3.712,4.275
			c-0.614,0.882-1.215,1.84-1.743,2.872c-0.518,1.045-1.107,2.066-1.609,3.201c-0.516,1.109-0.882,2.292-1.013,3.485
			c-0.161,1.191-0.016,2.39,0.278,3.487c0.298,1.1,0.7,2.092,1.021,2.994c0.32,0.902,0.617,1.727,0.999,2.411
			c0.377,0.681,0.781,1.251,1.236,1.67c0.111,0.111,0.233,0.192,0.342,0.298c0.114,0.082,0.183,0.161,0.33,0.243l0.215,0.118
			c0.018,0.013,0.108,0.053,0.065,0.042l0.065,0.036c0.08,0.056,0.198,0.084,0.302,0.121c0.454,0.106,0.902,0.143,1.198,0.174
			c0.302,0.038,0.463,0.059,0.463,0.059L219.324,183.871z"/>
	</g>
	<g>
		<path fill="#FFFFFF" d="M161.733,81.401c0,0-1.23,4.238,1.777,5.571C163.51,86.972,166.074,83.931,161.733,81.401z"/>
		<path fill="#FFFFFF" d="M168.159,83.247c0,0-3.178-0.205-4.649,3.725C163.51,86.972,167.851,87.725,168.159,83.247z"/>
		<path fill="#FFFFFF" d="M169.185,87.554c0,0-0.718-1.641-5.675-0.582C163.51,86.972,166.312,91.757,169.185,87.554z"/>
		<path fill="#FFFFFF" d="M164.433,92.749c0,0,3.488-3.008-0.923-5.777C163.51,86.972,160.024,90.698,164.433,92.749z"/>
		<path fill="#FFFFFF" d="M157.06,88.976c0,0,3.077-1.887,6.323-2.003C163.383,86.972,162.904,92.667,157.06,88.976z"/>
		<path fill="#FFFFFF" d="M158.282,84.614c0,0,3.622-0.821,5.228,2.358C163.51,86.972,159.238,89.638,158.282,84.614z"/>
		<circle fill="#FDF59E" cx="163.426" cy="87.11" r="0.239"/>
	</g>
	<g>
		<path fill="#FFFFFF" d="M188.562,71.49c0,0-1.23,4.238,1.777,5.571C190.338,77.061,192.903,74.02,188.562,71.49z"/>
		<path fill="#FFFFFF" d="M194.988,73.335c0,0-3.178-0.205-4.649,3.725C190.338,77.061,194.68,77.813,194.988,73.335z"/>
		<path fill="#FFFFFF" d="M196.013,77.642c0,0-0.718-1.641-5.675-0.582C190.338,77.061,193.141,81.846,196.013,77.642z"/>
		<path fill="#FFFFFF" d="M191.262,82.837c0,0,3.487-3.008-0.923-5.777C190.338,77.061,186.854,80.786,191.262,82.837z"/>
		<path fill="#FFFFFF" d="M183.888,79.064c0,0,3.077-1.887,6.323-2.003C190.211,77.061,189.732,82.756,183.888,79.064z"/>
		<path fill="#FFFFFF" d="M185.11,74.703c0,0,3.622-0.821,5.228,2.358C190.338,77.061,186.067,79.727,185.11,74.703z"/>
		<circle fill="#FDF59E" cx="190.254" cy="77.199" r="0.239"/>
	</g>
	<g>
		<path fill="#FFFFFF" d="M186.92,78.884c0,0-0.713,2.455,1.029,3.227C187.949,82.111,189.435,80.35,186.92,78.884z"/>
		<path fill="#FFFFFF" d="M190.642,79.954c0,0-1.841-0.119-2.693,2.158C187.949,82.111,190.464,82.547,190.642,79.954z"/>
		<path fill="#FFFFFF" d="M191.236,82.448c0,0-0.416-0.95-3.287-0.337C187.949,82.111,189.573,84.883,191.236,82.448z"/>
		<path fill="#FFFFFF" d="M188.484,85.457c0,0,2.02-1.742-0.535-3.346C187.949,82.111,185.93,84.27,188.484,85.457z"/>
		<path fill="#FFFFFF" d="M184.213,83.271c0,0,1.782-1.093,3.663-1.16C187.875,82.111,187.598,85.41,184.213,83.271z"/>
		<path fill="#FFFFFF" d="M184.921,80.746c0,0,2.097-0.476,3.028,1.365C187.949,82.111,185.475,83.655,184.921,80.746z"/>
		<circle fill="#FDF59E" cx="187.901" cy="82.191" r="0.139"/>
	</g>
	<g>
		<path fill="#FFFFFF" d="M180.921,78.114c0,0-0.713,2.455,1.029,3.228C181.95,81.342,183.436,79.58,180.921,78.114z"/>
		<path fill="#FFFFFF" d="M184.644,79.184c0,0-1.841-0.119-2.693,2.158C181.95,81.342,184.465,81.777,184.644,79.184z"/>
		<path fill="#FFFFFF" d="M185.238,81.678c0,0-0.417-0.95-3.288-0.336C181.95,81.342,183.574,84.113,185.238,81.678z"/>
		<path fill="#FFFFFF" d="M182.485,84.687c0,0,2.02-1.742-0.535-3.345C181.95,81.342,179.932,83.5,182.485,84.687z"/>
		<path fill="#FFFFFF" d="M178.214,82.501c0,0,1.782-1.093,3.662-1.16C181.876,81.342,181.6,84.64,178.214,82.501z"/>
		<path fill="#FFFFFF" d="M178.922,79.976c0,0,2.098-0.476,3.028,1.366C181.95,81.342,179.476,82.885,178.922,79.976z"/>
		<circle fill="#FDF59E" cx="181.902" cy="81.421" r="0.139"/>
	</g>
	<g>
		<path fill="#FFFFFF" d="M175.108,81.846c0,0-0.713,2.455,1.029,3.227C176.137,85.073,177.622,83.311,175.108,81.846z"/>
		<path fill="#FFFFFF" d="M178.83,82.916c0,0-1.841-0.119-2.693,2.158C176.137,85.073,178.652,85.508,178.83,82.916z"/>
		<path fill="#FFFFFF" d="M179.424,85.41c0,0-0.416-0.95-3.287-0.337C176.137,85.073,177.76,87.844,179.424,85.41z"/>
		<path fill="#FFFFFF" d="M176.671,88.418c0,0,2.02-1.742-0.535-3.345C176.137,85.073,174.118,87.231,176.671,88.418z"/>
		<path fill="#FFFFFF" d="M172.4,86.233c0,0,1.782-1.093,3.663-1.16C176.063,85.073,175.786,88.372,172.4,86.233z"/>
		<path fill="#FFFFFF" d="M173.109,83.708c0,0,2.097-0.476,3.028,1.366C176.137,85.073,173.663,86.617,173.109,83.708z"/>
		<circle fill="#FDF59E" cx="176.088" cy="85.152" r="0.139"/>
	</g>
	<g>
		<path fill="#FFFFFF" d="M169.916,80.174c0,0-0.713,2.455,1.029,3.227C170.944,83.401,172.43,81.639,169.916,80.174z"/>
		<path fill="#FFFFFF" d="M173.638,81.243c0,0-1.841-0.119-2.693,2.158C170.944,83.401,173.459,83.836,173.638,81.243z"/>
		<path fill="#FFFFFF" d="M174.232,83.738c0,0-0.417-0.95-3.288-0.337C170.944,83.401,172.568,86.172,174.232,83.738z"/>
		<path fill="#FFFFFF" d="M171.479,86.746c0,0,2.021-1.742-0.535-3.345C170.944,83.401,168.926,85.559,171.479,86.746z"/>
		<path fill="#FFFFFF" d="M167.208,84.561c0,0,1.782-1.093,3.662-1.16C170.871,83.401,170.594,86.699,167.208,84.561z"/>
		<path fill="#FFFFFF" d="M167.917,82.035c0,0,2.098-0.476,3.028,1.366C170.944,83.401,168.47,84.944,167.917,82.035z"/>
		<circle fill="#FDF59E" cx="170.896" cy="83.48" r="0.138"/>
	</g>
	<g>
		<path fill="#FFFFFF" d="M170.14,85.31c0,0-0.712,2.455,1.029,3.227C171.168,88.537,172.654,86.775,170.14,85.31z"/>
		<path fill="#FFFFFF" d="M173.862,86.379c0,0-1.841-0.119-2.693,2.158C171.168,88.537,173.684,88.973,173.862,86.379z"/>
		<path fill="#FFFFFF" d="M174.456,88.874c0,0-0.416-0.95-3.288-0.337C171.168,88.537,172.792,91.308,174.456,88.874z"/>
		<path fill="#FFFFFF" d="M171.703,91.882c0,0,2.021-1.742-0.535-3.345C171.168,88.537,169.15,90.695,171.703,91.882z"/>
		<path fill="#FFFFFF" d="M167.433,89.697c0,0,1.782-1.093,3.663-1.16C171.095,88.537,170.818,91.835,167.433,89.697z"/>
		<path fill="#FFFFFF" d="M168.141,87.171c0,0,2.097-0.476,3.027,1.366C171.168,88.537,168.695,90.081,168.141,87.171z"/>
		<circle fill="#FDF59E" cx="171.121" cy="88.617" r="0.139"/>
	</g>
	<g>
		<path fill="#FFFFFF" d="M151.689,84.389c0,0-0.713,2.455,1.029,3.227C152.718,87.616,154.204,85.854,151.689,84.389z"/>
		<path fill="#FFFFFF" d="M155.411,85.458c0,0-1.841-0.119-2.693,2.158C152.718,87.616,155.233,88.052,155.411,85.458z"/>
		<path fill="#FFFFFF" d="M156.005,87.953c0,0-0.416-0.95-3.287-0.337C152.718,87.616,154.342,90.387,156.005,87.953z"/>
		<path fill="#FFFFFF" d="M153.253,90.962c0,0,2.02-1.742-0.535-3.346C152.718,87.616,150.699,89.774,153.253,90.962z"/>
		<path fill="#FFFFFF" d="M148.982,88.776c0,0,1.782-1.093,3.663-1.16C152.645,87.616,152.367,90.915,148.982,88.776z"/>
		<path fill="#FFFFFF" d="M149.69,86.25c0,0,2.097-0.476,3.028,1.366C152.718,87.616,150.244,89.16,149.69,86.25z"/>
		<circle fill="#FDF59E" cx="152.67" cy="87.696" r="0.139"/>
	</g>
	<g>
		<path fill="#FFFFFF" d="M155.94,88.733c0,0-0.32,1.104,0.463,1.45C156.403,90.183,157.07,89.391,155.94,88.733z"/>
		<path fill="#FFFFFF" d="M157.613,89.214c0,0-0.828-0.054-1.21,0.969C156.403,90.183,157.533,90.378,157.613,89.214z"/>
		<path fill="#FFFFFF" d="M157.88,90.334c0,0-0.187-0.427-1.477-0.151C156.403,90.183,157.132,91.429,157.88,90.334z"/>
		<path fill="#FFFFFF" d="M156.643,91.687c0,0,0.908-0.783-0.24-1.504C156.403,90.183,155.495,91.153,156.643,91.687z"/>
		<path fill="#FFFFFF" d="M154.724,90.705c0,0,0.801-0.492,1.646-0.521C156.37,90.183,156.245,91.666,154.724,90.705z"/>
		<path fill="#FFFFFF" d="M155.042,89.57c0,0,0.943-0.214,1.361,0.613C156.403,90.183,155.291,90.877,155.042,89.57z"/>
		<circle fill="#FDF59E" cx="156.381" cy="90.219" r="0.062"/>
	</g>
	<g>
		<path fill="#FFFFFF" d="M156.779,85.446c0,0-0.32,1.104,0.462,1.451C157.242,86.896,157.91,86.104,156.779,85.446z"/>
		<path fill="#FFFFFF" d="M158.452,85.927c0,0-0.827-0.053-1.21,0.97C157.242,86.896,158.372,87.092,158.452,85.927z"/>
		<path fill="#FFFFFF" d="M158.719,87.048c0,0-0.187-0.427-1.478-0.151C157.242,86.896,157.971,88.142,158.719,87.048z"/>
		<path fill="#FFFFFF" d="M157.482,88.4c0,0,0.907-0.783-0.241-1.504C157.242,86.896,156.334,87.866,157.482,88.4z"/>
		<path fill="#FFFFFF" d="M155.563,87.417c0,0,0.801-0.491,1.646-0.521C157.208,86.896,157.084,88.379,155.563,87.417z"/>
		<path fill="#FFFFFF" d="M155.881,86.283c0,0,0.943-0.214,1.36,0.614C157.242,86.896,156.13,87.59,155.881,86.283z"/>
		<circle fill="#FDF59E" cx="157.22" cy="86.932" r="0.062"/>
	</g>
	<g>
		<path fill="#FFFFFF" d="M177.121,80.274c0,0-0.32,1.104,0.463,1.45C177.584,81.724,178.251,80.932,177.121,80.274z"/>
		<path fill="#FFFFFF" d="M178.794,80.755c0,0-0.827-0.054-1.21,0.969C177.584,81.724,178.714,81.919,178.794,80.755z"/>
		<path fill="#FFFFFF" d="M179.062,81.875c0,0-0.187-0.427-1.478-0.151C177.584,81.724,178.313,82.97,179.062,81.875z"/>
		<path fill="#FFFFFF" d="M177.824,83.228c0,0,0.908-0.783-0.24-1.504C177.584,81.724,176.676,82.694,177.824,83.228z"/>
		<path fill="#FFFFFF" d="M175.905,82.246c0,0,0.801-0.492,1.646-0.521C177.551,81.724,177.427,83.207,175.905,82.246z"/>
		<path fill="#FFFFFF" d="M176.223,81.111c0,0,0.943-0.214,1.361,0.613C177.584,81.724,176.472,82.418,176.223,81.111z"/>
		<circle fill="#FDF59E" cx="177.562" cy="81.76" r="0.062"/>
	</g>
	<g>
		<path fill="#FFFFFF" d="M180.831,83.538c0,0-0.32,1.104,0.462,1.45C181.293,84.988,181.961,84.196,180.831,83.538z"/>
		<path fill="#FFFFFF" d="M182.504,84.019c0,0-0.827-0.054-1.21,0.969C181.293,84.988,182.424,85.184,182.504,84.019z"/>
		<path fill="#FFFFFF" d="M182.771,85.139c0,0-0.187-0.427-1.478-0.151C181.293,84.988,182.023,86.234,182.771,85.139z"/>
		<path fill="#FFFFFF" d="M181.534,86.492c0,0,0.908-0.783-0.24-1.504C181.293,84.988,180.386,85.958,181.534,86.492z"/>
		<path fill="#FFFFFF" d="M179.614,85.509c0,0,0.801-0.491,1.646-0.521C181.26,84.988,181.136,86.471,179.614,85.509z"/>
		<path fill="#FFFFFF" d="M179.933,84.375c0,0,0.942-0.214,1.36,0.613C181.293,84.988,180.182,85.682,179.933,84.375z"/>
		<circle fill="#FDF59E" cx="181.272" cy="85.024" r="0.062"/>
	</g>
	<g>
		<path fill="#FFFFFF" d="M193.88,78.476c0,0-0.32,1.104,0.462,1.45C194.342,79.926,195.01,79.134,193.88,78.476z"/>
		<path fill="#FFFFFF" d="M195.553,78.957c0,0-0.827-0.054-1.21,0.969C194.342,79.926,195.473,80.122,195.553,78.957z"/>
		<path fill="#FFFFFF" d="M195.82,80.077c0,0-0.187-0.427-1.478-0.151C194.342,79.926,195.072,81.172,195.82,80.077z"/>
		<path fill="#FFFFFF" d="M194.583,81.43c0,0,0.908-0.783-0.24-1.504C194.342,79.926,193.435,80.896,194.583,81.43z"/>
		<path fill="#FFFFFF" d="M192.663,80.447c0,0,0.801-0.491,1.646-0.521C194.309,79.926,194.185,81.409,192.663,80.447z"/>
		<path fill="#FFFFFF" d="M192.982,79.312c0,0,0.942-0.214,1.36,0.613C194.342,79.926,193.23,80.62,192.982,79.312z"/>
		<circle fill="#FDF59E" cx="194.321" cy="79.962" r="0.062"/>
	</g>
</g>
</svg>
