<?xml version="1.0" encoding="utf-8"?>
<!-- Generator: Adobe Illustrator 16.0.4, SVG Export Plug-In . SVG Version: 6.00 Build 0)  -->
<!DOCTYPE svg PUBLIC "-//W3C//DTD SVG 1.1//EN" "http://www.w3.org/Graphics/SVG/1.1/DTD/svg11.dtd">
<svg version="1.1" id="Layer_1" xmlns="http://www.w3.org/2000/svg" xmlns:xlink="http://www.w3.org/1999/xlink" x="0px" y="0px"
	 width="317.59px" height="328.095px" viewBox="0 0 317.59 328.095" enable-background="new 0 0 317.59 328.095"
	 xml:space="preserve">
<g>
	<path fill-rule="evenodd" clip-rule="evenodd" d="M244.062,35.072c0.021,0.493-0.258,1.063-0.55,1.495
		c-2.574,3.811-2.226,7.918-1.141,12.037c0.337,1.272,0.453,2.399,0.162,3.693c-0.604,2.624-0.332,5.219,0.788,7.699
		c1.26,2.785,2.89,5.373,3.8,8.356c0.688,2.256,2.349,4.251,4.546,5.207c2.542,1.105,4.123,2.812,5.503,5.154
		c1.823,3.084,5.303,3.546,8.483,4.182c1.399,0.279,2.634,0.552,3.373,1.889c0.131,0.231,0.321,0.476,0.55,0.595
		c2.375,3.352,7.215,6.522,13.101,6.777c0.621,0.309,1.333,0.289,1.728,1.049c0.927,1.781,2.553,2.536,4.326,3.416
		c1.947,0.97,3.479,3.255,3.866,5.214c0.889,4.491,1.704,9.114,0.955,13.751c-0.433,2.679-0.428,6.237-2.964,8.936
		c-1.561,3.066-4.909,3.851-7.831,5.585c-7.563,6.215-4.193,8.146-8.038,11.033c11.512,3.19,13.188-3.937,15.089-9.186
		c1.932-2.75,4.588-4.962,6.05-7.661c2.18-4.02,3.821-8.167,3.702-12.901c-0.037-1.561,0.802-3.134,1.173-4.717
		c0.74-3.158,1.168-6.285-1.329-8.974c-0.759-0.818-0.555-1.853-0.647-2.836c-0.258-2.706-1.224-4.951-4.172-5.673
		c-0.812-0.2-1.128-0.732-1.507-1.39c-1.627-2.804-3.495-5.358-7.144-5.596c-1.001-0.065-1.307-0.899-1.728-1.557
		c-1.73-2.695-4.246-4.123-7.335-4.671c-0.51-0.091-1.136,0.176-1.486-0.408c-1.805-3.011-4.444-4.923-7.743-6.025
		c-0.796-0.266-0.862-1.121-1.067-1.798c-0.83-2.746-2.64-4.773-4.988-6.22c-1.316-0.812-2.128-1.6-1.853-3.191
		c0.017-0.088,0.003-0.181,0-0.272c-0.047-2.671-2.181-5.038-1.918-7.431c0.273-2.511,1.637-4.947,1.186-7.644
		c-0.188-1.108,0.263-1.866,0.977-2.648C262.346,37.762,243.919,31.688,244.062,35.072z"/>
	<path fill="#010101" d="M288.168,26.217c-1.757-0.439-4.622-0.65-16.149-0.65c-3.724,0-7.956,0.022-12.454,0.045
		c-5.079,0.025-10.5,0.052-15.911,0.052c-8.698,0-20.879-0.062-29.548-0.56c-13.884-10.093-29.878-15.481-47.578-16.016
		c-38.351-1.175-72.307,15.406-90.695,43.909c-6.215,5.908-17.906,12.479-21.066,13.181c-5.301,1.178-8.733,5.821-8.16,11.037
		c0.413,3.759,3.085,7.983,9.049,9.946c-0.688,0.677-1.344,1.388-1.955,2.123c-4.042,4.87-5.733,10.406-4.76,15.591
		c0.196,1.041,0.467,2.034,0.814,2.979c-8.744,14.884-13.342,31.777-13.342,49.148c0,4.385,0.294,8.752,0.881,13.074
		c-1.375-0.238-2.758-0.361-4.14-0.361c-6.651,0-12.816,2.885-16.912,7.914c-4.521,5.554-6.106,12.986-4.463,20.924
		c3.346,16.171,27.842,43.429,47.373,48.118c1.924,0.459,3.76,0.695,5.458,0.695c5.225,0,9.542-2.203,12.157-6.202
		c0.83-1.273,1.429-2.621,1.846-4.001c13.329,9.195,28.738,14.887,45.062,16.54c3.537,11.541,13.032,13.465,18.956,13.465
		c8.934,0,16.649-3.634,22.154-10.328c0.496,0.008,0.995,0.014,1.495,0.014c3.776,0,8.47-0.261,13.838-1.088
		c-17.186,19.285-42.01,30.381-60.293,30.386h-0.003c-7.707,0-18.055-1.964-23.619-11.32c-7.36-12.378-19.154-20.066-30.781-20.066
		c-12.215,0-20.701,8.622-21.115,21.454c-0.226,6.947,3.415,14.5,10.527,21.846c11.963,12.355,35.161,24.822,60.025,24.822
		c5.493,0,10.877-0.616,16.001-1.829c44.061-10.434,83.539-45.714,95.024-84.514c42.055-32.129,38.723-120.457,24.785-159.84
		c-0.966-2.734-2.012-5.41-3.134-8.024c1.698,0.195,3.372,0.294,5.023,0.294c3.853,0,7.604-0.541,11.155-1.606
		c21.861-6.558,31.737-22.786,31.53-31.688C295.137,30.979,292.358,27.265,288.168,26.217"/>
	<g>
		
			<ellipse transform="matrix(0.9724 0.2333 -0.2333 0.9724 39.1459 -19.0333)" fill="#FFFFFF" cx="100.024" cy="155.948" rx="46.71" ry="67.435"/>
		<g>
			<path fill="#ED7D2F" d="M75.253,143.077c2.52-0.196,5.793-4.986,8.097-8.969c0.004-0.008,0.01-0.018,0.015-0.025
				c-1.507,0.01-2.982,0.013-4.421,0.009C73.72,140.664,73.69,143.04,75.253,143.077z"/>
			<path fill="#ED7D2F" d="M99.581,138.343c-5.515,5.854-3.15,16.148,5.667,16.136c5.308-0.364,8.506-4.852,8.923-9.099
				c0.028-0.278,0.047-0.65,0.051-0.93C114.295,136.079,105.265,132.311,99.581,138.343z M104.438,153.482
				c-3.48-0.235-6.979-3.14-6.931-8.238l0.026-0.442c2.109,2.646,4.996,6.112,7.184,8.693
				C104.634,153.491,104.521,153.487,104.438,153.482z M110.357,151.268c-1.806,1.696-3.688,2.03-4.307,2.14
				c-0.149-2.401-0.27-5.607-0.377-8.01c1.427,1.682,3.384,3.877,4.839,5.535c0.03,0.026,0.07,0.062,0.099,0.088
				C110.536,151.094,110.435,151.195,110.357,151.268z M105.06,140.642c0.921-0.51,1.062-0.588,0.998-0.888
				c-0.052-0.24-0.249-0.279-0.421-0.209c-0.038,0.015-4.054,1.967-4.09,2.033c-0.119,0.224,0.03,0.48,0.127,0.498
				c0.163,0.028,0.184,0.031,1.013-0.299l2.274,2.78l0.273,5.968c-1.738-2.148-3.986-5.065-5.67-7.254
				c0.914-0.507,0.92-0.525,0.976-0.665c0.089-0.229-0.078-0.536-0.316-0.467c-0.907,0.264-1.616,0.912-2.47,1.276
				c1.058-3.996,3.892-6.643,7.58-7.083c1.143-0.078,1.925,0.019,2.99,0.371c-0.026,0.012-2.316,1.329,0.248,3.264
				c1.724,1.302,1.792,2.25,1.972,4.786l0.261,2.979C109.049,145.631,106.769,142.78,105.06,140.642z M113.287,145.059
				c-0.176,2.416-1.24,4.077-1.64,4.703c-0.192-3.115-0.158-6.241-0.454-9.352c-0.044-0.46-0.189-1.38-0.665-2.369
				c-0.013-0.026-0.03-0.061-0.043-0.087C113.195,140.4,113.405,143.456,113.287,145.059z"/>
			<path fill="#ED7D2F" d="M216.244,129.503c-13.565-12.165-22.92-19.638-36.37-22.423c-2.844-0.587-5.86-0.753-8.956-0.639
				c-7.112-13.607-16.157-24.095-26.044-29.693c-2.592,0.331-5.394,0.632-8.267,0.896c0.036-0.017,0.068-0.035,0.104-0.051
				c-6.521,0.01-12.966-1.245-19.16-4.533c-1.447,2.01-3.301,3.918-5.398,5.682c-0.157-0.004-0.326-0.005-0.479-0.01
				c-4.245-0.129-6.164-0.53-5.877-1.083c-8.274,2.92-15.954,6.907-22.883,11.751c-1.366-0.621-2.879-1.661-4.281-3.106
				c-0.135,0.106-0.263,0.221-0.398,0.328c1.179,1.103,2.116,2.533,2.751,4.175c-8.156,6.017-15.184,13.257-20.79,21.402
				c-1.107-0.475-2.105-1.125-2.968-1.943C48.872,123.865,44.021,139.857,44.021,157c0,7.983,1.065,15.713,3.025,23.077
				c0.419,0.346,0.855,0.755,1.3,1.198c0.011,0.041,0.02,0.077,0.031,0.118c2.848,8.733,2.848,8.733,4.824,12.913
				c4.208,8.028,4.208,8.028,6.838,11.837c5.445,7.24,5.445,7.24,8.655,10.599c1.028,0.995,1.882,1.82,2.627,2.54
				c0.376,0.805,0.698,1.51,0.942,2.066c0.165,0.377,0.351,0.854,0.542,1.403c14.378,13.299,33.11,21.954,53.829,23.551
				c-0.26-3.425-0.145-7.076-0.025-10.683c0.014-0.392,0.023-0.787,0.035-1.18c14.439-0.666,30.582-2,44.026-3.717
				c8.798-11.533,14.492-29.343,15.572-50.357c3.551-1.31,7.321-2.199,11.28-2.601c7.104-0.722,14.191,0.199,20.035,2.364
				c2.06-7.496,3.118-15.265,3.118-23.129C220.676,147.593,219.185,138.342,216.244,129.503z M132.343,124.011
				c1.79-0.128,3.583-0.262,5.386-0.405c0.159-0.052,0.231-0.071,0.447-0.104c2.708-0.282,2.642,3.481,2.537,4.026
				c-0.154,0.799-0.854,2.171-2.32,3.41c-2.35,0.182-4.701,0.355-7.047,0.52c0.004-0.016,0.006-0.028,0.01-0.043
				c-0.292,1.228-0.76,3.159-1.524,6.288c-2.519,10.304-4.868,20.221-5.926,28.295c-0.571,4.356-0.743,5.67,0.38,17.529
				c0.142,1.498,0.195,2.059,0.111,2.41c-0.122,0.506-0.5,0.832-1.012,1.012c-0.342,0.214-0.747,0.293-1.184,0.261
				c0.009-0.031,0.021-0.062,0.031-0.094c-1.441-0.012-3.184-0.682-3.904-1.711c-4.342-6.201-0.463-37.922,3.92-53.353
				c-2.357,0.143-4.704,0.279-7.025,0.401c-0.042-0.052-0.086-0.091-0.129-0.142c1.075,1.611,1.726,4.091,1.576,7.862
				c-0.383,9.607-8.493,24.437-17.388,19.608c-7.798-4.233-6.127-19.588,2.472-26.721c-3.061,0.112-6.061,0.205-8.972,0.274
				c-1.692,3.39-5.657,11.327-8.164,24.71c4.152-0.323,7.168,1.083,8.304,1.612c18.226,8.497,30.802,46.475,8.223,54.704
				c-26.292,9.584-56.091-23.056-41.73-56.374c0.234,0.349,0.547,0.812,0.781,1.161c-5.391,20.661,2.134,36.625,10.216,44.017
				c12.751,11.663,35.161,7.914,35.762-9.95c0.309-9.175-6.728-21.587-12.705-25.312c-4.523-2.82-7.102-1.921-8.47-0.67
				c-3.34,3.055,0.22,7.887-2.838,11.015c-3.482-0.062-8.653-3.625-4.15-26.795c-1.213,0.284-4.054,0.949-6.321-0.145
				c-4.17-2.012-3.615-9.443-0.636-16.446c-0.012,0.025-0.029,0.06-0.04,0.083c-0.416-0.01-0.827-0.022-1.233-0.034
				c-0.6-0.019-1.186-0.039-1.757-0.06c-2.508-0.304-0.514-5.761,1.72-7.447c0.527-0.398,1.066-0.601,1.601-0.603
				c0.029,0.001,0.066,0.003,0.094,0.006c0.269,0.011,0.524,0.019,0.782,0.027c1.138,0.034,2.321,0.061,3.529,0.082
				c2.302-2.859,4.978-5.013,7.744-5.704c2.544-0.172,2.865,2.667,2.885,4.817c11.311-0.105,24.449-0.632,37.787-1.265
				c5.722-5.755,2.577-13.702-2.742-18.895c-1.238-1.156-2.59-2.176-3.982-3.001c-0.019-0.05-0.036-0.1-0.056-0.149
				c-2.01-1.215-4.088-1.99-5.979-2.127c-4.25-0.309-7.935,1.558-8.912,3.464c-0.397,0.774-0.88,1.133-1.437,1.065
				c-3.08-0.377-2.963-3.872-0.562-5.867c0.614-0.51,4.015-3.083,10.654-3.627c4.796-0.073,8.853,1.984,12.104,4.937
				c3.458,2.796,6.296,6.712,7.881,11.479c-0.045-0.006-0.087-0.017-0.131-0.024c1.084,2.69,1.634,5.097,1.606,6.622"/>
		</g>
		<path fill="#ED7F23" d="M110.357,151.268c-1.806,1.696-3.688,2.03-4.307,2.14c-0.12-2.403-0.301-5.606-0.377-8.01
			c1.449,1.663,3.365,3.894,4.839,5.535c0.03,0.026,0.07,0.062,0.099,0.088C110.536,151.094,110.435,151.195,110.357,151.268
			 M104.438,153.482c-3.579-0.242-7.215-3.365-6.905-8.68c2.122,2.635,4.986,6.121,7.184,8.693
			C104.634,153.491,104.521,153.487,104.438,153.482 M113.287,145.059c-0.176,2.416-1.24,4.077-1.64,4.703
			c-0.545-10.579-0.545-10.579-1.163-11.808C113.195,140.4,113.405,143.456,113.287,145.059 M105.06,140.642
			c0.537-0.297,1.535-0.851,0.814-1.118c-0.233-0.086-4.214,1.933-4.252,1.954c-0.056,0.031-0.177,0.238-0.089,0.443
			c0.114,0.269,0.193,0.237,1.154-0.146l2.274,2.78l0.273,5.968c-1.718-2.164-4.008-5.048-5.67-7.254
			c0.569-0.316,1.521-0.844,0.814-1.121c-0.121-0.047-0.163-0.022-0.441,0.136c-0.51,0.292-1.473,0.826-2.184,1.13
			c1.393-5.26,6.036-8.209,10.569-6.712c-0.026,0.012-2.316,1.329,0.248,3.264c1.724,1.302,1.792,2.25,1.972,4.786l0.261,2.979
			C109.067,145.616,106.749,142.797,105.06,140.642 M114.171,145.38c0.505-5.142-2.92-10.378-8.823-9.979
			c-8.227,0.981-11.809,12.106-5.553,17.251C105.228,157.124,113.425,152.978,114.171,145.38"/>
	</g>
	<path fill="#025784" d="M59.789,207.738c-2.195-4.03-4.578-8.184-6.916-11.914C54.879,199.981,57.188,203.968,59.789,207.738"/>
	<path fill="#010101" d="M64.597,113.079L64.597,113.079c-5.525,0-9.615-3.502-10.672-9.142c-0.688-3.674,0.617-7.727,3.678-11.414
		c3.973-4.788,10.247-8.265,14.917-8.265c1.051,0,2.017,0.174,2.87,0.515c3.107,1.243,5.429,4.264,6.213,8.08
		c1.054,5.125-0.74,10.606-4.799,14.663C73.271,111.051,68.82,113.079,64.597,113.079 M72.521,89.331
		c-2.732,0-7.719,2.459-11.015,6.431c-1.205,1.452-3.142,4.322-2.595,7.242c0.776,4.137,3.519,5.005,5.687,5.005
		c2.847,0,6.068-1.524,8.623-4.077c2.848-2.849,4.125-6.608,3.417-10.058c-0.438-2.142-1.608-3.783-3.127-4.391
		C73.258,89.384,72.919,89.331,72.521,89.331"/>
	<g>
		<path fill="#FED208" d="M162.251,211.406c-0.028-0.106-0.05-0.21-0.078-0.318c-0.243-0.964-0.509-1.953-0.809-2.986
			c-2.511-9.04-14.45-27.021-23.569-27.021c-1.401,0-2.707,0.419-3.994,1.276c-7.985,5.323-6.374,14.956-3.001,29.045
			c0.835,3.483,1.696,7.087,2.216,10.451c0.671,4.377,0.51,9.268,0.353,13.993c-0.245,7.34-0.498,14.932,2.667,18.204
			c1.385,1.43,3.543,2.129,6.595,2.129c0.886,0,1.719-0.067,2.522-0.167c0.245-0.033,0.475-0.078,0.714-0.118
			c0.559-0.093,1.104-0.201,1.624-0.336c0.233-0.062,0.464-0.122,0.688-0.191c0.544-0.167,1.065-0.359,1.567-0.568
			c0.146-0.063,0.301-0.114,0.443-0.18c0.645-0.295,1.256-0.619,1.831-0.972c0.056-0.035,0.106-0.077,0.163-0.111
			c0.508-0.323,0.988-0.672,1.443-1.032c0.134-0.106,0.261-0.218,0.39-0.326c0.375-0.316,0.731-0.646,1.068-0.981
			c0.114-0.114,0.231-0.227,0.341-0.34c0.379-0.401,0.738-0.811,1.072-1.227c0.039-0.048,0.083-0.093,0.12-0.141
			c0.375-0.475,0.718-0.958,1.038-1.441c0.074-0.114,0.141-0.228,0.212-0.34c0.227-0.357,0.443-0.716,0.644-1.071
			c0.094-0.17,0.186-0.34,0.276-0.507c0.155-0.295,0.301-0.584,0.44-0.873c0.087-0.181,0.178-0.364,0.259-0.545
			c0.116-0.252,0.216-0.492,0.318-0.737c0.21-0.509,0.403-1.001,0.562-1.451c0.009-0.026,0.02-0.053,0.028-0.077
			c0.113-0.323,0.213-0.632,0.301-0.919c0.383-1.248,0.558-2.122,0.585-2.271c0.024-0.146,0.062-0.297,0.104-0.438
			c2.534-8.019,3.553-14.767,1.488-24.696C162.688,213.239,162.48,212.335,162.251,211.406"/>
		<path fill="#F6891F" d="M243.568,35.809c-10.095,0-24.554-0.084-33.521-0.811c-0.783-0.063-1.473-0.063-1.918-0.026
			c0.66,1.08,2.281,2.972,4.871,5.131l0.653,0.552c17.617,15.021,30.878,18.175,38.899,18.177h0.003
			c2.866,0,5.637-0.398,8.247-1.179c12.374-3.713,19.975-11.383,22.962-17.322c1.115-2.22,1.341-3.677,1.341-4.361
			c-1.683-0.171-6.062-0.257-13.051-0.257c-3.718,0-7.948,0.021-12.448,0.044C254.491,35.781,249.027,35.809,243.568,35.809"/>
		<path fill="#FED208" d="M24.11,184.031c-2.561,3.145-3.412,7.57-2.401,12.467c2.584,12.485,24.777,36.7,39.807,40.309
			c1.149,0.275,2.192,0.414,3.095,0.414c2.346,0,3.216-0.916,3.668-1.608c1.832-2.805,0.795-8.903-0.661-12.229
			c-4.163-9.513-17.351-34.449-24.017-39.578c-3.357-2.582-6.967-3.948-10.447-3.948C29.513,179.857,26.299,181.341,24.11,184.031"
			/>
		<path fill="#FED208" d="M58.91,103.003c0.776,4.136,3.521,5.005,5.687,5.005c2.847,0,6.068-1.524,8.623-4.077
			c2.848-2.849,4.126-6.608,3.417-10.057c-0.438-2.143-1.608-3.784-3.127-4.391c-0.251-0.1-0.59-0.153-0.989-0.153
			c-2.732,0-7.719,2.459-11.015,6.431C60.301,97.214,58.364,100.083,58.91,103.003"/>
		<path fill="#F6891F" d="M214.813,237.791c-5.07,3.027-10.036,5.439-14.802,7.327c-15.641,28.616-49.616,50.604-79.094,51.164
			c-15.227,0.249-27.024-5.49-33.433-16.267c-7.188-12.093-18.17-16.559-25.313-14.717c-4.789,1.233-7.534,5.225-7.728,11.246
			c-0.17,5.281,4.493,12.325,12.472,18.849c14.346,11.729,38.961,21.157,61.608,15.792
			C167.672,301.916,202.833,271.656,214.813,237.791"/>
		<path fill="#F6891F" d="M56.967,76.08c-0.236,0.051-0.31,0.133-0.313,0.133c0.027-0.008,0.175,0.275,0.736,0.655
			c1.028,0.693,5.217,2.646,16.56-0.384c-0.347-2.63-0.217-5.911,0.925-9.81C68.247,71.283,60.771,75.234,56.967,76.08"/>
		<path fill="#FED208" d="M241.108,80.087c-2.834-8.011-6.318-15.302-10.352-21.855c-6.061-2.953-12.878-7.311-20.394-13.717
			l-0.607-0.517c-8.309-6.921-7.162-10.083-6.785-11.125c0.3-0.831,0.833-1.482,1.57-1.97
			c-11.265-7.213-24.193-11.249-38.317-11.675c-35.1-1.063-65.861,13.872-82.306,39.952c-4.494,7.131-6.047,13.613-4.487,18.747
			c1.136,3.739,3.742,6.045,5.628,6.885c3.195,1.421,23.524-5.633,29.431-16.374c0.335-0.608,0.903-1.053,1.574-1.229
			c0.674-0.175,1.388-0.071,1.978,0.292c13.868,8.534,29.458,4.633,42.978,0.307c1.339-0.425,2.76,0.309,3.188,1.643
			c0.229,0.718,0.114,1.456-0.24,2.058c8.937-0.235,17.902,1.127,25.805,4.247c1.303,0.513,1.939,1.986,1.428,3.289
			c-0.516,1.303-1.99,1.945-3.291,1.427c-19.439-7.671-45.77-3.913-59.939,8.561c-4.862,4.276-6.973,8.407-5.944,11.633
			c1.055,3.312,5.367,5.918,10.731,6.482c4.031,0.418,10.166-0.939,16.665-2.382c10.018-2.225,21.374-4.745,31.481-2.651
			c16.382,3.39,27.249,13.216,43.696,28.092l2.006,1.811c1.038,0.938,1.117,2.542,0.181,3.582c-0.499,0.554-1.188,0.835-1.881,0.835
			c-0.576,0-1.144-0.208-1.613-0.601c1.623,6.905,2.457,13.993,2.457,21.167c0,8.602-1.194,17.1-3.527,25.284
			c2.611,1.479,4.807,3.251,6.38,5.29c0.857,1.106,0.65,2.698-0.456,3.553c-1.106,0.859-2.702,0.655-3.557-0.454
			c-4.381-5.668-15.534-8.972-26.555-7.859c-8.027,0.812-22.648,4.657-30.935,21.12c0.314,0.847,0.577,1.627,0.768,2.316
			c4.345,14.889,3.316,23.922,0.034,34.394c-0.323,1.765-0.948,3.871-1.887,6.066c11.161,0.034,30.857-2.418,51.818-16.851
			C257.517,202.534,254.024,116.585,241.108,80.087"/>
	</g>
	<path fill="#010101" d="M286.939,31.138c-1.229-0.307-4.145-0.497-14.884-0.497c-3.726,0-7.964,0.021-12.472,0.043
		c-5.111,0.026-10.567,0.053-16.016,0.053c-9.335,0-22.418-0.072-31.268-0.66c-13.109-9.867-28.675-15.396-45.926-15.919
		c-36.782-1.127-69.106,14.596-86.56,42.036c-6.714,6.625-19.613,13.972-23.948,14.935c-2.005,0.446-3.52,1.793-4.054,3.601
		c-0.537,1.831,0.04,3.834,1.545,5.357c1.375,1.391,4.243,3.127,9.979,3.127c3.085,0,7.015-0.512,11.975-1.842
		c1.863,4.224,5.072,6.91,7.688,8.073c6.247,2.774,26.55-5.274,34.55-16.384c6.193,3.288,12.638,4.543,19.16,4.533
		c-4.522,2.062-8.646,4.597-12.093,7.631c-8.285,7.291-8.611,13.258-7.425,16.979c1.682,5.284,7.584,9.204,15.031,9.988
		c4.85,0.513,11.078-0.874,18.294-2.475c9.521-2.112,20.312-4.504,29.357-2.636c13.449,2.784,22.802,10.257,36.369,22.422
		c2.94,8.839,4.432,18.09,4.432,27.498c0,7.864-1.059,15.633-3.118,23.129c-5.844-2.165-12.932-3.086-20.035-2.364
		c-14.029,1.42-25.823,8.789-33.003,20.406c-5.271-10.301-15.485-23.854-26.725-23.854c-2.74,0-5.345,0.812-7.743,2.412
		c-12.507,8.335-8.959,23.161-5.828,36.241c0.838,3.508,1.632,6.822,2.107,9.909c0.577,3.754,0.424,8.321,0.278,12.739
		c-0.292,8.749-0.592,17.799,4.564,23.132c2.69,2.778,6.544,4.188,11.458,4.188c10.162,0,16.733-5.297,20.672-11.212
		c0.898,0.032,1.85,0.057,2.887,0.057c6.539,0,15.761-0.821,26.374-4.059c-15.858,24.645-45.692,42.992-71.746,43.486
		c-9.343,0.203-22.006-2.071-28.975-13.789c-8.465-14.236-21.975-19.351-30.939-17.036c-7.059,1.818-11.261,7.648-11.53,15.993
		c-0.223,6.95,5,15.312,14.33,22.94c12.267,10.026,31.609,18.47,51.33,18.47c4.896,0,9.819-0.522,14.657-1.669
		c43.013-10.188,81.433-44.852,91.775-82.638c23.259-16.619,30.665-49.654,32.762-74.584c2.669-31.787-2.264-63.335-8.341-80.504
		c-2.146-6.068-4.667-11.72-7.485-17.002c5.649,1.895,10.407,2.51,14.151,2.51h0.003c3.359,0,6.621-0.469,9.701-1.393
		c19.783-5.935,28.061-20.562,27.92-26.713C290.122,33.372,288.908,31.631,286.939,31.138 M73.951,76.483
		c-11.343,3.032-15.532,1.08-16.56,0.385c-0.561-0.38-0.709-0.663-0.736-0.653c0.003,0,0.077-0.083,0.313-0.135
		c3.806-0.846,11.278-4.796,17.909-9.406C73.733,70.573,73.604,73.854,73.951,76.483 M161.385,238.817
		c-0.045,0.142-0.081,0.293-0.106,0.438c-0.124,0.689-3.187,16.919-18.646,16.919c-3.054,0-5.212-0.695-6.597-2.125
		c-3.166-3.272-2.914-10.864-2.668-18.204c0.157-4.726,0.32-9.616-0.353-13.993c-0.519-3.364-1.381-6.968-2.215-10.455
		c-3.373-14.085-4.983-23.718,3.001-29.041c1.287-0.857,2.593-1.276,3.994-1.276c9.121,0,21.057,17.981,23.569,27.02
		C165.287,221.553,164.399,229.275,161.385,238.817 M128.523,311.186c-22.646,5.365-47.262-4.065-61.609-15.792
		c-7.978-6.523-12.641-13.567-12.469-18.849c0.195-6.019,2.938-10.016,7.726-11.246c7.144-1.842,18.125,2.624,25.313,14.717
		c6.41,10.776,18.206,16.516,33.432,16.267c29.479-0.56,63.455-22.548,79.095-51.164c4.764-1.888,9.731-4.297,14.802-7.327
		C202.833,271.656,167.672,301.913,128.523,311.186 M241.108,80.087c12.916,36.499,16.408,122.447-23.277,149.772
		c-20.961,14.431-40.659,16.885-51.817,16.851c0.938-2.195,1.562-4.302,1.886-6.066c3.282-10.472,4.311-19.505-0.034-34.396
		c-0.19-0.687-0.453-1.467-0.768-2.313c8.285-16.463,22.909-20.309,30.935-21.123c11.021-1.109,22.174,2.194,26.555,7.862
		c0.854,1.109,2.452,1.313,3.557,0.454c1.108-0.854,1.313-2.446,0.456-3.553c-1.573-2.036-3.766-3.812-6.38-5.29
		c2.333-8.184,3.527-16.681,3.527-25.284c0-7.173-0.834-14.262-2.457-21.167c0.472,0.393,1.04,0.6,1.613,0.6
		c0.692,0,1.382-0.281,1.881-0.835c0.939-1.04,0.857-2.643-0.181-3.582l-2.003-1.811c-16.45-14.874-27.319-24.701-43.699-28.091
		c-10.107-2.094-21.463,0.426-31.481,2.651c-6.499,1.443-12.634,2.802-16.667,2.382c-5.361-0.562-9.673-3.168-10.729-6.482
		c-1.03-3.226,1.083-7.356,5.944-11.633c14.171-12.474,40.5-16.232,59.939-8.562c1.301,0.519,2.775-0.124,3.291-1.426
		c0.515-1.303-0.125-2.776-1.428-3.289c-7.902-3.12-16.869-4.481-25.804-4.247c0.354-0.601,0.469-1.34,0.24-2.058
		c-0.429-1.334-1.85-2.068-3.189-1.643c-13.52,4.326-29.109,8.227-42.977-0.307c-0.589-0.363-1.303-0.467-1.978-0.292
		c-0.671,0.176-1.239,0.622-1.573,1.229c-5.908,10.741-26.236,17.795-29.432,16.374c-1.887-0.84-4.493-3.146-5.628-6.885
		c-1.56-5.132-0.006-11.616,4.487-18.747c16.443-26.078,47.206-41.015,82.305-39.952c14.125,0.428,27.054,4.462,38.318,11.675
		c-0.737,0.488-1.271,1.138-1.573,1.972c-0.374,1.04-1.521,4.202,6.788,11.123l0.607,0.517c7.516,6.406,14.333,10.764,20.394,13.718
		C234.793,64.785,238.271,72.076,241.108,80.087 M283.766,40.331c-2.984,5.939-10.588,13.608-22.964,17.322
		c-2.606,0.781-5.382,1.179-8.245,1.179h-0.003c-8.021-0.001-21.282-3.155-38.899-18.176l-0.653-0.553
		c-2.59-2.159-4.211-4.051-4.869-5.131c0.445-0.036,1.136-0.036,1.916,0.026c8.967,0.727,23.426,0.811,33.521,0.811
		c5.456,0,10.923-0.027,16.042-0.053c4.497-0.023,8.728-0.044,12.445-0.044c6.989,0,11.368,0.085,13.051,0.257
		C285.106,36.654,284.881,38.111,283.766,40.331"/>
	<path fill="#010101" d="M112.203,55.009c-4.03,3.024-2.815,6.763,1.69,7.326c4.509,0.563,4.86,0.862,9.017-2.255
		c4.507-3.381,5.072-9.017,0-8.452C117.84,52.193,114.459,53.319,112.203,55.009"/>
	<path fill="#010101" d="M100.371,57.264c0,2.802-2.271,5.073-5.072,5.073c-2.799,0-5.07-2.271-5.07-5.073
		c0-2.8,2.271-5.071,5.07-5.071C98.099,52.192,100.371,54.463,100.371,57.264"/>
	<path fill="#010101" d="M158.974,43.178c0,2.802-2.27,5.072-5.071,5.072c-2.802,0-5.071-2.27-5.071-5.072
		c0-2.801,2.269-5.072,5.071-5.072C156.704,38.106,158.974,40.376,158.974,43.178"/>
	<path fill="#010101" d="M64.61,242.295L64.61,242.295c-1.3,0-2.74-0.189-4.275-0.558c-17.15-4.115-40.622-29.867-43.591-44.216
		c-1.327-6.413-0.109-12.344,3.431-16.69c3.128-3.84,7.86-6.045,12.979-6.045c4.606,0,9.291,1.729,13.542,5.002
		c8.349,6.424,22.514,34.576,25.568,41.561c1.272,2.909,3.794,11.632,0.26,17.04C71.358,240.171,69.039,242.295,64.61,242.295
		 M33.154,179.857c-3.641,0-6.854,1.483-9.044,4.174c-2.561,3.145-3.412,7.57-2.401,12.467
		c2.584,12.485,24.777,36.702,39.807,40.309c1.15,0.275,2.192,0.416,3.095,0.416c2.344,0,3.216-0.921,3.668-1.61
		c1.832-2.805,0.793-8.903-0.66-12.229c-4.162-9.513-17.351-34.449-24.018-39.578C40.246,181.224,36.633,179.857,33.154,179.857"/>
	<g>
		<g>
			<path fill="#377539" d="M220.418,169.37c2.264,0.452,36.23,5.435,36.23,5.435s1.032,84.212-94.137,78.563
				c0,0,12.163-34.632-0.517-50.031c0,0,9.512-34.419,57.519-23.098L220.418,169.37z"/>
			<path fill="#010101" d="M171.469,255.679c-2.944,0-5.998-0.093-9.079-0.275l-2.696-0.161l0.894-2.548
				c0.118-0.337,11.634-33.731-0.166-48.062l-0.673-0.818l0.282-1.021c0.074-0.269,7.822-26.877,41.364-26.877
				c5.073,0,10.541,0.613,16.281,1.824l0.901-10.817l2.241,0.449c1.749,0.35,24.396,3.695,36.126,5.417l1.721,0.252l0.021,1.739
				c0.018,1.381,0.144,34.094-23.201,57.725c-15.188,15.376-36.725,23.173-64.01,23.174
				C171.474,255.679,171.471,255.679,171.469,255.679z M165.268,251.469c2.103,0.088,4.18,0.134,6.202,0.134
				c0.001,0,0.002,0,0.005,0c26.155-0.002,46.717-7.39,61.111-21.963c19.198-19.434,21.666-46.095,21.979-53.08
				c-6.067-0.893-25.503-3.754-32.299-4.82l-0.918,11.026l-2.304-0.542c-6.277-1.481-12.216-2.231-17.65-2.231
				c-12.833,0-23.04,4.047-30.338,12.028c-4.137,4.524-6.088,9.029-6.783,10.926C174.596,216.956,167.816,243.13,165.268,251.469z"
				/>
		</g>
		<radialGradient id="SVGID_1_" cx="176.457" cy="219.9282" r="24.0769" gradientUnits="userSpaceOnUse">
			<stop  offset="0" style="stop-color:#FFF2AD"/>
			<stop  offset="1" style="stop-color:#FAA51A"/>
		</radialGradient>
		<path fill="url(#SVGID_1_)" d="M164.189,203.337c0,0,11.095,11.095,0.905,48.005c0,0,14.04,1.133,22.645-0.679
			c0,0,6.113-54.799-12.115-62.498C175.624,188.165,167.134,193.486,164.189,203.337z"/>
		<path fill="#93321F" d="M166.453,198.185c0,0,14.097,16.417,3.906,53.328c0,0,4.698,0.622,11.548-0.171
			c0,0,8.552-49.93-9.677-57.63C172.23,193.712,169.737,191.674,166.453,198.185z"/>
		<path fill="#010101" d="M219.448,182.256c0,0-0.114,0.039-0.329,0.112c-0.17,0.053-0.476,0.183-0.874,0.354
			c-0.39,0.19-0.879,0.403-1.409,0.721c-0.543,0.297-1.133,0.675-1.759,1.125c-0.631,0.438-1.275,0.979-1.939,1.569
			c-0.64,0.617-1.329,1.267-1.932,2.04c-0.673,0.722-1.198,1.595-1.795,2.449c-0.54,0.886-1.031,1.834-1.501,2.792
			c-0.364,1.001-0.858,1.972-1.125,3.001c-0.255,1.029-0.627,2.027-0.773,3.039c-0.165,1.014-0.323,1.993-0.472,2.922
			c-0.057,0.944-0.109,1.838-0.158,2.661c-0.024,0.415-0.048,0.812-0.071,1.189c0.015,0.378,0.028,0.736,0.04,1.072
			c0.025,0.677,0.048,1.265,0.065,1.749c0.036,0.975,0.057,1.53,0.057,1.53s-0.084-0.549-0.23-1.511
			c-0.074-0.483-0.163-1.069-0.266-1.742c-0.052-0.337-0.106-0.696-0.164-1.075c-0.021-0.382-0.044-0.783-0.067-1.202
			c-0.047-0.843-0.098-1.755-0.15-2.72c0.045-0.971,0.091-1.994,0.14-3.054c0.034-1.065,0.296-2.145,0.442-3.262
			c0.159-1.118,0.555-2.206,0.832-3.329c0.382-1.087,0.799-2.18,1.28-3.221c0.542-1.013,1.024-2.052,1.678-2.947
			c0.581-0.945,1.269-1.771,1.921-2.559c0.677-0.763,1.351-1.468,2.022-2.065c0.665-0.604,1.308-1.128,1.911-1.556
			c0.588-0.448,1.148-0.781,1.604-1.069c0.468-0.271,0.844-0.483,1.158-0.628c0.266-0.127,0.407-0.193,0.407-0.193L219.448,182.256z
			"/>
		<path fill="#010101" d="M214.779,181.267c0.014-0.002-0.24,0.064-0.513,0.165c-0.279,0.084-0.763,0.29-1.375,0.544
			c-0.595,0.303-1.354,0.615-2.154,1.125c-0.833,0.451-1.7,1.081-2.656,1.767c-0.476,0.345-0.916,0.774-1.406,1.179
			c-0.241,0.208-0.488,0.418-0.738,0.633c-0.226,0.238-0.457,0.479-0.692,0.725c-0.46,0.497-0.964,0.984-1.429,1.528
			c-0.435,0.57-0.881,1.151-1.333,1.744c-0.485,0.571-0.848,1.244-1.249,1.903c-0.382,0.67-0.831,1.318-1.18,2.03
			c-0.326,0.723-0.656,1.452-0.987,2.184l-0.501,1.104l-0.37,1.159c-0.488,1.548-1.057,3.085-1.299,4.685
			c-0.308,1.581-0.694,3.135-0.766,4.683c-0.113,1.538-0.349,3.028-0.348,4.451c0.008,1.424,0.015,2.772,0.022,4.017
			c-0.036,1.249,0.095,2.386,0.195,3.395c0.097,1.011,0.182,1.893,0.252,2.618c0.14,1.453,0.219,2.284,0.219,2.284
			s-0.144-0.821-0.393-2.26c-0.125-0.721-0.277-1.596-0.451-2.6c-0.18-1.005-0.396-2.138-0.458-3.396
			c-0.104-1.255-0.215-2.615-0.333-4.054c-0.109-1.442,0.011-2.97,0.008-4.555c-0.045-1.59,0.225-3.213,0.42-4.875
			c0.128-1.676,0.589-3.323,0.981-4.991l0.3-1.251l0.438-1.209c0.295-0.808,0.588-1.611,0.879-2.41
			c0.314-0.789,0.739-1.525,1.1-2.281c0.378-0.748,0.723-1.507,1.199-2.174c0.448-0.686,0.889-1.361,1.318-2.022
			c0.466-0.638,0.978-1.222,1.448-1.812c0.24-0.292,0.479-0.58,0.712-0.863c0.26-0.261,0.515-0.519,0.767-0.771
			c0.511-0.497,0.974-1.015,1.48-1.443c1.014-0.859,1.95-1.647,2.865-2.242c0.873-0.648,1.729-1.091,2.406-1.498
			c0.71-0.363,1.262-0.649,1.719-0.831c0.452-0.196,0.603-0.242,0.613-0.249L214.779,181.267z"/>
		<path fill="#010101" d="M208.119,180.028c0,0-0.235,0.095-0.675,0.271c-0.448,0.187-1.114,0.485-1.954,0.892
			c-1.672,0.824-4.055,2.09-6.71,3.932c-2.665,1.821-5.597,4.229-8.321,7.212c-1.337,1.509-2.673,3.124-3.813,4.912
			c-1.191,1.759-2.195,3.675-3.069,5.65c-0.394,1.005-0.842,1.995-1.136,3.035l-0.488,1.541l-0.371,1.564
			c-0.5,2.081-0.749,4.186-0.879,6.231c-0.1,2.047-0.071,4.04,0.109,5.922c0.043,0.947,0.191,1.854,0.326,2.736
			c0.143,0.88,0.225,1.742,0.432,2.546c0.358,1.617,0.663,3.111,1.084,4.396c0.38,1.296,0.693,2.435,1.055,3.336
			c0.666,1.828,1.045,2.872,1.045,2.872s-0.438-1.021-1.208-2.81c-0.414-0.884-0.793-2.005-1.25-3.285
			c-0.497-1.268-0.891-2.751-1.347-4.366c-0.255-0.802-0.389-1.667-0.585-2.553c-0.188-0.886-0.392-1.803-0.49-2.764
			c-0.294-1.909-0.442-3.948-0.46-6.065c0.013-2.115,0.146-4.316,0.542-6.519l0.296-1.661l0.418-1.645
			c0.249-1.111,0.654-2.179,1.014-3.264c0.801-2.138,1.751-4.232,2.905-6.171c1.106-1.969,2.423-3.766,3.753-5.452
			c2.715-3.338,5.685-6.075,8.407-8.174c2.712-2.121,5.172-3.617,6.932-4.613c0.886-0.493,1.594-0.861,2.095-1.104
			c0.515-0.242,0.789-0.371,0.789-0.371L208.119,180.028z"/>
	</g>
	<g>
		<g>
			<path fill="#377539" d="M174.49,72.505c0,0,12.359-3.473,40.852,3.969c0,0,21.797,0,17.946-19.333
				c0,0,32.818,7.588,27.025,92.836c-0.802,0-38.778-6.059-40.76-6.793c0,0-3.793-31.533-39.458-34.59
				C180.096,108.595,182.311,82.308,174.49,72.505z"/>
			<path fill="#010101" d="M262.217,152.016h-1.903c-0.229,0-38.916-5.974-41.469-6.921l-1.166-0.432l-0.149-1.235
				c-0.149-1.217-4.081-29.929-37.607-32.802l-2.027-0.174l0.17-2.028c0.021-0.254,2.057-25.593-5.167-34.647l-1.916-2.402
				l2.958-0.831c0.129-0.036,3.225-0.885,9.615-0.885c6.236,0,16.842,0.831,32.024,4.773c1.493-0.055,9.628-0.579,13.713-5.575
				c2.269-2.774,2.94-6.581,1.998-11.316l-0.617-3.094l3.074,0.71c1.41,0.326,34.443,8.968,28.599,94.959L262.217,152.016z
				 M221.326,141.521c5.654,1.16,29.81,5.044,37.095,6.138c3.998-65.343-15.139-82.884-22.663-87.217
				c0.216,4.36-0.896,8.053-3.325,11.013c-5.726,6.978-16.629,7.058-17.091,7.058l-0.515-0.066
				c-14.912-3.895-25.236-4.712-31.272-4.712c-2.414,0-4.3,0.128-5.677,0.279c5.13,9.719,4.702,26.883,4.381,32.754
				C213.03,110.408,220.043,135.271,221.326,141.521z"/>
		</g>
		<radialGradient id="SVGID_2_" cx="184.2646" cy="90.2236" r="13.2917" gradientUnits="userSpaceOnUse">
			<stop  offset="0" style="stop-color:#FFF2AD"/>
			<stop  offset="1" style="stop-color:#FAA51A"/>
		</radialGradient>
		<path fill="url(#SVGID_2_)" d="M177.607,73.61c0,0,5.604-1.246,5.889-0.906c5.837,6.984,10.242,27.853,5.262,35.099
			c0,0-3.566-0.68-6.509-0.962C182.071,106.823,183.835,85.498,177.607,73.61z"/>
		<radialGradient id="SVGID_3_" cx="194.1396" cy="91.4473" r="14.0624" gradientUnits="userSpaceOnUse">
			<stop  offset="0" style="stop-color:#FFF2AD"/>
			<stop  offset="1" style="stop-color:#FAA51A"/>
		</radialGradient>
		<path fill="url(#SVGID_3_)" d="M188.702,72.421c0,0,2.908-0.233,3.285,0c8.433,5.208,9.622,30.91,4.642,38.156
			c0,0-1.134-0.51-3.906-1.529C192.555,108.986,194.93,84.31,188.702,72.421z"/>
		<path fill="#93321F" d="M181.399,72.817c0,0,8.499-0.942,9.426-0.227c7.207,5.561,7.671,29.552,2.69,36.797
			c0,0-4.503-1.443-6.683-1.981C186.661,107.363,191.109,82.243,181.399,72.817z"/>
		<radialGradient id="SVGID_4_" cx="239.0229" cy="140.2368" r="15.4237" gradientUnits="userSpaceOnUse">
			<stop  offset="0" style="stop-color:#FFF2AD"/>
			<stop  offset="1" style="stop-color:#FAA51A"/>
		</radialGradient>
		<path fill="url(#SVGID_4_)" d="M218.537,132.761c-0.043-0.34,40.972,5.392,40.972,5.392l-0.934,9.575l-37.321-6.186
			C221.254,141.542,218.558,132.931,218.537,132.761z"/>
		<polygon fill="#93321F" points="217.072,129.619 259.722,135.988 258.915,144.352 220.248,138.281 		"/>
	</g>
	<g>
		<path fill="#E4AB38" d="M133.212,85.111c0.012,0.002,0.011-0.118,0.164-0.313c0.152-0.177,0.459-0.393,0.912-0.471
			c0.437-0.068,0.981-0.078,1.6,0.033c0.615,0.103,1.309,0.326,1.912,0.792c2.532,1.69,4.751,5.107,5.878,8.826
			c1.148,3.705,1.223,7.818-0.115,10.602c-0.297,0.709-0.798,1.267-1.327,1.628c-0.519,0.375-1.045,0.579-1.482,0.656
			c-0.439,0.084-0.783,0.033-1.007,0.012c-0.222-0.044-0.341-0.068-0.341-0.068s0.119-0.012,0.341-0.036
			c0.219-0.041,0.536-0.107,0.896-0.271c0.357-0.165,0.742-0.448,1.078-0.855c0.332-0.414,0.598-0.944,0.926-1.511
			c1.18-2.409,1.166-6.338,0.057-9.858c-1.062-3.542-3.215-6.791-5.471-8.279c-0.583-0.322-1.073-0.684-1.566-0.917
			c-0.49-0.228-0.962-0.348-1.354-0.387c-0.378-0.021-0.692,0.06-0.868,0.179C133.271,84.988,133.217,85.121,133.212,85.111z"/>
		<path fill="#01724F" d="M134.741,84.198c0,0,0.022-0.128,0.198-0.305c0.171-0.167,0.467-0.384,0.923-0.499
			c0.458-0.093,1.006-0.134,1.66-0.055c0.632,0.097,1.396,0.23,2.067,0.675c1.356,0.844,2.663,2.167,3.726,3.781
			c1.074,1.609,1.926,3.499,2.502,5.463c0.293,0.992,0.509,1.976,0.658,2.983c0.15,0.999,0.219,1.996,0.203,2.965
			c-0.029,1.933-0.415,3.769-1.195,5.187c-0.345,0.736-0.915,1.283-1.477,1.639c-0.562,0.363-1.113,0.553-1.567,0.633
			c-0.456,0.081-0.815,0.066-1.052,0.038c-0.238-0.02-0.362-0.046-0.362-0.046s0.127-0.009,0.357-0.057
			c0.231-0.035,0.562-0.135,0.945-0.298c0.383-0.17,0.807-0.451,1.192-0.859c0.186-0.212,0.374-0.44,0.531-0.713
			c0.16-0.267,0.386-0.509,0.539-0.824c0.675-1.219,1.045-2.903,1.07-4.715c0.016-0.907-0.049-1.851-0.191-2.799
			c-0.14-0.942-0.352-1.918-0.627-2.844c-1.071-3.746-3.337-7.201-5.79-8.654c-0.612-0.332-1.125-0.751-1.681-0.933
			c-0.532-0.208-1.06-0.316-1.471-0.32c-0.411,0.026-0.731,0.176-0.917,0.303C134.792,84.07,134.741,84.198,134.741,84.198z"/>
		<path fill="#01724F" d="M136.333,83.285c0,0,0.011-0.139,0.181-0.332c0.166-0.188,0.459-0.433,0.912-0.601
			c0.473-0.188,1.072-0.178,1.734-0.109c0.664,0.077,1.426,0.27,2.103,0.734c2.831,1.674,5.352,5.315,6.612,9.316
			c0.636,2,0.997,4.091,1.012,6.077c0.01,1.98-0.33,3.865-1.068,5.343c-0.332,0.758-0.869,1.351-1.432,1.74
			c-0.549,0.404-1.101,0.635-1.562,0.742c-0.461,0.117-0.833,0.095-1.076,0.095c-0.244-0.023-0.373-0.036-0.373-0.036
			s0.126-0.023,0.364-0.067c0.232-0.062,0.569-0.155,0.955-0.35c0.384-0.193,0.803-0.506,1.175-0.948
			c0.371-0.447,0.675-1.017,1.036-1.631c0.645-1.284,0.973-3.022,0.961-4.883c-0.014-1.864-0.357-3.862-0.964-5.772
			c-1.191-3.818-3.635-7.273-6.163-8.751c-0.649-0.313-1.199-0.682-1.756-0.885c-0.55-0.196-1.069-0.336-1.468-0.261
			c-0.417,0.062-0.746,0.188-0.937,0.32C136.383,83.155,136.333,83.285,136.333,83.285z"/>
		<path fill="#01724F" d="M138.52,82.181c0.009,0.005,0.057-0.117,0.243-0.291c0.181-0.173,0.526-0.386,1.006-0.456
			c0.474-0.075,1.045-0.105,1.724-0.004c0.667,0.092,1.43,0.295,2.104,0.771c2.84,1.693,5.409,5.362,6.625,9.424
			c1.227,4.038,1.328,8.504-0.129,11.526c-0.326,0.766-0.858,1.369-1.416,1.772c-0.546,0.417-1.098,0.662-1.562,0.777
			c-0.465,0.124-0.84,0.106-1.085,0.107c-0.245-0.022-0.376-0.035-0.376-0.035s0.128-0.024,0.367-0.068
			c0.235-0.062,0.575-0.16,0.96-0.359c0.386-0.199,0.802-0.521,1.171-0.975c0.369-0.456,0.665-1.04,1.024-1.664
			c1.297-2.642,1.255-6.936,0.071-10.784c-1.149-3.869-3.629-7.347-6.179-8.851c-0.652-0.331-1.211-0.695-1.768-0.917
			c-0.541-0.223-1.081-0.332-1.509-0.357c-0.43-0.026-0.765,0.055-0.97,0.17C138.612,82.078,138.523,82.191,138.52,82.181z"/>
		<path fill="#01724F" d="M140.791,81.184c0.009,0.005,0.068-0.112,0.268-0.272c0.195-0.162,0.548-0.351,1.028-0.418
			c0.474-0.07,1.062-0.091,1.741,0.032c0.672,0.108,1.426,0.355,2.091,0.853c2.786,1.813,5.265,5.535,6.502,9.613
			c1.249,4.058,1.371,8.556-0.083,11.603c-0.326,0.772-0.852,1.386-1.414,1.794c-0.549,0.422-1.104,0.67-1.57,0.788
			c-0.468,0.125-0.846,0.109-1.092,0.109c-0.247-0.023-0.379-0.035-0.379-0.035s0.129-0.023,0.369-0.069
			c0.236-0.062,0.578-0.161,0.966-0.362c0.387-0.202,0.805-0.529,1.175-0.986c0.186-0.228,0.359-0.488,0.51-0.781
			c0.155-0.287,0.366-0.564,0.516-0.899c1.297-2.667,1.235-6.989,0.027-10.864c-1.172-3.894-3.58-7.444-6.087-9.06
			c-0.645-0.356-1.196-0.739-1.747-0.978c-0.541-0.24-1.07-0.352-1.508-0.387c-0.433-0.028-0.776,0.029-0.993,0.131
			C140.894,81.09,140.794,81.193,140.791,81.184z"/>
		<path fill="#01724F" d="M143.317,80.228c0,0,0.1-0.084,0.309-0.215c0.227-0.129,0.602-0.242,1.109-0.197
			c0.444,0.043,1,0.129,1.656,0.326c0.305,0.115,0.661,0.191,0.986,0.365c0.326,0.176,0.648,0.391,0.979,0.62
			c1.336,0.902,2.682,2.232,3.821,3.865c1.16,1.621,2.05,3.575,2.64,5.604c1.128,4.048,1.202,8.459-0.204,11.482
			c-0.315,0.766-0.84,1.373-1.393,1.78c-0.541,0.42-1.091,0.666-1.553,0.782c-0.463,0.124-0.837,0.105-1.08,0.106
			c-0.245-0.023-0.375-0.035-0.375-0.035s0.128-0.024,0.366-0.068c0.233-0.062,0.572-0.158,0.956-0.357
			c0.382-0.199,0.795-0.522,1.158-0.975c0.363-0.457,0.648-1.042,1-1.668c1.256-2.642,1.235-6.916,0.146-10.767
			c-0.561-1.925-1.402-3.775-2.495-5.3c-1.073-1.538-2.335-2.781-3.563-3.609c-0.295-0.226-0.614-0.381-0.903-0.55
			c-0.273-0.203-0.551-0.354-0.806-0.521c-0.502-0.296-1.001-0.508-1.44-0.657c-0.381-0.13-0.728-0.158-0.954-0.114
			C143.44,80.18,143.317,80.228,143.317,80.228z"/>
		<path fill="#E4AB38" d="M144.952,79.718c0.006,0.005,0.086-0.101,0.301-0.245c0.212-0.139,0.553-0.337,1.051-0.404
			c0.548-0.047,1.035-0.025,1.761,0.12c0.672,0.156,1.438,0.366,2.11,0.876c2.82,1.784,5.613,5.397,6.938,9.561
			c0.353,1.026,0.587,2.111,0.769,3.149c0.176,1.061,0.271,2.109,0.285,3.135c0.028,2.044-0.287,3.989-0.998,5.535
			c-0.185,0.38-0.353,0.758-0.595,1.072c-0.25,0.307-0.531,0.563-0.8,0.787c-0.555,0.439-1.118,0.698-1.592,0.824
			c-0.476,0.131-0.861,0.119-1.112,0.119c-0.252-0.023-0.386-0.035-0.386-0.035s0.13-0.024,0.376-0.071
			c0.241-0.062,0.589-0.167,0.981-0.375c0.391-0.21,0.812-0.547,1.182-1.016c0.18-0.24,0.358-0.503,0.505-0.806
			c0.168-0.286,0.372-0.576,0.515-0.923c1.269-2.742,1.179-7.153-0.099-11.077c-1.249-3.954-3.938-7.398-6.517-9.02
			c-0.665-0.36-1.229-0.777-1.783-1.03c-0.505-0.246-1.144-0.43-1.524-0.464c-0.435-0.031-0.792,0.048-1.021,0.131
			C145.067,79.64,144.954,79.727,144.952,79.718z"/>
		<path fill="#01724F" d="M147.096,79.011c0.01,0.01,0.085-0.105,0.323-0.217c0.234-0.114,0.61-0.218,1.091-0.247
			c0.461-0.028,1.077-0.041,1.754,0.11c0.66,0.161,1.453,0.341,2.125,0.854c2.827,1.789,5.654,5.373,7.034,9.541
			c0.351,1.029,0.603,2.123,0.766,3.163c0.174,1.064,0.271,2.115,0.283,3.143c0.031,2.049-0.28,3.999-0.982,5.553
			c-0.182,0.383-0.354,0.761-0.59,1.08c-0.246,0.311-0.53,0.568-0.797,0.794c-0.555,0.443-1.119,0.706-1.595,0.832
			c-0.477,0.133-0.863,0.122-1.116,0.121c-0.252-0.023-0.387-0.036-0.387-0.036s0.131-0.024,0.377-0.071
			c0.242-0.063,0.589-0.167,0.983-0.377c0.392-0.211,0.813-0.55,1.182-1.023c0.179-0.243,0.355-0.506,0.502-0.81
			c0.167-0.287,0.372-0.58,0.511-0.929c0.621-1.366,0.924-3.181,0.893-5.121c-0.011-0.97-0.104-1.981-0.269-2.987
			c-0.164-1.032-0.393-2.021-0.728-3.011c-1.297-3.948-4.026-7.377-6.615-9.003c-0.671-0.355-1.219-0.796-1.793-1.038
			c-0.557-0.265-1.081-0.389-1.549-0.447c-0.451-0.064-0.811-0.062-1.047-0.007C147.212,78.924,147.099,79.024,147.096,79.011z"/>
		<path fill="#01724F" d="M149.249,78.473c0.009,0.012,0.085-0.106,0.329-0.207c0.24-0.106,0.619-0.188,1.1-0.207
			c0.227-0.007,0.516-0.013,0.796,0.002c0.282,0.001,0.588,0.021,0.941,0.098c0.692,0.137,1.46,0.32,2.166,0.796
			c0.703,0.455,1.447,0.975,2.131,1.635c0.701,0.641,1.369,1.387,1.991,2.208c1.235,1.647,2.302,3.599,2.958,5.697
			c0.339,1.034,0.584,2.138,0.746,3.177c0.165,1.069,0.26,2.121,0.27,3.151c0.03,2.053-0.272,4.006-0.959,5.571
			c-0.177,0.386-0.352,0.764-0.581,1.088c-0.243,0.314-0.525,0.575-0.792,0.806c-0.554,0.449-1.12,0.715-1.597,0.844
			c-0.479,0.134-0.866,0.124-1.12,0.123c-0.253-0.023-0.389-0.035-0.389-0.035s0.132-0.025,0.379-0.072
			c0.242-0.063,0.592-0.168,0.985-0.379c0.392-0.213,0.812-0.554,1.178-1.031c0.176-0.246,0.348-0.513,0.496-0.817
			c0.167-0.29,0.369-0.584,0.506-0.937c0.606-1.377,0.903-3.2,0.873-5.147c-0.009-0.974-0.102-1.99-0.257-3
			c-0.164-1.039-0.386-2.028-0.71-3.027c-0.619-1.987-1.634-3.838-2.8-5.394c-0.588-0.775-1.217-1.478-1.872-2.076
			c-0.64-0.619-1.326-1.098-1.968-1.511c-0.681-0.325-1.242-0.797-1.81-0.999c-0.266-0.133-0.558-0.224-0.839-0.289
			c-0.275-0.084-0.503-0.114-0.743-0.154c-0.453-0.074-0.814-0.087-1.052-0.039C149.365,78.386,149.251,78.488,149.249,78.473z"/>
		<path fill="#01724F" d="M151.143,78.02c0,0,0.094-0.105,0.344-0.191c0.245-0.087,0.625-0.151,1.106-0.171
			c0.472-0.013,1.065-0.013,1.734,0.047c0.7,0.125,1.496,0.271,2.236,0.693c0.73,0.435,1.482,0.957,2.194,1.601
			c0.732,0.622,1.401,1.38,2.064,2.182c1.282,1.639,2.378,3.602,3.073,5.713c0.33,1.054,0.591,2.16,0.738,3.217
			c0.152,1.082,0.245,2.14,0.257,3.179c0.027,2.07-0.252,4.037-0.914,5.627c-0.17,0.394-0.35,0.771-0.562,1.11
			c-0.243,0.32-0.514,0.594-0.784,0.829c-0.549,0.467-1.123,0.74-1.603,0.874c-0.484,0.139-0.875,0.13-1.131,0.128
			c-0.255-0.023-0.392-0.035-0.392-0.035s0.133-0.025,0.382-0.073c0.244-0.063,0.598-0.17,0.992-0.386
			c0.393-0.22,0.816-0.565,1.172-1.056c0.18-0.245,0.335-0.529,0.489-0.83c0.171-0.292,0.36-0.599,0.496-0.956
			c0.588-1.405,0.864-3.25,0.836-5.221c-0.011-0.984-0.102-2.015-0.245-3.036c-0.146-1.048-0.387-2.049-0.7-3.055
			c-1.3-3.994-4.164-7.425-6.875-8.909c-0.655-0.402-1.263-0.773-1.832-0.991c-0.615-0.217-1.172-0.31-1.642-0.37
			c-0.461-0.069-0.828-0.078-1.075-0.042C151.257,77.935,151.143,78.02,151.143,78.02z"/>
		<path fill="#01724F" d="M153.351,77.539c0.004,0.007,0.111-0.081,0.353-0.17c0.247-0.098,0.624-0.168,1.109-0.199
			c0.478-0.02,1.07-0.025,1.747,0.045c0.704,0.119,1.494,0.274,2.244,0.691c0.731,0.437,1.494,0.951,2.209,1.597
			c0.739,0.622,1.41,1.385,2.078,2.19c0.624,0.838,1.252,1.723,1.747,2.704c0.528,0.963,0.939,2.003,1.291,3.061
			c0.658,2.141,0.913,4.347,0.949,6.425c0.021,2.076-0.243,4.048-0.89,5.65c-0.17,0.397-0.345,0.776-0.55,1.121
			c-0.241,0.325-0.507,0.605-0.779,0.842c-0.543,0.478-1.122,0.754-1.604,0.891c-0.485,0.141-0.878,0.134-1.135,0.131
			c-0.257-0.022-0.394-0.035-0.394-0.035s0.133-0.025,0.384-0.073c0.245-0.064,0.599-0.172,0.994-0.391
			c0.393-0.222,0.815-0.569,1.167-1.067c0.181-0.244,0.327-0.537,0.482-0.837c0.174-0.292,0.352-0.607,0.489-0.964
			c0.577-1.419,0.838-3.274,0.816-5.256c-0.032-1.98-0.284-4.124-0.902-6.13c-0.333-0.997-0.72-1.98-1.22-2.889
			c-0.467-0.927-1.061-1.761-1.647-2.551c-0.629-0.756-1.259-1.477-1.948-2.054c-0.672-0.597-1.364-1.094-2.046-1.457
			c-0.665-0.387-1.274-0.776-1.85-0.983c-0.61-0.223-1.172-0.319-1.642-0.37C153.872,77.308,153.351,77.54,153.351,77.539z"/>
		<path fill="#E4AB38" d="M155.957,77.171c0.004,0.009,0.108-0.079,0.353-0.154c0.246-0.083,0.619-0.145,1.095-0.164
			c0.478-0.001,1.051-0.029,1.718,0.068c0.35,0.052,0.72,0.129,1.08,0.251c0.377,0.099,0.753,0.254,1.11,0.479
			c0.704,0.454,1.449,0.971,2.128,1.635c0.701,0.639,1.347,1.402,1.963,2.224c0.596,0.836,1.166,1.736,1.631,2.708
			c0.483,0.962,0.873,1.987,1.193,3.03c0.615,2.102,0.893,4.264,0.927,6.307c0.029,2.04-0.229,3.975-0.845,5.553
			c-0.154,0.393-0.328,0.766-0.52,1.107c-0.224,0.326-0.487,0.601-0.739,0.845c-0.52,0.48-1.064,0.783-1.527,0.946
			c-0.467,0.169-0.852,0.19-1.104,0.207c-0.253-0.004-0.389-0.006-0.389-0.006s0.129-0.036,0.371-0.102
			c0.234-0.082,0.572-0.215,0.946-0.456c0.372-0.243,0.765-0.612,1.096-1.113c0.165-0.252,0.31-0.537,0.45-0.842
			c0.165-0.291,0.341-0.602,0.467-0.957c0.549-1.402,0.806-3.222,0.774-5.168c-0.029-1.945-0.301-4.043-0.884-6.028
			c-0.304-0.991-0.673-1.962-1.131-2.872c-0.439-0.921-0.979-1.769-1.54-2.557c-1.142-1.559-2.488-2.807-3.794-3.572
			c-0.658-0.35-1.234-0.799-1.798-0.984c-0.585-0.237-1.152-0.334-1.601-0.398C156.476,76.978,155.957,77.172,155.957,77.171z"/>
	</g>
	<g>
		<path fill="#DE4931" d="M114.893,40.003c0,0,0.095,0.17,0.236,0.473c0.069,0.151,0.154,0.336,0.238,0.546
			c0.117,0.187,0.245,0.385,0.358,0.598c0.123,0.21,0.325,0.386,0.468,0.594c0.204,0.137,0.382,0.31,0.601,0.363
			c0.095,0.06,0.21,0.067,0.323,0.077l0.165,0.026l0.185-0.022c0.121-0.003,0.244-0.017,0.378-0.068
			c0.131-0.043,0.264-0.052,0.396-0.133c0.273-0.102,0.533-0.263,0.798-0.424c0.247-0.185,0.515-0.353,0.738-0.565
			c0.232-0.203,0.462-0.399,0.653-0.619c0.209-0.205,0.375-0.424,0.546-0.624c0.178-0.197,0.295-0.403,0.43-0.579
			c0.133-0.177,0.237-0.34,0.312-0.482c0.166-0.278,0.278-0.447,0.278-0.447s0.022,0.187,0.029,0.531
			c0.006,0.173,0.006,0.385-0.048,0.616c-0.045,0.233-0.071,0.517-0.188,0.788c-0.099,0.28-0.2,0.597-0.385,0.887
			c-0.157,0.31-0.358,0.618-0.605,0.911c-0.232,0.304-0.534,0.574-0.849,0.837c-0.33,0.253-0.692,0.479-1.105,0.648
			c-0.191,0.101-0.429,0.14-0.648,0.198c-0.216,0.069-0.456,0.077-0.698,0.072l-0.355-0.005c-0.119-0.025-0.238-0.059-0.355-0.091
			c-0.236-0.06-0.462-0.131-0.651-0.279c-0.429-0.225-0.662-0.596-0.9-0.906c-0.157-0.342-0.31-0.661-0.365-0.971
			c-0.058-0.31-0.085-0.592-0.107-0.831c0.006-0.229,0.035-0.431,0.051-0.597C114.856,40.195,114.893,40.003,114.893,40.003z"/>
	</g>
	<g>
		<path fill="#010101" d="M206.356,25.296c1.351,4.456,1.07,6.067-2.863,8.978c-13.788,4.648-46.705,3.605-59.442,2.369
			c-22.054-2.142-27.647-8.555-29.865-15.119C137.485,6.987,197.604,8.799,206.356,25.296z"/>
		<path fill="#010101" d="M120.389,25.296c0,9.667-12.059,19.394-30.16,19.394c2.873-9.058,10.515-11.076,12.723-15.059
			C113.99,23.645,120.389,15.631,120.389,25.296z"/>
	</g>
	<g>
		<path fill="#C77929" d="M270.543,51.926c-0.037,0.505-0.306,0.897-0.597,0.875c-0.295-0.022-0.499-0.45-0.462-0.955
			c0.037-0.506,0.305-0.898,0.6-0.876C270.373,50.992,270.58,51.42,270.543,51.926z"/>
		<path fill="#FCB116" d="M280.526,59.182c0.4,1.293,0.56,2.683,0.395,4.112c-0.64,5.507-5.642,9.467-11.147,8.827
			c-5.509-0.64-9.466-5.641-8.829-11.147c0.563-4.819,4.459-8.453,9.116-8.858l0.104-0.523c-4.96,0.36-9.14,4.202-9.734,9.32
			c-0.674,5.792,3.492,11.052,9.282,11.725c5.793,0.673,11.053-3.492,11.727-9.284c0.176-1.514,0.006-2.986-0.424-4.354
			C280.863,59.081,280.701,59.144,280.526,59.182z"/>
		
			<radialGradient id="SVGID_5_" cx="285.5386" cy="123.0771" r="1.6907" gradientTransform="matrix(0.988 0.1543 -0.1543 0.988 3.2617 -113.1846)" gradientUnits="userSpaceOnUse">
			<stop  offset="0" style="stop-color:#FFF2AD"/>
			<stop  offset="1" style="stop-color:#FAA51A"/>
		</radialGradient>
		<circle fill="url(#SVGID_5_)" cx="266.383" cy="52.474" r="1.691"/>
		
			<radialGradient id="SVGID_6_" cx="282.0703" cy="127.1807" r="1.6904" gradientTransform="matrix(0.988 0.1543 -0.1543 0.988 3.2617 -113.1846)" gradientUnits="userSpaceOnUse">
			<stop  offset="0" style="stop-color:#FFF2AD"/>
			<stop  offset="1" style="stop-color:#FAA51A"/>
		</radialGradient>
		<circle fill="url(#SVGID_6_)" cx="262.324" cy="55.994" r="1.691"/>
		
			<radialGradient id="SVGID_7_" cx="281.2041" cy="132.6699" r="1.6897" gradientTransform="matrix(0.988 0.1543 -0.1543 0.988 3.2617 -113.1846)" gradientUnits="userSpaceOnUse">
			<stop  offset="0" style="stop-color:#FFF2AD"/>
			<stop  offset="1" style="stop-color:#FAA51A"/>
		</radialGradient>
		<circle fill="url(#SVGID_7_)" cx="260.621" cy="61.284" r="1.689"/>
		
			<radialGradient id="SVGID_8_" cx="282.8813" cy="137.6396" r="1.6909" gradientTransform="matrix(0.988 0.1543 -0.1543 0.988 3.2617 -113.1846)" gradientUnits="userSpaceOnUse">
			<stop  offset="0" style="stop-color:#FFF2AD"/>
			<stop  offset="1" style="stop-color:#FAA51A"/>
		</radialGradient>
		<circle fill="url(#SVGID_8_)" cx="261.511" cy="66.452" r="1.691"/>
		
			<radialGradient id="SVGID_9_" cx="287.042" cy="141.1064" r="1.6897" gradientTransform="matrix(0.988 0.1543 -0.1543 0.988 3.2617 -113.1846)" gradientUnits="userSpaceOnUse">
			<stop  offset="0" style="stop-color:#FFF2AD"/>
			<stop  offset="1" style="stop-color:#FAA51A"/>
		</radialGradient>
		<path fill="url(#SVGID_9_)" d="M266.756,70.78c-0.143,0.922-1.008,1.552-1.929,1.409c-0.923-0.144-1.556-1.008-1.409-1.931
			c0.141-0.921,1.009-1.553,1.93-1.408C266.268,68.993,266.899,69.858,266.756,70.78z"/>
		
			<radialGradient id="SVGID_10_" cx="292.4165" cy="141.9736" r="1.6902" gradientTransform="matrix(0.988 0.1543 -0.1543 0.988 3.2617 -113.1846)" gradientUnits="userSpaceOnUse">
			<stop  offset="0" style="stop-color:#FFF2AD"/>
			<stop  offset="1" style="stop-color:#FAA51A"/>
		</radialGradient>
		<circle fill="url(#SVGID_10_)" cx="270.263" cy="72.205" r="1.691"/>
		
			<radialGradient id="SVGID_11_" cx="297.5576" cy="140.2393" r="1.6909" gradientTransform="matrix(0.988 0.1543 -0.1543 0.988 3.2617 -113.1846)" gradientUnits="userSpaceOnUse">
			<stop  offset="0" style="stop-color:#FFF2AD"/>
			<stop  offset="1" style="stop-color:#FAA51A"/>
		</radialGradient>
		<path fill="url(#SVGID_11_)" d="M277.281,71.546c-0.144,0.923-1.01,1.554-1.933,1.409c-0.918-0.144-1.552-1.008-1.409-1.931
			c0.146-0.922,1.012-1.552,1.932-1.409C276.795,69.76,277.427,70.624,277.281,71.546z"/>
		
			<radialGradient id="SVGID_12_" cx="301.084" cy="136.0215" r="1.6899" gradientTransform="matrix(0.988 0.1543 -0.1543 0.988 3.2617 -113.1846)" gradientUnits="userSpaceOnUse">
			<stop  offset="0" style="stop-color:#FFF2AD"/>
			<stop  offset="1" style="stop-color:#FAA51A"/>
		</radialGradient>
		<circle fill="url(#SVGID_12_)" cx="279.745" cy="67.662" r="1.691"/>
		
			<radialGradient id="SVGID_13_" cx="301.8926" cy="130.7627" r="1.6904" gradientTransform="matrix(0.988 0.1543 -0.1543 0.988 3.2617 -113.1846)" gradientUnits="userSpaceOnUse">
			<stop  offset="0" style="stop-color:#FFF2AD"/>
			<stop  offset="1" style="stop-color:#FAA51A"/>
		</radialGradient>
		<circle fill="url(#SVGID_13_)" cx="281.355" cy="62.591" r="1.691"/>
		
			<radialGradient id="SVGID_14_" cx="283.5454" cy="124.8975" r="1.0833" gradientTransform="matrix(0.988 0.1543 -0.1543 0.988 3.2617 -113.1846)" gradientUnits="userSpaceOnUse">
			<stop  offset="0" style="stop-color:#52B848"/>
			<stop  offset="1" style="stop-color:#318C42"/>
		</radialGradient>
		<circle fill="url(#SVGID_14_)" cx="264.133" cy="53.965" r="1.084"/>
		
			<radialGradient id="SVGID_15_" cx="281.3774" cy="129.8667" r="1.0835" gradientTransform="matrix(0.988 0.1543 -0.1543 0.988 3.2617 -113.1846)" gradientUnits="userSpaceOnUse">
			<stop  offset="0" style="stop-color:#52B848"/>
			<stop  offset="1" style="stop-color:#318C42"/>
		</radialGradient>
		<circle fill="url(#SVGID_15_)" cx="261.225" cy="58.54" r="1.083"/>
		
			<radialGradient id="SVGID_16_" cx="281.7842" cy="135.2402" r="1.084" gradientTransform="matrix(0.988 0.1543 -0.1543 0.988 3.2617 -113.1846)" gradientUnits="userSpaceOnUse">
			<stop  offset="0" style="stop-color:#52B848"/>
			<stop  offset="1" style="stop-color:#318C42"/>
		</radialGradient>
		<circle fill="url(#SVGID_16_)" cx="260.797" cy="63.913" r="1.084"/>
		
			<radialGradient id="SVGID_17_" cx="284.6738" cy="139.7773" r="1.0837" gradientTransform="matrix(0.988 0.1543 -0.1543 0.988 3.2617 -113.1846)" gradientUnits="userSpaceOnUse">
			<stop  offset="0" style="stop-color:#52B848"/>
			<stop  offset="1" style="stop-color:#318C42"/>
		</radialGradient>
		<circle fill="url(#SVGID_17_)" cx="262.952" cy="68.841" r="1.084"/>
		
			<radialGradient id="SVGID_18_" cx="289.6704" cy="142.0024" r="1.0835" gradientTransform="matrix(0.988 0.1543 -0.1543 0.988 3.2617 -113.1846)" gradientUnits="userSpaceOnUse">
			<stop  offset="0" style="stop-color:#52B848"/>
			<stop  offset="1" style="stop-color:#318C42"/>
		</radialGradient>
		<path fill="url(#SVGID_18_)" d="M268.616,71.977c-0.093,0.591-0.645,0.996-1.236,0.904s-0.998-0.647-0.905-1.237
			c0.093-0.593,0.647-0.996,1.236-0.904C268.306,70.832,268.709,71.386,268.616,71.977z"/>
		
			<radialGradient id="SVGID_19_" cx="295.1606" cy="141.5972" r="1.083" gradientTransform="matrix(0.988 0.1543 -0.1543 0.988 3.2617 -113.1846)" gradientUnits="userSpaceOnUse">
			<stop  offset="0" style="stop-color:#52B848"/>
			<stop  offset="1" style="stop-color:#318C42"/>
		</radialGradient>
		<path fill="url(#SVGID_19_)" d="M274.102,72.425c-0.09,0.59-0.645,0.995-1.237,0.903c-0.591-0.092-0.994-0.646-0.901-1.237
			c0.09-0.592,0.645-0.997,1.236-0.904C273.791,71.278,274.194,71.834,274.102,72.425z"/>
		
			<radialGradient id="SVGID_20_" cx="299.5537" cy="138.3325" r="1.0837" gradientTransform="matrix(0.988 0.1543 -0.1543 0.988 3.2617 -113.1846)" gradientUnits="userSpaceOnUse">
			<stop  offset="0" style="stop-color:#52B848"/>
			<stop  offset="1" style="stop-color:#318C42"/>
		</radialGradient>
		<path fill="url(#SVGID_20_)" d="M278.947,69.877c-0.093,0.591-0.647,0.995-1.239,0.902s-0.995-0.646-0.902-1.237
			c0.09-0.592,0.645-0.997,1.236-0.904C278.634,68.73,279.038,69.285,278.947,69.877z"/>
		
			<radialGradient id="SVGID_21_" cx="301.748" cy="133.4209" r="1.084" gradientTransform="matrix(0.988 0.1543 -0.1543 0.988 3.2617 -113.1846)" gradientUnits="userSpaceOnUse">
			<stop  offset="0" style="stop-color:#52B848"/>
			<stop  offset="1" style="stop-color:#318C42"/>
		</radialGradient>
		<circle fill="url(#SVGID_21_)" cx="280.802" cy="65.195" r="1.085"/>
		
			<radialGradient id="SVGID_22_" cx="301.1992" cy="128.249" r="1.083" gradientTransform="matrix(0.988 0.1543 -0.1543 0.988 3.2617 -113.1846)" gradientUnits="userSpaceOnUse">
			<stop  offset="0" style="stop-color:#52B848"/>
			<stop  offset="1" style="stop-color:#318C42"/>
		</radialGradient>
		<circle fill="url(#SVGID_22_)" cx="281.058" cy="60" r="1.084"/>
	</g>
	<g>
		
			<radialGradient id="SVGID_23_" cx="113.9541" cy="83.9482" r="2.0049" gradientTransform="matrix(0.998 0.0639 -0.0639 0.998 17.5054 -16.8066)" gradientUnits="userSpaceOnUse">
			<stop  offset="0" style="stop-color:#FFF2AD"/>
			<stop  offset="1" style="stop-color:#FAA51A"/>
		</radialGradient>
		<circle fill="url(#SVGID_23_)" cx="125.867" cy="74.257" r="2.005"/>
		
			<radialGradient id="SVGID_24_" cx="114.4883" cy="87.3516" r="2.0056" gradientTransform="matrix(0.998 0.0639 -0.0639 0.998 17.5054 -16.8066)" gradientUnits="userSpaceOnUse">
			<stop  offset="0" style="stop-color:#FFF2AD"/>
			<stop  offset="1" style="stop-color:#FAA51A"/>
		</radialGradient>
		<circle fill="url(#SVGID_24_)" cx="126.183" cy="77.687" r="2.005"/>
		<g>
			<path fill="#FCB116" d="M133.451,62.011c-0.628-3.76-3.792-3.374-3.924-3.357l-0.04-0.288c0.035-0.004,3.577-0.447,4.251,3.598
				L133.451,62.011z"/>
		</g>
		<g>
			<path fill="#FCB116" d="M133.77,61.594c-0.627-3.761-3.79-3.375-3.925-3.357l-0.04-0.289c0.037-0.005,3.577-0.447,4.252,3.597
				L133.77,61.594z"/>
		</g>
		<g>
			<path fill="#FCB116" d="M130.569,59.406l-0.258-0.138c0.984-1.844,0.963-3.225-0.065-4.102c-1.625-1.385-5.103-1.025-5.455-0.758
				l-0.176-0.232c0.495-0.375,4.088-0.71,5.821,0.768C131.583,55.924,131.628,57.424,130.569,59.406z"/>
		</g>
		<g>
			<path fill="#FCB116" d="M130.101,59.475l-0.256-0.139c0.756-1.387,0.889-2.498,0.396-3.304c-0.685-1.122-2.621-1.699-5.448-1.622
				c-0.141,0.004-0.155,0.004-0.186-0.005l0.044-0.139l0.014-0.145c0.016,0,0.057-0.001,0.119-0.003
				c2.937-0.078,4.963,0.547,5.706,1.761C131.042,56.781,130.912,57.99,130.101,59.475z"/>
		</g>
		
			<radialGradient id="SVGID_25_" cx="121.1729" cy="77.5317" r="2.5889" gradientTransform="matrix(0.998 0.0639 -0.0639 0.998 17.5054 -16.8066)" gradientUnits="userSpaceOnUse">
			<stop  offset="0" style="stop-color:#FFF2AD"/>
			<stop  offset="1" style="stop-color:#FAA51A"/>
		</radialGradient>
		<circle fill="url(#SVGID_25_)" cx="133.481" cy="68.313" r="2.589"/>
		
			<radialGradient id="SVGID_26_" cx="109.7256" cy="62.1445" r="2.0056" gradientTransform="matrix(0.998 0.0639 -0.0639 0.998 17.5054 -16.8066)" gradientUnits="userSpaceOnUse">
			<stop  offset="0" style="stop-color:#FFF2AD"/>
			<stop  offset="1" style="stop-color:#FAA51A"/>
		</radialGradient>
		<circle fill="url(#SVGID_26_)" cx="123.04" cy="52.225" r="2.006"/>
		
			<radialGradient id="SVGID_27_" cx="113.6636" cy="61.415" r="2.0056" gradientTransform="matrix(0.998 0.0639 -0.0639 0.998 17.5054 -16.8066)" gradientUnits="userSpaceOnUse">
			<stop  offset="0" style="stop-color:#FFF2AD"/>
			<stop  offset="1" style="stop-color:#FAA51A"/>
		</radialGradient>
		<circle fill="url(#SVGID_27_)" cx="127.017" cy="51.75" r="2.006"/>
		
			<radialGradient id="SVGID_28_" cx="117.5278" cy="62.1445" r="2.0061" gradientTransform="matrix(0.998 0.0639 -0.0639 0.998 17.5054 -16.8066)" gradientUnits="userSpaceOnUse">
			<stop  offset="0" style="stop-color:#FFF2AD"/>
			<stop  offset="1" style="stop-color:#FAA51A"/>
		</radialGradient>
		<circle fill="url(#SVGID_28_)" cx="130.827" cy="52.724" r="2.006"/>
		
			<radialGradient id="SVGID_29_" cx="120.1533" cy="65.2803" r="2.0049" gradientTransform="matrix(0.998 0.0639 -0.0639 0.998 17.5054 -16.8066)" gradientUnits="userSpaceOnUse">
			<stop  offset="0" style="stop-color:#FFF2AD"/>
			<stop  offset="1" style="stop-color:#FAA51A"/>
		</radialGradient>
		<circle fill="url(#SVGID_29_)" cx="133.247" cy="56.021" r="2.005"/>
		
			<radialGradient id="SVGID_30_" cx="111.1826" cy="67.0303" r="2.0054" gradientTransform="matrix(0.998 0.0639 -0.0639 0.998 17.5054 -16.8066)" gradientUnits="userSpaceOnUse">
			<stop  offset="0" style="stop-color:#FFF2AD"/>
			<stop  offset="1" style="stop-color:#FAA51A"/>
		</radialGradient>
		<circle fill="url(#SVGID_30_)" cx="124.182" cy="57.195" r="2.005"/>
		
			<radialGradient id="SVGID_31_" cx="114.0273" cy="69.7285" r="2.0046" gradientTransform="matrix(0.998 0.0639 -0.0639 0.998 17.5054 -16.8066)" gradientUnits="userSpaceOnUse">
			<stop  offset="0" style="stop-color:#FFF2AD"/>
			<stop  offset="1" style="stop-color:#FAA51A"/>
		</radialGradient>
		<circle fill="url(#SVGID_31_)" cx="126.849" cy="60.07" r="2.005"/>
		
			<radialGradient id="SVGID_32_" cx="122.9961" cy="76.3647" r="2.0054" gradientTransform="matrix(0.998 0.0639 -0.0639 0.998 17.5054 -16.8066)" gradientUnits="userSpaceOnUse">
			<stop  offset="0" style="stop-color:#FFF2AD"/>
			<stop  offset="1" style="stop-color:#FAA51A"/>
		</radialGradient>
		<circle fill="url(#SVGID_32_)" cx="135.375" cy="67.266" r="2.006"/>
		
			<radialGradient id="SVGID_33_" cx="113.0791" cy="85.4072" r="2.0051" gradientTransform="matrix(0.998 0.0639 -0.0639 0.998 17.5054 -16.8066)" gradientUnits="userSpaceOnUse">
			<stop  offset="0" style="stop-color:#FFF2AD"/>
			<stop  offset="1" style="stop-color:#FAA51A"/>
		</radialGradient>
		<circle fill="url(#SVGID_33_)" cx="124.9" cy="75.656" r="2.006"/>
		<g>
			<path fill="#FCB116" d="M123.137,79.989c-1.617-0.104-2.423-0.769-2.383-1.371c0.037-0.602,0.922-1.159,2.538-1.055
				c1.618,0.104,2.424,0.768,2.385,1.371C125.639,79.536,124.752,80.092,123.137,79.989z M123.254,78.146
				c-1.216-0.078-1.906,0.296-1.919,0.51c-0.014,0.215,0.624,0.672,1.839,0.75c1.218,0.078,1.908-0.295,1.921-0.51
				C125.108,78.682,124.471,78.223,123.254,78.146z"/>
		</g>
		<g>
			<path fill="#FCB116" d="M123.09,80.717c-1.616-0.104-2.423-0.768-2.385-1.371c0.04-0.602,0.924-1.159,2.54-1.055
				c1.616,0.104,2.422,0.768,2.385,1.371C125.591,80.264,124.708,80.82,123.09,80.717z M123.208,78.872
				c-1.216-0.078-1.907,0.297-1.92,0.511c-0.015,0.214,0.622,0.673,1.839,0.751s1.907-0.297,1.92-0.51
				C125.062,79.41,124.425,78.95,123.208,78.872z"/>
		</g>
		
			<radialGradient id="SVGID_34_" cx="114.3916" cy="90.7305" r="2.0054" gradientTransform="matrix(0.998 0.0639 -0.0639 0.998 17.5054 -16.8066)" gradientUnits="userSpaceOnUse">
			<stop  offset="0" style="stop-color:#FFF2AD"/>
			<stop  offset="1" style="stop-color:#FAA51A"/>
		</radialGradient>
		<circle fill="url(#SVGID_34_)" cx="125.87" cy="81.053" r="2.006"/>
		
			<radialGradient id="SVGID_35_" cx="117.856" cy="70.7129" r="2.1877" gradientTransform="matrix(0.998 0.0639 -0.0639 0.998 17.5054 -16.8066)" gradientUnits="userSpaceOnUse">
			<stop  offset="0" style="stop-color:#FFF2AD"/>
			<stop  offset="1" style="stop-color:#FAA51A"/>
		</radialGradient>
		<circle fill="url(#SVGID_35_)" cx="130.607" cy="61.297" r="2.188"/>
		
			<radialGradient id="SVGID_36_" cx="122.8872" cy="68.5986" r="2.1877" gradientTransform="matrix(0.998 0.0639 -0.0639 0.998 17.5054 -16.8066)" gradientUnits="userSpaceOnUse">
			<stop  offset="0" style="stop-color:#FFF2AD"/>
			<stop  offset="1" style="stop-color:#FAA51A"/>
		</radialGradient>
		<circle fill="url(#SVGID_36_)" cx="135.763" cy="59.508" r="2.188"/>
		
			<radialGradient id="SVGID_37_" cx="124.127" cy="72.5366" r="2.1877" gradientTransform="matrix(0.998 0.0639 -0.0639 0.998 17.5054 -16.8066)" gradientUnits="userSpaceOnUse">
			<stop  offset="0" style="stop-color:#FFF2AD"/>
			<stop  offset="1" style="stop-color:#FAA51A"/>
		</radialGradient>
		<circle fill="url(#SVGID_37_)" cx="136.749" cy="63.517" r="2.188"/>
		
			<radialGradient id="SVGID_38_" cx="119.3867" cy="74.2871" r="2.188" gradientTransform="matrix(0.998 0.0639 -0.0639 0.998 17.5054 -16.8066)" gradientUnits="userSpaceOnUse">
			<stop  offset="0" style="stop-color:#FFF2AD"/>
			<stop  offset="1" style="stop-color:#FAA51A"/>
		</radialGradient>
		<circle fill="url(#SVGID_38_)" cx="131.906" cy="64.961" r="2.188"/>
		
			<radialGradient id="SVGID_39_" cx="117.4902" cy="84.4951" r="2.698" gradientTransform="matrix(0.998 0.0639 -0.0639 0.998 17.5054 -16.8066)" gradientUnits="userSpaceOnUse">
			<stop  offset="0" style="stop-color:#FFF2AD"/>
			<stop  offset="1" style="stop-color:#FAA51A"/>
		</radialGradient>
		<circle fill="url(#SVGID_39_)" cx="129.361" cy="75.028" r="2.698"/>
		
			<radialGradient id="SVGID_40_" cx="107.6084" cy="61.2451" r="0.6603" gradientTransform="matrix(0.998 0.0639 -0.0639 0.998 17.5054 -16.8066)" gradientUnits="userSpaceOnUse">
			<stop  offset="0" style="stop-color:#FFF2AD"/>
			<stop  offset="1" style="stop-color:#FAA51A"/>
		</radialGradient>
		<path fill="url(#SVGID_40_)" d="M121.701,51.521c-0.117,0.251-0.531,0.31-0.925,0.129c-0.397-0.179-0.622-0.531-0.507-0.783
			c0.115-0.253,0.529-0.311,0.925-0.13C121.586,50.917,121.815,51.268,121.701,51.521z"/>
		
			<radialGradient id="SVGID_41_" cx="109.127" cy="67.3467" r="0.6594" gradientTransform="matrix(0.998 0.0639 -0.0639 0.998 17.5054 -16.8066)" gradientUnits="userSpaceOnUse">
			<stop  offset="0" style="stop-color:#FFF2AD"/>
			<stop  offset="1" style="stop-color:#FAA51A"/>
		</radialGradient>
		<path fill="url(#SVGID_41_)" d="M122.892,57.3c0.029,0.276-0.3,0.535-0.732,0.58c-0.43,0.043-0.805-0.145-0.831-0.421
			c-0.029-0.276,0.3-0.535,0.729-0.579C122.492,56.836,122.865,57.024,122.892,57.3z"/>
		
			<radialGradient id="SVGID_42_" cx="113.1138" cy="71.5762" r="0.6596" gradientTransform="matrix(0.998 0.0639 -0.0639 0.998 17.5054 -16.8066)" gradientUnits="userSpaceOnUse">
			<stop  offset="0" style="stop-color:#FFF2AD"/>
			<stop  offset="1" style="stop-color:#FAA51A"/>
		</radialGradient>
		<path fill="url(#SVGID_42_)" d="M126.145,61.139c0.251,0.115,0.312,0.528,0.131,0.923c-0.179,0.396-0.529,0.624-0.782,0.508
			c-0.252-0.114-0.311-0.527-0.132-0.923C125.541,61.252,125.891,61.025,126.145,61.139z"/>
		
			<radialGradient id="SVGID_43_" cx="124.1982" cy="78.2363" r="0.6598" gradientTransform="matrix(0.998 0.0639 -0.0639 0.998 17.5054 -16.8066)" gradientUnits="userSpaceOnUse">
			<stop  offset="0" style="stop-color:#FFF2AD"/>
			<stop  offset="1" style="stop-color:#FAA51A"/>
		</radialGradient>
		<path fill="url(#SVGID_43_)" d="M136.147,68.487c0.255-0.108,0.6,0.126,0.77,0.526c0.171,0.4,0.102,0.812-0.153,0.92
			c-0.254,0.109-0.601-0.126-0.771-0.526C135.822,69.009,135.893,68.598,136.147,68.487z"/>
		
			<radialGradient id="SVGID_44_" cx="114.1338" cy="92.8701" r="0.6596" gradientTransform="matrix(0.998 0.0639 -0.0639 0.998 17.5054 -16.8066)" gradientUnits="userSpaceOnUse">
			<stop  offset="0" style="stop-color:#FFF2AD"/>
			<stop  offset="1" style="stop-color:#FAA51A"/>
		</radialGradient>
		<path fill="url(#SVGID_44_)" d="M125.618,82.398c0.273,0.05,0.432,0.437,0.353,0.864c-0.079,0.428-0.363,0.733-0.637,0.682
			c-0.272-0.05-0.43-0.437-0.35-0.864C125.062,82.654,125.347,82.348,125.618,82.398z"/>
		
			<radialGradient id="SVGID_45_" cx="15.2725" cy="667.8545" r="0.6597" gradientTransform="matrix(0.8055 -0.5926 0.5926 0.8055 -284.4512 -454.9883)" gradientUnits="userSpaceOnUse">
			<stop  offset="0" style="stop-color:#FFF2AD"/>
			<stop  offset="1" style="stop-color:#FAA51A"/>
		</radialGradient>
		<path fill="url(#SVGID_45_)" d="M123.233,73.234c0.242-0.137,0.61,0.059,0.824,0.436c0.215,0.377,0.193,0.794-0.047,0.931
			c-0.242,0.137-0.611-0.058-0.826-0.436C122.971,73.789,122.992,73.372,123.233,73.234z"/>
		
			<radialGradient id="SVGID_46_" cx="121.9502" cy="106.6284" r="0.6598" gradientTransform="matrix(0.9991 0.0434 -0.0434 0.9991 8.749 -39.4629)" gradientUnits="userSpaceOnUse">
			<stop  offset="0" style="stop-color:#FFF2AD"/>
			<stop  offset="1" style="stop-color:#FAA51A"/>
		</radialGradient>
		<path fill="url(#SVGID_46_)" d="M126.088,71.586c0.273,0.045,0.439,0.429,0.369,0.857c-0.07,0.429-0.349,0.74-0.622,0.695
			s-0.439-0.429-0.369-0.856C125.535,71.854,125.814,71.542,126.088,71.586z"/>
		
			<radialGradient id="SVGID_47_" cx="113.5879" cy="59.2275" r="0.6599" gradientTransform="matrix(0.998 0.0639 -0.0639 0.998 17.5054 -16.8066)" gradientUnits="userSpaceOnUse">
			<stop  offset="0" style="stop-color:#FFF2AD"/>
			<stop  offset="1" style="stop-color:#FAA51A"/>
		</radialGradient>
		<path fill="url(#SVGID_47_)" d="M127.005,50.344c-0.276-0.026-0.466-0.398-0.425-0.83c0.042-0.432,0.299-0.762,0.576-0.735
			c0.276,0.027,0.466,0.398,0.425,0.832C127.539,50.042,127.283,50.371,127.005,50.344z"/>
		
			<radialGradient id="SVGID_48_" cx="118.5225" cy="60.2002" r="0.6602" gradientTransform="matrix(0.998 0.0639 -0.0639 0.998 17.5054 -16.8066)" gradientUnits="userSpaceOnUse">
			<stop  offset="0" style="stop-color:#FFF2AD"/>
			<stop  offset="1" style="stop-color:#FAA51A"/>
		</radialGradient>
		<path fill="url(#SVGID_48_)" d="M131.495,51.493c-0.229-0.159-0.212-0.577,0.035-0.933c0.25-0.355,0.637-0.516,0.864-0.357
			c0.227,0.158,0.211,0.576-0.037,0.932C132.108,51.492,131.721,51.652,131.495,51.493z"/>
		
			<radialGradient id="SVGID_49_" cx="122.083" cy="64.3447" r="0.6597" gradientTransform="matrix(0.998 0.0639 -0.0639 0.998 17.5054 -16.8066)" gradientUnits="userSpaceOnUse">
			<stop  offset="0" style="stop-color:#FFF2AD"/>
			<stop  offset="1" style="stop-color:#FAA51A"/>
		</radialGradient>
		<path fill="url(#SVGID_49_)" d="M134.476,55.422c-0.075-0.268,0.204-0.579,0.622-0.695s0.817,0.005,0.891,0.272
			c0.076,0.268-0.203,0.579-0.622,0.695C134.949,55.812,134.55,55.689,134.476,55.422z"/>
		
			<radialGradient id="SVGID_50_" cx="111.2441" cy="63.4683" r="0.7048" gradientTransform="matrix(0.998 0.0639 -0.0639 0.998 17.5054 -16.8066)" gradientUnits="userSpaceOnUse">
			<stop  offset="0" style="stop-color:#FFF2AD"/>
			<stop  offset="1" style="stop-color:#FAA51A"/>
		</radialGradient>
		<circle fill="url(#SVGID_50_)" cx="124.471" cy="53.645" r="0.705"/>
		
			<radialGradient id="SVGID_51_" cx="110.5391" cy="64.5142" r="0.7053" gradientTransform="matrix(0.998 0.0639 -0.0639 0.998 17.5054 -16.8066)" gradientUnits="userSpaceOnUse">
			<stop  offset="0" style="stop-color:#FFF2AD"/>
			<stop  offset="1" style="stop-color:#FAA51A"/>
		</radialGradient>
		<circle fill="url(#SVGID_51_)" cx="123.701" cy="54.644" r="0.705"/>
		
			<radialGradient id="SVGID_52_" cx="111.7529" cy="64.3687" r="0.7046" gradientTransform="matrix(0.998 0.0639 -0.0639 0.998 17.5054 -16.8066)" gradientUnits="userSpaceOnUse">
			<stop  offset="0" style="stop-color:#FFF2AD"/>
			<stop  offset="1" style="stop-color:#FAA51A"/>
		</radialGradient>
		<circle fill="url(#SVGID_52_)" cx="124.922" cy="54.575" r="0.705"/>
		
			<radialGradient id="SVGID_53_" cx="120.5542" cy="69.96" r="0.8748" gradientTransform="matrix(0.998 0.0639 -0.0639 0.998 17.5054 -16.8066)" gradientUnits="userSpaceOnUse">
			<stop  offset="0" style="stop-color:#52B848"/>
			<stop  offset="1" style="stop-color:#318C42"/>
		</radialGradient>
		<circle fill="url(#SVGID_53_)" cx="133.347" cy="60.718" r="0.875"/>
		
			<radialGradient id="SVGID_54_" cx="122.1587" cy="70.6396" r="0.875" gradientTransform="matrix(0.998 0.0639 -0.0639 0.998 17.5054 -16.8066)" gradientUnits="userSpaceOnUse">
			<stop  offset="0" style="stop-color:#52B848"/>
			<stop  offset="1" style="stop-color:#318C42"/>
		</radialGradient>
		<circle fill="url(#SVGID_54_)" cx="134.905" cy="61.499" r="0.875"/>
		
			<radialGradient id="SVGID_55_" cx="121.3311" cy="72.2446" r="0.8755" gradientTransform="matrix(0.998 0.0639 -0.0639 0.998 17.5054 -16.8066)" gradientUnits="userSpaceOnUse">
			<stop  offset="0" style="stop-color:#52B848"/>
			<stop  offset="1" style="stop-color:#318C42"/>
		</radialGradient>
		<circle fill="url(#SVGID_55_)" cx="133.977" cy="63.048" r="0.875"/>
		
			<radialGradient id="SVGID_56_" cx="119.6777" cy="71.5156" r="0.8748" gradientTransform="matrix(0.998 0.0639 -0.0639 0.998 17.5054 -16.8066)" gradientUnits="userSpaceOnUse">
			<stop  offset="0" style="stop-color:#52B848"/>
			<stop  offset="1" style="stop-color:#318C42"/>
		</radialGradient>
		<circle fill="url(#SVGID_56_)" cx="132.374" cy="62.214" r="0.875"/>
		
			<radialGradient id="SVGID_57_" cx="120.8936" cy="71.126" r="0.729" gradientTransform="matrix(0.998 0.0639 -0.0639 0.998 17.5054 -16.8066)" gradientUnits="userSpaceOnUse">
			<stop  offset="0" style="stop-color:#DA9E5F"/>
			<stop  offset="1" style="stop-color:#DB546E"/>
		</radialGradient>
		<circle fill="url(#SVGID_57_)" cx="133.612" cy="61.904" r="0.729"/>
		
			<radialGradient id="SVGID_58_" cx="114.5137" cy="66.854" r="2.633" gradientTransform="matrix(0.998 0.0639 -0.0639 0.998 17.5054 -16.8066)" gradientUnits="userSpaceOnUse">
			<stop  offset="0" style="stop-color:#DA9E5F"/>
			<stop  offset="1" style="stop-color:#DB546E"/>
		</radialGradient>
		<path fill="url(#SVGID_58_)" d="M124.797,54.81c0,0,1.611,7.375,4.867,3.893C129.665,58.703,133.228,54.401,124.797,54.81z"/>
		
			<radialGradient id="SVGID_59_" cx="-60.4634" cy="-300.5459" r="1.5366" gradientTransform="matrix(0.8316 0.5553 -0.5553 0.8316 14.9209 355.2021)" gradientUnits="userSpaceOnUse">
			<stop  offset="0" style="stop-color:#DA9E5F"/>
			<stop  offset="1" style="stop-color:#DB546E"/>
		</radialGradient>
		<path fill="url(#SVGID_59_)" d="M132.983,72.662c-0.397,0.596-1.368,0.645-2.168,0.111c-0.8-0.535-1.129-1.451-0.731-2.047
			c0.398-0.595,1.37-0.644,2.171-0.109C133.055,71.15,133.382,72.066,132.983,72.662z"/>
		
			<radialGradient id="SVGID_60_" cx="-599.3013" cy="-559.793" r="1.5356" gradientTransform="matrix(0.2528 0.9675 -0.9675 0.2528 -262.8662 801.1328)" gradientUnits="userSpaceOnUse">
			<stop  offset="0" style="stop-color:#DA9E5F"/>
			<stop  offset="1" style="stop-color:#DB546E"/>
		</radialGradient>
		<path fill="url(#SVGID_60_)" d="M127.67,81.48c-0.692,0.182-1.45-0.427-1.694-1.359c-0.244-0.931,0.12-1.833,0.812-2.014
			c0.694-0.181,1.453,0.426,1.696,1.359C128.727,80.398,128.363,81.3,127.67,81.48z"/>
		
			<radialGradient id="SVGID_61_" cx="23.2417" cy="-181.7461" r="1.5353" gradientTransform="matrix(0.9141 0.4055 -0.4055 0.9141 33.967 234.7842)" gradientUnits="userSpaceOnUse">
			<stop  offset="0" style="stop-color:#DA9E5F"/>
			<stop  offset="1" style="stop-color:#DB546E"/>
		</radialGradient>
		<path fill="url(#SVGID_61_)" d="M130.503,78.781c-0.29,0.655-1.238,0.868-2.118,0.478c-0.881-0.39-1.359-1.236-1.068-1.891
			c0.291-0.654,1.239-0.868,2.118-0.479C130.317,77.28,130.794,78.128,130.503,78.781z"/>
	</g>
	<g>
		<g>
			<path fill-rule="evenodd" clip-rule="evenodd" fill="#377539" d="M287.305,125.218l-0.644-0.012
				c-0.481,0-1.863,0.024-3.532,0.261c3.821-2.247,6.45-3.9,7.562-5.192c0.738,0.206,2.359,1.44,2.829,2.113
				c-2.051,0.557-5.522,4.268-7.314,6.315L287.305,125.218z"/>
			<path fill="#010101" d="M290.788,120.675c0.573,0.257,1.613,0.999,2.165,1.548c-1.762,0.761-4.18,3.145-5.948,5.073l0.486-1.545
				l0.272-0.862l-0.903-0.021l-0.199-0.001c-0.325,0-1.052,0.011-1.999,0.088C287.619,123.188,289.721,121.809,290.788,120.675
				 M290.555,119.907c-1.137,1.454-4.527,3.483-9.277,6.25c2.424-0.567,4.731-0.611,5.384-0.611c0.12,0,0.184,0.001,0.184,0.001
				l-1.468,4.652c0,0,6.216-7.542,8.575-7.542c0.012,0,0.024,0,0.036,0.001C293.948,121.855,291.355,119.954,290.555,119.907
				L290.555,119.907z"/>
		</g>
		<g>
			<path fill-rule="evenodd" clip-rule="evenodd" fill="#377539" d="M295.82,133.497l-0.226,0.133
				c-0.056,0.032-1.127,0.678-2.081,2.483c-0.032-0.945-0.062-2.008-0.091-3.108c-0.105-3.949-0.214-8.025-0.598-9.502
				c0.533-0.446,2.383-1.211,3.365-1.211c0.029,0,0.057,0.001,0.081,0.003c-0.212,5.341,1.835,11.688,2.878,14.539L295.82,133.497z"
				/>
			<path fill="#010101" d="M295.92,122.65c-0.093,4.55,1.354,9.726,2.415,12.885l-2.089-2.092l-0.37-0.372l-0.453,0.266
				c-0.047,0.027-0.794,0.477-1.606,1.631c-0.019-0.63-0.035-1.294-0.055-1.974c-0.117-4.458-0.231-7.824-0.556-9.353
				C293.761,123.286,295.09,122.757,295.92,122.65 M296.19,121.951c-1.078,0-3.337,0.909-3.747,1.458
				c0.598,1.749,0.581,10.109,0.794,14.176c1.003-2.768,2.528-3.662,2.528-3.662l4.278,4.287c0,0-3.806-9.146-3.421-16.174
				C296.522,121.977,296.374,121.951,296.19,121.951L296.19,121.951z"/>
		</g>
		<path fill-rule="evenodd" clip-rule="evenodd" fill="#377539" stroke="#010101" stroke-width="0.5" d="M293.688,115.779
			c-1.03-2.283-2.07-4.337-3.477-6.2c-2.327-3.082-4.225-3.236-6.796-0.312c-1.088,1.237-2.088,2.56-3.055,3.898
			c-1.521,2.096-1.346,3.489,0.688,5.222c2.269,1.94,5.026,2.717,8.038,3.076c1.04,1.846,3.71,3.417,7.226,1.841
			c1.796,1.784,3.654,3.52,5.75,4.977c0.913,0.634,1.848,1.209,2.949,1.448c2.146,0.464,3.613-0.248,4.378-2.282
			c0.839-2.242,1.415-4.573,1.704-6.949c0.328-2.687-0.865-4.046-3.591-4.152c-2.656-0.106-5.204,0.641-7.78,1.133
			C297.581,117.888,295.198,114.13,293.688,115.779z"/>
		<path fill="#010101" d="M283.875,108.572c0,0,0.151,0.062,0.44,0.232c0.15,0.077,0.303,0.187,0.477,0.313
			c0.171,0.128,0.382,0.255,0.57,0.437c0.402,0.339,0.852,0.748,1.273,1.241c0.462,0.458,0.85,1.03,1.267,1.575
			c0.438,0.531,0.737,1.155,1.089,1.689c0.354,0.537,0.611,1.075,0.835,1.535c0.452,0.915,0.755,1.525,0.755,1.525
			s-0.34-0.59-0.848-1.474c-0.252-0.443-0.541-0.961-0.924-1.471c-0.381-0.507-0.714-1.104-1.178-1.598
			c-0.442-0.509-0.854-1.044-1.329-1.458c-0.438-0.452-0.893-0.815-1.291-1.111c-0.189-0.162-0.391-0.264-0.559-0.374
			c-0.168-0.107-0.314-0.2-0.435-0.251c-0.231-0.122-0.398-0.18-0.398-0.18L283.875,108.572z"/>
		<path fill="#010101" d="M282.936,109.761c0,0,0.097,0.036,0.298,0.144c0.198,0.104,0.434,0.257,0.706,0.469
			c0.27,0.211,0.57,0.468,0.854,0.777c0.31,0.287,0.572,0.648,0.854,0.991c0.293,0.333,0.5,0.728,0.737,1.064
			c0.239,0.338,0.417,0.679,0.571,0.97c0.311,0.578,0.518,0.963,0.518,0.963s-0.243-0.363-0.608-0.907
			c-0.181-0.273-0.387-0.592-0.655-0.901c-0.267-0.308-0.504-0.674-0.821-0.97c-0.306-0.305-0.591-0.628-0.91-0.87
			c-0.299-0.269-0.603-0.479-0.866-0.647c-0.547-0.339-0.876-0.438-0.899-0.441L282.936,109.761z"/>
		<path fill="#010101" d="M309.701,126.728c0,0-0.163,0.016-0.497-0.001c-0.169,0.001-0.354-0.025-0.566-0.057
			c-0.213-0.034-0.458-0.049-0.71-0.122c-0.513-0.114-1.102-0.268-1.704-0.508c-0.622-0.192-1.229-0.52-1.852-0.808
			c-0.635-0.268-1.19-0.681-1.749-0.991c-0.562-0.311-1.041-0.668-1.453-0.972c-0.825-0.602-1.376-1.001-1.376-1.001
			s0.575,0.365,1.436,0.912c0.428,0.277,0.925,0.601,1.499,0.875c0.575,0.272,1.146,0.645,1.785,0.869
			c0.629,0.246,1.242,0.528,1.854,0.675c0.599,0.198,1.17,0.308,1.66,0.385c0.244,0.056,0.47,0.053,0.668,0.073
			c0.198,0.017,0.372,0.03,0.502,0.02c0.262,0.001,0.437-0.025,0.437-0.025L309.701,126.728z"/>
		<path fill="#010101" d="M291.411,118.757c0,0,0.167,0.37,0.488,0.825c0.31,0.467,0.829,0.96,1.456,1.188
			c0.318,0.108,0.657,0.161,0.992,0.172c0.333,0.007,0.658,0,0.938-0.045c0.282-0.028,0.521-0.076,0.69-0.099
			c0.17-0.024,0.273-0.03,0.273-0.03s-0.079,0.061-0.226,0.153c-0.154,0.075-0.352,0.252-0.64,0.345
			c-0.281,0.107-0.62,0.237-1.014,0.273c-0.391,0.049-0.827-0.001-1.245-0.131c-0.405-0.167-0.783-0.412-1.044-0.724
			c-0.259-0.309-0.422-0.643-0.522-0.933C291.358,119.166,291.411,118.757,291.411,118.757z"/>
	</g>
</g>
</svg>
